<svg width="335" height="230" viewBox="0 0 335 230" fill="none" xmlns="http://www.w3.org/2000/svg">
<mask id="mask0"  maskUnits="userSpaceOnUse" x="0" y="1" width="335" height="210">
<path fill-rule="evenodd" clip-rule="evenodd" d="M0 1H335V211H0V1Z" fill="white"/>
</mask>
<g mask="url(#mask0)">
<path d="M4.14242 125.123C4.14242 125.123 12.9065 110.248 39.9292 99.0308C42.3638 97.08 80.8285 88.0751 85.5757 48.561C88.4971 43.4312 114.668 5.14546 154.35 1C158.732 1 197.318 2.09736 224.706 25.8735C227.993 29.0035 236.392 36.1155 251.729 32.0919C255.746 29.0035 313.078 23.6788 317.947 70.987C317.947 76.108 319.407 78.0588 312.591 94.3974C310.887 97.3237 302.123 113.175 312.591 123.66C315.756 127.318 338.64 156.093 334.501 172.432C333.527 176.578 323.789 199.744 280.943 205.84C267.066 207.06 104.93 216.814 42.8506 205.84C26.9865 197.22 2.31656 176.906 0.855871 156.441C-0.969987 152.872 0.125528 133.293 4.14242 125.123Z" fill="#F2F2F2"/>
</g>
<path d="M232.829 211L164.761 210.688C156.574 210.651 149.969 204.006 150 195.844L150.724 25.722C150.761 17.5541 157.427 10.9635 165.62 11.0002L233.688 11.312C241.876 11.3486 248.48 17.9943 248.45 26.1562L247.726 196.278C247.695 204.445 241.023 211.037 232.829 211Z" fill="#8F5F43"/>
<path d="M233.494 16.7453L220.335 16.684C218.567 16.6778 217.13 18.1677 217.124 20.0194L217.111 22.4105C217.105 24.2621 215.668 25.752 213.901 25.7459L188.248 25.6294C186.481 25.6233 185.062 24.1149 185.068 22.2633L185.081 19.8722C185.087 18.0206 183.662 16.5184 181.9 16.5061L177.271 16.4816L165.756 16.4265C160.039 16.4019 155.379 21.031 155.354 26.7636L154.651 193.288C154.627 199.02 159.238 203.686 164.955 203.711L232.693 204.023C238.411 204.048 243.071 199.418 243.095 193.686L243.798 27.1621C243.829 21.4357 239.213 16.7697 233.494 16.7453Z" fill="white"/>
<g filter="url(#filter0_d)">
<path d="M213.331 101.301H211.181C210.368 101.301 209.707 101.962 209.707 102.775V109.225C209.707 110.038 210.368 110.699 211.181 110.699H213.331C214.144 110.699 214.805 110.038 214.805 109.225V102.775C214.805 101.962 214.144 101.301 213.331 101.301Z" fill="#390B12"/>
</g>
<g filter="url(#filter1_d)">
<path fill-rule="evenodd" clip-rule="evenodd" d="M204.4 76.0605C210.59 77.0899 216.294 80.009 220.821 84.5351C226.554 90.2687 229.711 97.8917 229.711 106C229.711 114.108 226.554 121.731 220.82 127.465C216.294 131.991 210.59 134.91 204.4 135.939C207.465 133.14 209.953 127.735 211.433 120.355C211.623 119.406 211.008 118.483 210.06 118.293C209.112 118.104 208.189 118.718 207.998 119.666C207.068 124.311 205.687 128.196 204.007 130.902C202.958 132.591 201.299 134.605 199.356 134.605C197.412 134.605 195.753 132.591 194.704 130.902C193.024 128.196 191.644 124.31 190.713 119.666C190.523 118.718 189.6 118.103 188.651 118.293C187.703 118.483 187.088 119.406 187.278 120.355C188.758 127.735 191.246 133.14 194.312 135.939C188.121 134.91 182.417 131.991 177.891 127.465C172.158 121.731 169 114.108 169 106C169 97.8917 172.158 90.2687 177.891 84.535C182.417 80.009 188.122 77.0898 194.312 76.0604C191.246 78.8601 188.758 84.2649 187.279 91.6452C187.088 92.5936 187.703 93.5165 188.652 93.7066C189.6 93.8962 190.523 93.2821 190.713 92.3337C191.644 87.6894 193.024 83.8042 194.705 81.0983C195.753 79.4092 197.412 77.3955 199.356 77.3955C201.3 77.3955 202.958 79.4092 204.007 81.0982C205.688 83.8041 207.068 87.6893 207.999 92.3336C208.166 93.1659 208.897 93.7411 209.714 93.7411C209.828 93.7411 209.944 93.7299 210.06 93.7067C211.008 93.5165 211.623 92.5937 211.433 91.6454C209.953 84.2649 207.466 78.8603 204.4 76.0605ZM188.341 114.201C190.638 114.201 192.507 112.332 192.507 110.035C192.507 108.129 191.221 106.473 189.376 106C191.221 105.527 192.507 103.871 192.507 101.965C192.507 99.6673 190.638 97.7984 188.341 97.7984H182.155C181.188 97.7984 180.404 98.5826 180.404 99.5497C180.404 100.517 181.188 101.301 182.155 101.301H188.341C188.707 101.301 189.004 101.599 189.004 101.965C189.004 102.27 188.798 102.534 188.502 102.608L184.395 103.635C183.308 103.907 182.548 104.879 182.548 106C182.548 107.121 183.308 108.093 184.395 108.365L188.502 109.392C188.798 109.466 189.004 109.73 189.004 110.035C189.004 110.401 188.706 110.699 188.341 110.699H182.155C181.188 110.699 180.404 111.483 180.404 112.45C180.404 113.417 181.188 114.201 182.155 114.201H188.341ZM200.431 104.249C203.175 104.249 205.407 106.481 205.407 109.225C205.407 111.969 203.175 114.201 200.431 114.201H198.281C195.537 114.201 193.304 111.969 193.304 109.225V102.775C193.304 100.031 195.537 97.7986 198.281 97.7986H203.656C204.623 97.7986 205.407 98.5827 205.407 99.5498C205.407 100.517 204.623 101.301 203.656 101.301H198.281C197.468 101.301 196.807 101.962 196.807 102.775V104.249H200.431ZM211.181 114.201H213.331C216.075 114.201 218.308 111.969 218.307 109.225V102.775C218.307 100.031 216.075 97.7986 213.331 97.7986H211.181C208.437 97.7986 206.205 100.031 206.205 102.775V109.225C206.205 111.969 208.437 114.201 211.181 114.201Z" fill="#390B12"/>
</g>
<g filter="url(#filter2_d)">
<path d="M200.431 107.751H196.807V109.225C196.807 110.038 197.468 110.699 198.281 110.699H200.431C201.243 110.699 201.905 110.038 201.905 109.225C201.905 108.413 201.243 107.751 200.431 107.751Z" fill="#390B12"/>
</g>
<mask id="mask1"  maskUnits="userSpaceOnUse" x="274" y="11" width="17" height="12">
<path fill-rule="evenodd" clip-rule="evenodd" d="M274.698 11.6572H290.963V22.7046H274.698V11.6572Z" fill="white"/>
</mask>
<g mask="url(#mask1)">
<path d="M274.698 12.1688L276.515 11.6571C276.515 11.6571 279.221 13.8858 282.401 13.6091C285.58 13.3325 288.049 11.9537 288.049 11.9537L290.963 12.6451C290.963 12.6451 286.567 23.6471 282.831 22.6395C279.094 21.6318 274.698 12.1688 274.698 12.1688Z" fill="#8F5F43"/>
</g>
<mask id="mask2"  maskUnits="userSpaceOnUse" x="272" y="11" width="21" height="23">
<path fill-rule="evenodd" clip-rule="evenodd" d="M272.241 11.6633H292.199V33.3755H272.241V11.6633Z" fill="white"/>
</mask>
<g mask="url(#mask2)">
<g filter="url(#filter3_d)">
<path d="M273.463 21.7415C273.463 21.7415 273.529 24.6335 273.856 25.4879C274.184 26.3424 274.773 27.9197 274.773 27.9197L275.493 33.3754H288.983L289.572 27.5584C289.572 27.5584 290.751 24.7649 290.751 23.9104V21.2492C290.751 21.0429 290.761 20.8373 290.781 20.6317C290.917 19.2261 291.587 13.9305 292.199 12.9803L288.109 11.9699C288.109 11.9699 285.774 19.4848 281.649 18.6084C277.523 17.7321 276.65 11.6631 276.65 11.6631L272.241 12.9558C272.241 12.9558 274.445 19.9011 273.463 21.7415Z" fill="#390B12"/>
</g>
</g>
<mask id="mask3"  maskUnits="userSpaceOnUse" x="261" y="33" width="43" height="38">
<path fill-rule="evenodd" clip-rule="evenodd" d="M261 33.0095H303.904V70.8848H261V33.0095Z" fill="white"/>
</mask>
<g mask="url(#mask3)">
<g filter="url(#filter4_d)">
<path d="M275.523 33.0095H288.867C288.867 33.0095 296.985 43.2922 300.613 54.8818C304.24 66.4713 303.895 67.343 303.895 67.343C303.895 67.343 294.135 72.3099 285.93 70.48C277.725 68.65 266.415 72.5638 261 67.0999C261 67.0999 269.067 39.5232 275.523 33.0095Z" fill="#390B12"/>
</g>
</g>
<g filter="url(#filter5_d)">
<path d="M279.387 31.9795C276.036 30.26 275.078 17.928 273.156 12.667L272.217 12.9496C272.217 12.9496 274.373 19.9255 273.413 21.7742C273.413 21.7742 273.477 24.6787 273.797 25.5369C274.117 26.3952 274.694 27.9796 274.694 27.9796L275.398 33.4591H288.591L288.748 31.8633C287.234 32.4794 282.32 33.4841 279.387 31.9795Z" fill="#390B12"/>
</g>
<path d="M281.981 34.0531C278.181 34.0531 275.739 33.7686 275.169 33.5389L275.252 32.8779C275.688 33.0537 278.184 33.3986 281.981 33.3986C285.77 33.3986 288.515 32.9285 288.748 32.865L288.734 33.5354C288.491 33.6017 285.841 34.0531 281.981 34.0531Z" fill="white"/>
<path fill-rule="evenodd" clip-rule="evenodd" d="M283.435 33.6834C283.435 33.8156 283.4 33.938 283.342 34.0433C283.177 34.0507 283.008 34.0531 282.836 34.0531C282.7 34.0531 282.565 34.0507 282.435 34.0482C282.376 34.0482 282.319 34.0458 282.263 34.0433C280.658 33.9973 279.474 33.7625 278.927 33.55C278.769 33.4888 278.682 33.3108 278.721 33.1369C278.765 32.9369 278.958 32.8204 279.143 32.8811C279.681 33.0574 280.775 33.2657 282.269 33.3088C282.324 33.3113 282.38 33.3137 282.437 33.3137C282.568 33.3162 282.701 33.3186 282.836 33.3186C283.005 33.3186 283.172 33.3162 283.334 33.3113C283.398 33.4165 283.435 33.5463 283.435 33.6834Z" fill="#745075"/>
<path d="M283.274 34.0437L283.271 34.0461C282.126 34.0852 279.999 33.9659 278.926 33.5497C278.769 33.4886 278.682 33.3125 278.721 33.1389C278.758 32.975 278.894 32.865 279.044 32.865C279.076 32.865 279.11 32.8723 279.143 32.8821C280.25 33.2448 282.046 33.3365 283.262 33.3149C283.481 33.5235 283.5 33.8033 283.274 34.0437Z" fill="white"/>
<path d="M283.334 34.1056C282.912 34.8225 281.506 34.8295 281.073 34.1158C281.185 34.1175 281.257 34.1138 281.392 34.1192C281.575 34.2915 281.869 34.4042 282.203 34.4042C282.744 34.4042 283 34.1272 283.024 34.1128C283.657 33.4146 282.203 32.7154 281.436 33.3598C281.328 33.3549 281.213 33.35 281.109 33.3396C281.316 33.058 281.732 32.865 282.203 32.865C283.103 32.865 283.678 33.5389 283.334 34.1056Z" fill="#8F5F43"/>
<path fill-rule="evenodd" clip-rule="evenodd" d="M282.93 33.4591C282.93 33.5083 282.892 33.548 282.844 33.548C282.797 33.548 282.759 33.5083 282.759 33.4591C282.759 33.4099 282.797 33.3702 282.844 33.3702C282.892 33.3702 282.93 33.4099 282.93 33.4591Z" fill="#3C233D"/>
<g filter="url(#filter6_d)">
<path d="M283.282 33.5441H282.998C282.913 33.5441 282.844 33.506 282.844 33.4591C282.844 33.4121 282.913 33.374 282.998 33.374H283.282C283.366 33.374 283.435 33.4121 283.435 33.4591C283.435 33.506 283.366 33.5441 283.282 33.5441Z" fill="#390B12"/>
</g>
<g filter="url(#filter7_d)">
<path d="M283.427 33.4064C283.409 33.4431 283.349 33.471 283.275 33.471H282.844C282.873 33.495 282.921 33.5118 282.978 33.5118H283.275C283.363 33.5118 283.435 33.4737 283.435 33.4268C283.435 33.4195 283.43 33.4132 283.427 33.4064Z" fill="#390B12"/>
</g>
<path d="M281.664 33.0548C282.406 32.6912 283.054 32.888 283.415 33.3237C283.476 33.3974 283.383 33.5085 283.322 33.4348C283.318 33.4301 283.317 33.4279 283.315 33.4257C283.017 33.0086 282.41 32.7614 281.664 33.0548Z" fill="#8F5F43"/>
<path d="M281.664 34.471C282.411 34.8174 283.058 34.6164 283.415 34.1853C283.476 34.1122 283.382 34.0044 283.321 34.0774C283.317 34.082 283.316 34.0845 283.315 34.0864C283.02 34.4987 282.414 34.7483 281.664 34.471Z" fill="#8F5F43"/>
<mask id="mask4"  maskUnits="userSpaceOnUse" x="304" y="96" width="12" height="9">
<path fill-rule="evenodd" clip-rule="evenodd" d="M304.07 96.1364H315.734V104.551H304.07V96.1364Z" fill="white"/>
</mask>
<g mask="url(#mask4)">
<path fill-rule="evenodd" clip-rule="evenodd" d="M305.798 104.205L304.07 96.9773L304.885 96.5699C304.885 96.5699 309.918 97.6585 313.994 96.1362L315.734 96.7665L314.116 104.551L305.798 104.205Z" fill="#390B12"/>
</g>
<path fill-rule="evenodd" clip-rule="evenodd" d="M314.964 96.7155L315.724 96.9382L315.734 96.8911L313.995 96.261C309.918 97.7831 304.885 96.6946 304.885 96.6946L304.07 97.1021L304.096 97.2109C305.549 97.4182 310.683 98.0081 314.964 96.7155Z" fill="#8F5F43"/>
<mask id="mask5"  maskUnits="userSpaceOnUse" x="297" y="106" width="6" height="5">
<path fill-rule="evenodd" clip-rule="evenodd" d="M297 106.284H302.433V110.232H297V106.284Z" fill="white"/>
</mask>
<g mask="url(#mask5)">
<path fill-rule="evenodd" clip-rule="evenodd" d="M300.025 106.284L297.057 106.41C297.057 106.41 296.741 106.955 297.593 107.807C298.446 108.659 302.339 110.557 302.422 110.183C302.505 109.81 302.127 108.477 301.798 108.148C301.468 107.818 300.025 106.284 300.025 106.284Z" fill="#390B12"/>
</g>
<path fill-rule="evenodd" clip-rule="evenodd" d="M297.057 106.41C297.057 106.41 301.822 108.405 302.422 110.184L303.078 107.228L303.466 101.282L300.439 98.9192L297.057 106.41Z" fill="#8F5F43"/>
<mask id="mask6"  maskUnits="userSpaceOnUse" x="317" y="105" width="6" height="6">
<path fill-rule="evenodd" clip-rule="evenodd" d="M317.512 105.816H322.795V110.02H317.512V105.816Z" fill="white"/>
</mask>
<g mask="url(#mask6)">
<path fill-rule="evenodd" clip-rule="evenodd" d="M322.791 105.819C322.957 106.307 318.317 110.331 317.512 110.001C317.512 110.001 317.548 109.163 317.843 108.258C318.139 107.352 321.288 105.744 322.791 105.819Z" fill="#390B12"/>
</g>
<path fill-rule="evenodd" clip-rule="evenodd" d="M319.34 98.1978L322.791 105.819C322.791 105.819 317.948 107.382 317.512 110.001L316.982 107.339V102.527L319.34 98.1978Z" fill="#8F5F43"/>
<mask id="mask7"  maskUnits="userSpaceOnUse" x="300" y="96" width="20" height="30">
<path fill-rule="evenodd" clip-rule="evenodd" d="M300.439 96.2743H319.34V125.941H300.439V96.2743Z" fill="white"/>
</mask>
<g mask="url(#mask7)">
<path fill-rule="evenodd" clip-rule="evenodd" d="M300.439 98.9192C300.439 98.9192 303.112 105.148 303.112 106.711C303.112 108.275 302.103 121.151 301.284 124.819C301.284 124.819 312.249 127.118 318.304 125.134C318.304 125.134 316.327 113.239 316.982 107.339C317.018 107.016 319.34 98.1977 319.34 98.1977L314.031 96.2743C314.031 96.2743 312.823 100.807 309.195 100.807C306.297 100.807 304.77 96.7517 304.77 96.7517L300.439 98.9192Z" fill="#390B12"/>
</g>
<path fill-rule="evenodd" clip-rule="evenodd" d="M304.07 116.492C304.593 114.335 309.616 115.171 305.934 111.489C302.892 108.447 302.682 100.468 302.701 97.7872L300.439 98.9193C300.439 98.9193 303.112 105.148 303.112 106.711C303.112 108.275 302.103 121.151 301.284 124.819C301.284 124.819 305.116 125.622 309.5 125.87C309.642 124.846 309.56 123.636 308.802 122.603C307.102 120.284 303.548 118.648 304.07 116.492Z" fill="#390B12"/>
<path fill-rule="evenodd" clip-rule="evenodd" d="M309.252 101.42C311.918 101.42 313.759 98.1792 314.548 96.4613L313.994 96.2609C313.994 96.2609 312.763 100.625 309.136 100.625C306.237 100.625 304.885 96.6945 304.885 96.6945L304.272 97.001C305.202 98.5827 307.162 101.42 309.252 101.42Z" fill="#8F5F43"/>
<mask id="mask8"  maskUnits="userSpaceOnUse" x="264" y="142" width="33" height="29">
<path fill-rule="evenodd" clip-rule="evenodd" d="M264.261 142.354H296.936V170.927H264.261V142.354Z" fill="white"/>
</mask>
<g mask="url(#mask8)">
<path fill-rule="evenodd" clip-rule="evenodd" d="M296.916 156.025L292.53 170.913L292.527 170.927L291.592 170.364L285.684 166.814L280.651 163.791L264.261 153.939V153.928L274.69 143.819L274.75 143.762L275.677 142.86L275.741 142.8L275.882 142.662C275.972 142.574 276.082 142.511 276.203 142.478C277.036 142.251 279.957 141.758 288.222 147.168C294.127 151.072 297.217 154.658 296.916 156.025Z" fill="#390B12"/>
</g>
<path fill-rule="evenodd" clip-rule="evenodd" d="M288.222 147.168C284.193 144.504 281.265 143.211 279.336 142.685C281.809 145.06 284.297 147.925 285.375 150.557C287.403 155.513 282.754 161.469 280.501 163.955L293.158 171.761L296.916 156.025C297.217 154.658 294.127 151.072 288.222 147.168Z" fill="#390B12"/>
<path fill-rule="evenodd" clip-rule="evenodd" d="M293.16 171.796C292.206 170.699 287.328 166.772 279.354 161.835C271.38 156.899 265.253 153.698 264.283 153.92L257.069 156.626L293.725 179.337L293.16 171.796Z" fill="#8F5F43"/>
<path fill-rule="evenodd" clip-rule="evenodd" d="M293.159 171.796C293.208 171.104 289.818 168.612 284.498 165.114C286.03 167.268 287.409 169.338 288.113 170.717C289.028 172.511 289.569 174.861 289.889 176.963L293.725 179.337L293.159 171.796Z" fill="#8F5F43"/>
<mask id="mask9"  maskUnits="userSpaceOnUse" x="257" y="156" width="37" height="24">
<path fill-rule="evenodd" clip-rule="evenodd" d="M257 156.62H293.724V179.465H257V156.62Z" fill="white"/>
</mask>
<g mask="url(#mask9)">
<path fill-rule="evenodd" clip-rule="evenodd" d="M293.722 179.355C293.437 180.237 284.628 175.7 274.501 169.431C264.374 163.161 256.28 157.148 257.051 156.633C257.463 156.358 266.141 160.306 276.268 166.576C286.396 172.845 293.891 178.829 293.722 179.355Z" fill="#390B12"/>
</g>
<path fill-rule="evenodd" clip-rule="evenodd" d="M296.608 156.984C296.399 156.782 296.18 156.573 295.953 156.364C295.943 156.35 295.918 156.354 295.904 156.368C295.886 156.386 295.886 156.41 295.904 156.421C296.13 156.63 296.346 156.835 296.551 157.036C296.562 157.047 296.573 157.051 296.58 157.051C296.59 157.051 296.601 157.047 296.608 157.036C296.622 157.023 296.622 156.998 296.608 156.984ZM295.295 155.763C295.075 155.564 294.849 155.366 294.622 155.168C294.605 155.15 294.58 155.154 294.569 155.168C294.555 155.186 294.559 155.21 294.573 155.224C294.799 155.423 295.022 155.621 295.245 155.816C295.249 155.823 295.259 155.83 295.266 155.83C295.281 155.83 295.288 155.823 295.295 155.812C295.312 155.798 295.312 155.773 295.295 155.763ZM293.939 154.58C293.716 154.393 293.489 154.198 293.252 154.007C293.238 153.993 293.213 153.993 293.199 154.01C293.185 154.028 293.185 154.053 293.206 154.063C293.44 154.258 293.67 154.449 293.893 154.637C293.897 154.644 293.907 154.647 293.914 154.647C293.928 154.647 293.939 154.644 293.946 154.637C293.96 154.619 293.96 154.594 293.939 154.58ZM292.559 153.44C292.328 153.253 292.095 153.065 291.854 152.881C291.84 152.867 291.815 152.87 291.805 152.888C291.787 152.902 291.79 152.927 291.812 152.941C292.045 153.129 292.279 153.313 292.509 153.501C292.52 153.504 292.523 153.508 292.534 153.508C292.544 153.508 292.555 153.504 292.562 153.493C292.576 153.476 292.573 153.451 292.559 153.44ZM291.146 152.329C290.916 152.148 290.679 151.968 290.438 151.784C290.417 151.773 290.392 151.777 290.382 151.794C290.371 151.809 290.371 151.833 290.389 151.844C290.633 152.028 290.866 152.209 291.1 152.389C291.107 152.396 291.118 152.4 291.125 152.4C291.136 152.4 291.146 152.393 291.157 152.382C291.167 152.364 291.167 152.343 291.146 152.329ZM289.716 151.246C289.479 151.069 289.238 150.895 288.994 150.718C288.976 150.704 288.951 150.711 288.941 150.725C288.927 150.743 288.93 150.767 288.948 150.782C289.192 150.959 289.433 151.136 289.67 151.309C289.681 151.313 289.684 151.316 289.695 151.316C289.705 151.316 289.716 151.313 289.727 151.302C289.737 151.284 289.734 151.26 289.716 151.246ZM288.265 150.194C288.02 150.024 287.78 149.851 287.532 149.678C287.511 149.667 287.489 149.674 287.479 149.688C287.468 149.706 287.468 149.731 287.489 149.741C287.734 149.915 287.978 150.085 288.222 150.258C288.226 150.262 288.236 150.265 288.243 150.265C288.254 150.265 288.265 150.258 288.272 150.251C288.286 150.23 288.282 150.205 288.265 150.194ZM286.792 149.168C286.544 148.998 286.297 148.832 286.049 148.665C286.031 148.655 286.006 148.658 285.999 148.676C285.985 148.693 285.989 148.718 286.006 148.729C286.254 148.895 286.502 149.062 286.75 149.232C286.757 149.235 286.764 149.239 286.771 149.239C286.782 149.239 286.796 149.232 286.803 149.221C286.813 149.207 286.81 149.182 286.792 149.168ZM285.302 148.17C285.054 148.003 284.803 147.84 284.551 147.681C284.534 147.67 284.509 147.674 284.498 147.692C284.488 147.709 284.491 147.734 284.509 147.744C284.76 147.904 285.008 148.067 285.259 148.233C285.266 148.237 285.274 148.24 285.281 148.24C285.295 148.24 285.305 148.233 285.316 148.223C285.327 148.205 285.32 148.18 285.302 148.17ZM283.794 147.196C283.543 147.04 283.295 146.888 283.051 146.732C283.047 146.732 283.047 146.732 283.043 146.729C283.04 146.729 283.04 146.725 283.036 146.725C283.015 146.711 282.994 146.718 282.98 146.736C282.969 146.754 282.976 146.778 282.994 146.789C283.058 146.828 283.118 146.867 283.182 146.906C283.369 147.023 283.564 147.143 283.755 147.26C283.762 147.267 283.769 147.267 283.773 147.267C283.787 147.267 283.801 147.26 283.808 147.253C283.819 147.235 283.812 147.21 283.794 147.196ZM282.268 146.258C282.01 146.102 281.751 145.95 281.497 145.798C281.479 145.787 281.454 145.794 281.443 145.812C281.433 145.83 281.44 145.855 281.458 145.862C281.712 146.014 281.971 146.166 282.229 146.322C282.236 146.329 282.24 146.329 282.247 146.329C282.261 146.329 282.275 146.322 282.282 146.308C282.289 146.29 282.286 146.265 282.268 146.258ZM280.721 145.348C280.456 145.2 280.197 145.051 279.936 144.909C279.918 144.899 279.897 144.906 279.886 144.924C279.875 144.941 279.882 144.966 279.9 144.977C280.159 145.118 280.42 145.263 280.682 145.416C280.689 145.419 280.693 145.419 280.7 145.419C280.714 145.419 280.728 145.412 280.732 145.398C280.746 145.38 280.739 145.359 280.721 145.348ZM279.15 144.478C278.881 144.336 278.615 144.194 278.357 144.06C278.339 144.049 278.318 144.056 278.307 144.074C278.297 144.095 278.304 144.116 278.321 144.127C278.58 144.262 278.845 144.4 279.114 144.545C279.121 144.548 279.125 144.552 279.136 144.552C279.146 144.552 279.16 144.541 279.167 144.531C279.178 144.513 279.171 144.488 279.15 144.478ZM277.557 143.653C277.284 143.518 277.012 143.384 276.75 143.263C276.728 143.253 276.707 143.263 276.7 143.281C276.689 143.299 276.7 143.32 276.718 143.331C276.98 143.455 277.252 143.585 277.521 143.72C277.528 143.724 277.536 143.727 277.543 143.727C277.553 143.727 277.567 143.716 277.574 143.706C277.585 143.688 277.574 143.663 277.557 143.653ZM275.932 142.888C275.914 142.877 275.836 142.842 275.741 142.8L275.677 142.86C275.794 142.909 275.904 142.955 275.904 142.955C275.946 142.97 275.971 142.916 275.932 142.888Z" fill="#4A6792"/>
<path fill-rule="evenodd" clip-rule="evenodd" d="M275.256 143.986C275.171 143.95 274.948 143.851 274.75 143.762L274.689 143.819C274.884 143.907 275.118 144.007 275.224 144.053C275.281 144.078 275.309 144.007 275.256 143.986ZM276.877 144.754C276.605 144.615 276.332 144.484 276.07 144.357C276.052 144.35 276.028 144.357 276.017 144.378C276.01 144.4 276.017 144.421 276.035 144.428C276.3 144.552 276.569 144.686 276.845 144.821H276.859C276.877 144.821 276.888 144.818 276.895 144.8C276.902 144.782 276.899 144.761 276.877 144.754ZM278.473 145.575C278.204 145.43 277.935 145.288 277.677 145.157C277.659 145.146 277.635 145.154 277.627 145.175C277.617 145.192 277.624 145.217 277.642 145.225C277.9 145.355 278.166 145.497 278.435 145.642C278.442 145.646 278.449 145.646 278.452 145.646C278.47 145.646 278.481 145.642 278.488 145.628C278.495 145.61 278.492 145.586 278.473 145.575ZM280.042 146.446C279.78 146.294 279.514 146.148 279.26 146.007C279.242 145.996 279.217 145.999 279.206 146.017C279.199 146.039 279.203 146.063 279.224 146.071C279.479 146.216 279.737 146.361 280.003 146.513C280.01 146.516 280.017 146.516 280.024 146.516C280.035 146.516 280.049 146.51 280.056 146.499C280.066 146.481 280.059 146.456 280.042 146.446ZM281.589 147.352C281.33 147.196 281.072 147.044 280.821 146.895C280.799 146.884 280.778 146.892 280.764 146.91C280.753 146.927 280.761 146.948 280.778 146.962C281.033 147.111 281.288 147.264 281.55 147.419C281.553 147.423 281.564 147.426 281.571 147.426C281.581 147.426 281.596 147.415 281.599 147.409C281.613 147.391 281.606 147.366 281.589 147.352ZM283.114 148.297C282.859 148.134 282.608 147.975 282.353 147.819C282.335 147.812 282.314 147.812 282.304 147.833C282.289 147.851 282.297 147.876 282.314 147.887C282.569 148.038 282.82 148.198 283.075 148.361C283.082 148.364 283.089 148.368 283.096 148.368C283.107 148.368 283.122 148.361 283.125 148.346C283.139 148.329 283.132 148.304 283.114 148.297ZM284.626 149.267C284.371 149.1 284.123 148.938 283.872 148.779C283.858 148.764 283.833 148.772 283.819 148.789C283.808 148.807 283.812 148.831 283.833 148.842C284.077 149.002 284.332 149.164 284.584 149.331C284.587 149.334 284.594 149.338 284.604 149.338C284.615 149.338 284.629 149.331 284.633 149.32C284.647 149.303 284.64 149.277 284.626 149.267ZM286.116 150.269C285.865 150.095 285.617 149.929 285.369 149.762C285.355 149.752 285.33 149.756 285.32 149.773C285.306 149.791 285.312 149.816 285.33 149.83C285.574 149.993 285.822 150.162 286.074 150.329C286.077 150.336 286.084 150.336 286.095 150.336C286.105 150.336 286.116 150.329 286.123 150.318C286.137 150.301 286.13 150.276 286.116 150.269ZM287.585 151.292C287.344 151.118 287.096 150.949 286.853 150.778C286.835 150.761 286.81 150.768 286.799 150.786C286.785 150.803 286.792 150.824 286.806 150.838C287.054 151.009 287.299 151.182 287.539 151.355C287.55 151.359 287.557 151.359 287.564 151.359C287.578 151.359 287.585 151.359 287.596 151.345C287.607 151.327 287.603 151.306 287.585 151.292ZM289.04 152.346C288.799 152.169 288.555 151.992 288.315 151.815C288.296 151.802 288.272 151.805 288.261 151.823C288.247 151.84 288.25 151.865 288.269 151.876C288.512 152.053 288.753 152.23 288.994 152.407C288.997 152.414 289.008 152.414 289.015 152.414C289.026 152.414 289.04 152.41 289.043 152.4C289.058 152.382 289.054 152.357 289.04 152.346ZM290.47 153.426C290.236 153.246 289.996 153.065 289.755 152.885C289.741 152.867 289.716 152.871 289.705 152.888C289.688 152.91 289.691 152.931 289.709 152.945C289.95 153.125 290.19 153.306 290.424 153.487C290.431 153.49 290.438 153.493 290.445 153.493C290.459 153.493 290.47 153.49 290.477 153.479C290.488 153.462 290.484 153.441 290.47 153.426ZM291.879 154.538C291.649 154.35 291.415 154.166 291.178 153.975C291.164 153.964 291.139 153.968 291.125 153.982C291.111 154 291.115 154.024 291.128 154.038C291.369 154.223 291.603 154.41 291.833 154.595C291.836 154.601 291.847 154.605 291.854 154.605C291.865 154.605 291.875 154.598 291.886 154.591C291.9 154.573 291.897 154.549 291.879 154.538ZM293.263 155.677C293.036 155.49 292.806 155.299 292.573 155.1C292.558 155.09 292.534 155.094 292.52 155.108C292.505 155.126 292.509 155.146 292.523 155.164C292.76 155.355 292.987 155.546 293.213 155.738C293.22 155.745 293.228 155.745 293.238 155.745C293.249 155.745 293.259 155.741 293.266 155.731C293.281 155.717 293.277 155.692 293.263 155.677ZM294.615 156.856C294.396 156.662 294.169 156.46 293.942 156.262C293.928 156.251 293.904 156.251 293.89 156.269C293.876 156.283 293.876 156.308 293.893 156.322C294.119 156.52 294.346 156.718 294.562 156.916C294.573 156.92 294.58 156.924 294.59 156.924C294.601 156.924 294.612 156.92 294.619 156.913C294.633 156.895 294.629 156.874 294.615 156.856ZM295.928 158.081C295.72 157.879 295.5 157.67 295.277 157.465C295.263 157.451 295.238 157.451 295.224 157.465C295.21 157.479 295.21 157.504 295.224 157.518C295.447 157.727 295.666 157.936 295.875 158.138C295.883 158.141 295.893 158.145 295.904 158.145C295.911 158.145 295.921 158.141 295.932 158.138C295.942 158.12 295.942 158.095 295.928 158.081Z" fill="#4A6792"/>
<g filter="url(#filter8_d)">
<path d="M66.6241 199.8C66.6241 199.8 48.5402 204.619 47.8144 204.865C46.7253 205.234 46.9084 209.077 48.6034 209.017C49.4054 208.989 62.4937 209.486 64.1475 209.387C65.8013 209.287 70.2518 207.594 70.2518 207.594L66.6241 199.8Z" fill="#390B12"/>
</g>
<path fill-rule="evenodd" clip-rule="evenodd" d="M59.05 206.2C58.9476 206.211 58.809 205.364 58.1488 204.48C57.5048 203.589 56.6389 203.07 56.7026 203.006C56.7384 202.944 57.7541 203.395 58.4456 204.346C59.1479 205.292 59.1361 206.207 59.05 206.2Z" fill="#1A2E35"/>
<path fill-rule="evenodd" clip-rule="evenodd" d="M60.6595 205.4C60.5797 205.414 60.4152 204.622 59.9819 203.748C59.5568 202.869 59.037 202.261 59.0954 202.204C59.1406 202.149 59.7762 202.696 60.2251 203.622C60.6802 204.544 60.7293 205.395 60.6595 205.4Z" fill="#1A2E35"/>
<path fill-rule="evenodd" clip-rule="evenodd" d="M62.9526 205.399C62.8574 205.395 62.93 204.593 62.5121 203.705C62.1118 202.81 61.4211 202.263 61.4869 202.205C61.5248 202.144 62.3687 202.639 62.8056 203.607C63.2542 204.57 63.0287 205.423 62.9526 205.399Z" fill="#1A2E35"/>
<path fill-rule="evenodd" clip-rule="evenodd" d="M62.4697 202.706C62.4379 202.714 62.281 202.173 62.2797 201.263C62.281 200.81 62.3285 200.267 62.4591 199.681C62.524 199.389 62.6113 199.086 62.7224 198.782C62.7797 198.628 62.8454 198.45 63.0061 198.306C63.1711 198.144 63.4717 198.178 63.6142 198.339C63.7766 198.494 63.8279 198.712 63.8504 198.887C63.8682 199.065 63.8771 199.232 63.8733 199.4C63.869 199.734 63.8296 200.054 63.7639 200.349C63.6333 200.941 63.4221 201.438 63.219 201.831C62.8064 202.618 62.4489 203.021 62.4235 202.999C62.3828 202.968 62.6796 202.516 63.0332 201.725C63.2071 201.33 63.3886 200.844 63.4976 200.283C63.5523 200.004 63.5828 199.706 63.5828 199.397C63.5752 199.099 63.579 198.727 63.42 198.584C63.3356 198.507 63.2593 198.502 63.1855 198.563C63.1074 198.628 63.0417 198.761 62.9913 198.902C62.8819 199.191 62.7924 199.478 62.7233 199.757C62.5838 200.315 62.5163 200.833 62.4888 201.271C62.437 202.149 62.518 202.698 62.4697 202.706Z" fill="#1A2E35"/>
<path fill-rule="evenodd" clip-rule="evenodd" d="M62.2798 203.154C62.2726 203.127 62.6572 203.004 63.3075 203C63.6314 203 64.0203 203.031 64.4385 203.129C64.6446 203.181 64.8663 203.231 65.0895 203.353C65.3078 203.455 65.5364 203.737 65.4497 204.03C65.381 204.305 65.1273 204.498 64.8754 204.559C64.6217 204.625 64.3759 204.601 64.1607 204.557C63.7234 204.464 63.3834 204.263 63.1254 204.083C62.6145 203.711 62.3653 203.426 62.3844 203.405C62.4126 203.373 62.7145 203.617 63.2334 203.94C63.4944 204.095 63.8215 204.263 64.2107 204.333C64.4045 204.368 64.6133 204.378 64.8018 204.326C64.9895 204.278 65.1452 204.145 65.1899 203.973C65.2357 203.808 65.1273 203.656 64.9529 203.56C64.7823 203.461 64.5709 203.405 64.3752 203.35C63.981 203.245 63.612 203.197 63.3014 203.176C62.6774 203.135 62.2867 203.194 62.2798 203.154Z" fill="#1A2E35"/>
<path fill-rule="evenodd" clip-rule="evenodd" d="M56.5377 206.999C56.4346 206.989 56.5367 206.179 56.1277 205.291C55.7382 204.396 55.0439 203.882 55.1092 203.809C55.1435 203.731 56.0132 204.18 56.45 205.171C56.8988 206.158 56.6213 207.033 56.5377 206.999Z" fill="#1A2E35"/>
<path fill-rule="evenodd" clip-rule="evenodd" d="M68.6571 207.805C68.6653 207.824 68.4197 207.939 67.9675 208.131C67.5093 208.305 66.8388 208.549 65.983 208.749C64.2774 209.181 61.8459 209.426 59.1743 209.398C56.5019 209.368 54.0938 209.245 52.3472 209.176C51.5209 209.132 50.8282 209.095 50.2808 209.066C49.7931 209.033 49.5236 209.005 49.5245 208.984C49.5249 208.964 49.7956 208.952 50.2846 208.949C50.8321 208.953 51.526 208.958 52.3536 208.964C54.16 208.999 56.5416 209.046 59.176 209.098C61.8352 209.126 64.2373 208.917 65.936 208.543C67.6412 208.19 68.6366 207.749 68.6571 207.805Z" fill="#1A2E35"/>
<path fill-rule="evenodd" clip-rule="evenodd" d="M69.454 207.747C69.4294 207.789 68.9354 207.498 68.1006 207.129C67.2761 206.773 66.0399 206.346 64.6825 206.557C63.3212 206.767 62.3562 207.688 61.7281 208.327C61.0944 208.99 60.7237 209.429 60.687 209.398C60.6597 209.376 60.9677 208.893 61.5711 208.181C61.8756 207.83 62.2628 207.422 62.7689 207.053C63.2693 206.683 63.9134 206.368 64.6349 206.257C66.0913 206.032 67.3743 206.522 68.191 206.935C69.0197 207.361 69.4722 207.717 69.454 207.747Z" fill="#1A2E35"/>
<path fill-rule="evenodd" clip-rule="evenodd" d="M51.1912 208.599C51.1566 208.575 51.3193 208.318 51.4692 207.865C51.6206 207.416 51.7368 206.751 51.6087 206.041C51.4797 205.331 51.1379 204.751 50.8398 204.387C50.5408 204.018 50.2992 203.838 50.3234 203.803C50.3379 203.777 50.6228 203.905 50.9752 204.262C51.3252 204.612 51.7231 205.222 51.8635 205.993C52.0025 206.764 51.8444 207.479 51.6397 207.933C51.4355 208.395 51.214 208.618 51.1912 208.599Z" fill="#1A2E35"/>
<g filter="url(#filter9_d)">
<path d="M85.3677 199.8C85.3677 199.8 103.678 202.621 104.419 202.788C105.532 203.04 105.821 207.026 104.152 207.166C103.363 207.232 90.5961 209.302 88.9633 209.395C87.3301 209.489 82.2098 208.13 82.2098 208.13L85.3677 199.8Z" fill="#390B12"/>
</g>
<path fill-rule="evenodd" clip-rule="evenodd" d="M93.4401 206.2C93.5256 206.202 93.5325 205.195 93.9623 204.089C94.378 202.975 95.0212 202.273 94.9611 202.205C94.924 202.137 94.1495 202.776 93.7028 203.965C93.2464 205.148 93.3707 206.217 93.4401 206.2Z" fill="#1A2E35"/>
<path fill-rule="evenodd" clip-rule="evenodd" d="M91.0437 205.4C91.1473 205.404 91.2405 204.638 91.6632 203.762C92.0755 202.884 92.6484 202.25 92.5653 202.203C92.4997 202.156 91.7699 202.746 91.3342 203.672C90.8899 204.595 90.954 205.404 91.0437 205.4Z" fill="#1A2E35"/>
<path fill-rule="evenodd" clip-rule="evenodd" d="M89.5331 205.399C89.593 205.381 89.4755 204.433 89.6615 203.321C89.8354 202.204 90.2248 201.466 90.1779 201.405C90.1486 201.337 89.6575 202.032 89.4666 203.24C89.268 204.445 89.4868 205.436 89.5331 205.399Z" fill="#1A2E35"/>
<path fill-rule="evenodd" clip-rule="evenodd" d="M89.316 202.754C89.3439 202.758 89.4265 202.279 89.3435 201.503C89.3004 201.117 89.2094 200.659 89.0445 200.174C88.9623 199.932 88.8601 199.684 88.7372 199.437C88.6741 199.311 88.6024 199.168 88.4527 199.063C88.2972 198.943 88.0453 199.005 87.9395 199.159C87.8159 199.309 87.7927 199.501 87.7902 199.653C87.7913 199.807 87.7993 199.949 87.8181 200.092C87.8525 200.376 87.916 200.645 87.999 200.889C88.1649 201.38 88.39 201.78 88.5988 202.093C89.0221 202.717 89.3631 203.02 89.3823 202.999C89.4138 202.968 89.1199 202.616 88.747 201.982C88.5621 201.663 88.3632 201.269 88.2189 200.804C88.1465 200.572 88.0932 200.321 88.0642 200.058C88.0432 199.803 88.0055 199.486 88.1273 199.346C88.1918 199.272 88.2559 199.258 88.324 199.301C88.3962 199.349 88.4643 199.455 88.5201 199.569C88.6401 199.804 88.7423 200.038 88.8271 200.269C88.997 200.728 89.1025 201.163 89.1663 201.533C89.2921 202.276 89.2743 202.753 89.316 202.754Z" fill="#1A2E35"/>
<path fill-rule="evenodd" clip-rule="evenodd" d="M89.3846 202.29C89.3885 202.253 88.9761 202.144 88.3057 202.237C87.9725 202.284 87.5763 202.386 87.1584 202.582C86.9526 202.683 86.7309 202.783 86.5176 202.982C86.3063 203.154 86.1084 203.57 86.2362 203.953C86.3431 204.316 86.6304 204.539 86.8979 204.582C87.1679 204.634 87.4176 204.565 87.6337 204.473C88.0714 204.28 88.3951 203.958 88.637 203.675C89.1135 203.094 89.3323 202.67 89.3102 202.645C89.2769 202.606 88.9983 202.982 88.5068 203.497C88.2582 203.747 87.944 204.023 87.5525 204.177C87.3574 204.253 87.1441 204.299 86.9427 204.256C86.7432 204.219 86.5651 204.063 86.4966 203.837C86.4274 203.62 86.5184 203.399 86.6854 203.242C86.8481 203.083 87.0582 202.974 87.2529 202.871C87.6452 202.669 88.0184 202.549 88.3358 202.473C88.9726 202.324 89.383 202.345 89.3846 202.29Z" fill="#1A2E35"/>
<path fill-rule="evenodd" clip-rule="evenodd" d="M95.9326 206.199C95.9954 206.178 95.8666 205.416 96.0472 204.526C96.2148 203.631 96.6021 203.069 96.5556 203.006C96.5283 202.937 96.0274 203.455 95.8384 204.446C95.6413 205.433 95.8833 206.239 95.9326 206.199Z" fill="#1A2E35"/>
<path fill-rule="evenodd" clip-rule="evenodd" d="M83.8043 207.956C83.7987 207.974 84.0558 208.046 84.5276 208.162C85.0032 208.262 85.6974 208.4 86.5705 208.483C88.3147 208.675 90.7577 208.634 93.4061 208.338C96.0558 208.041 98.4318 207.693 100.157 207.456C100.973 207.335 101.656 207.233 102.196 207.152C102.676 207.075 102.94 207.024 102.937 207.007C102.934 206.989 102.664 207.007 102.178 207.054C101.635 207.113 100.947 207.188 100.126 207.277C98.337 207.491 95.9781 207.773 93.3694 208.085C90.7329 208.379 88.3232 208.447 86.5923 208.303C84.8584 208.179 83.8184 207.907 83.8043 207.956Z" fill="#1A2E35"/>
<path fill-rule="evenodd" clip-rule="evenodd" d="M83.0078 208.864C83.0363 208.899 83.4863 208.584 84.2597 208.163C85.0246 207.753 86.1845 207.235 87.5361 207.278C88.8924 207.319 89.9432 208.042 90.6323 208.548C91.3285 209.075 91.7427 209.43 91.7751 209.398C91.799 209.374 91.4415 208.973 90.7686 208.4C90.4299 208.117 90.0037 207.793 89.466 207.516C88.9333 207.238 88.2669 207.024 87.548 207.002C86.0975 206.959 84.8993 207.538 84.1489 207.997C83.3879 208.471 82.9865 208.84 83.0078 208.864Z" fill="#1A2E35"/>
<path fill-rule="evenodd" clip-rule="evenodd" d="M141.446 124.43L141.879 123.555C141.879 123.555 141.837 123.044 141.628 122.675C141.418 122.306 140.674 122.336 140.674 122.336L140.786 122.091C140.946 121.74 140.913 121.33 140.695 121.014C140.661 120.966 140.625 120.917 140.586 120.869C140.283 120.495 139.645 120.387 139.645 120.387C139.645 120.387 140.067 119.565 139.88 119.221C139.631 118.765 138.732 118.277 138.071 118.501C137.353 118.744 135.831 119.491 134.779 120.083C134.364 120.317 133.843 120.123 133.676 119.674C133.36 118.819 132.801 117.516 132.069 116.626C131.271 115.656 130.52 115.734 130.085 115.904C129.876 115.985 129.79 116.237 129.906 116.43C130.238 116.982 130.888 118.086 131.061 118.553C131.268 119.112 131.5 123.333 131.5 123.333L130.354 125.535L118.77 143.975C118.77 143.975 101.299 132.098 101.368 131.803L100.545 145.419L113.714 154.239C116.002 155.771 118.846 156.202 121.479 155.414C124.097 154.631 126.241 152.722 127.336 150.199L136.197 130.804L137.272 129.218L141.446 126.521C141.446 126.521 142.127 125.311 141.979 124.957C141.831 124.603 141.446 124.43 141.446 124.43Z" fill="#FFBF9D"/>
<path fill-rule="evenodd" clip-rule="evenodd" d="M139.608 120.224C139.61 120.227 139.584 120.252 139.531 120.297C139.468 120.348 139.391 120.412 139.297 120.49C139.079 120.663 138.784 120.897 138.425 121.183C138.051 121.476 137.611 121.821 137.123 122.202C136.874 122.389 136.63 122.603 136.337 122.787C136.05 122.964 135.66 123.085 135.302 122.926C135.126 122.847 134.993 122.693 134.918 122.523C134.843 122.352 134.817 122.166 134.827 121.988C134.846 121.624 135.037 121.316 135.24 121.078C135.449 120.837 135.681 120.648 135.89 120.469C136.1 120.29 136.296 120.123 136.477 119.97C136.829 119.674 137.118 119.431 137.331 119.252C137.425 119.176 137.503 119.113 137.566 119.062C137.621 119.019 137.65 118.998 137.652 119C137.655 119.003 137.629 119.029 137.579 119.077C137.519 119.132 137.446 119.2 137.355 119.283C137.148 119.468 136.866 119.718 136.522 120.025C136.344 120.181 136.151 120.351 135.943 120.533C135.735 120.716 135.509 120.906 135.309 121.14C135.114 121.372 134.94 121.661 134.925 121.993C134.902 122.316 135.032 122.691 135.343 122.834C135.494 122.903 135.668 122.913 135.83 122.883C135.994 122.854 136.147 122.785 136.288 122.7C136.568 122.527 136.819 122.311 137.069 122.127C137.56 121.752 138.005 121.414 138.382 121.126C138.75 120.851 139.052 120.624 139.273 120.458C139.372 120.386 139.453 120.328 139.519 120.281C139.575 120.241 139.606 120.222 139.608 120.224Z" fill="#FF9A6C"/>
<path fill-rule="evenodd" clip-rule="evenodd" d="M141.203 122.201C141.207 122.207 141.136 122.269 141.004 122.376C140.872 122.482 140.677 122.631 140.434 122.81C139.947 123.169 139.261 123.646 138.48 124.133C138.284 124.253 138.096 124.377 137.894 124.47C137.695 124.563 137.478 124.618 137.27 124.595C136.851 124.542 136.552 124.219 136.463 123.909C136.37 123.591 136.444 123.319 136.518 123.162C136.556 123.082 136.597 123.027 136.626 122.991C136.656 122.957 136.674 122.941 136.676 122.944C136.684 122.95 136.62 123.023 136.557 123.181C136.497 123.336 136.442 123.596 136.536 123.882C136.626 124.162 136.906 124.448 137.281 124.489C137.465 124.507 137.662 124.456 137.851 124.366C138.042 124.277 138.229 124.154 138.424 124.033C139.203 123.548 139.894 123.084 140.391 122.743C140.625 122.583 140.822 122.447 140.98 122.339C141.119 122.244 141.198 122.194 141.203 122.201Z" fill="#FF9A6C"/>
<path fill-rule="evenodd" clip-rule="evenodd" d="M141.203 123.801C141.206 123.808 141.139 123.849 141.015 123.918C140.872 123.995 140.696 124.089 140.488 124.2C140.041 124.435 139.421 124.751 138.733 125.095C138.561 125.18 138.395 125.271 138.22 125.333C138.045 125.396 137.857 125.422 137.686 125.379C137.515 125.34 137.362 125.227 137.288 125.076C137.214 124.926 137.205 124.765 137.227 124.629C137.277 124.35 137.436 124.183 137.538 124.086C137.646 123.988 137.716 123.952 137.719 123.956C137.725 123.964 137.662 124.012 137.565 124.116C137.472 124.219 137.332 124.388 137.297 124.64C137.281 124.764 137.294 124.908 137.361 125.034C137.426 125.16 137.554 125.252 137.706 125.284C137.858 125.319 138.025 125.296 138.189 125.235C138.354 125.176 138.518 125.085 138.691 125C139.379 124.656 140.004 124.35 140.458 124.133C140.671 124.034 140.852 123.949 140.999 123.881C141.127 123.823 141.2 123.794 141.203 123.801Z" fill="#FF9A6C"/>
<path fill-rule="evenodd" clip-rule="evenodd" d="M142 125.669C142.003 125.68 141.732 125.732 141.292 125.807C140.851 125.882 140.242 125.98 139.567 126.082C139.398 126.108 139.234 126.132 139.074 126.157C138.915 126.18 138.756 126.204 138.597 126.199C138.44 126.195 138.287 126.158 138.176 126.086C138.061 126.016 138.009 125.908 138.014 125.817C138.033 125.629 138.185 125.518 138.286 125.462C138.393 125.405 138.467 125.397 138.468 125.401C138.473 125.408 138.405 125.427 138.313 125.488C138.226 125.546 138.1 125.66 138.095 125.817C138.096 125.894 138.14 125.976 138.235 126.032C138.33 126.089 138.461 126.12 138.601 126.121C138.742 126.124 138.893 126.1 139.052 126.075C139.211 126.05 139.375 126.025 139.544 125.999C140.219 125.897 140.831 125.808 141.276 125.748C141.721 125.688 141.997 125.657 142 125.669Z" fill="#FF9A6C"/>
<path fill-rule="evenodd" clip-rule="evenodd" d="M137.216 125.107C137.207 125.169 136.683 124.817 136.013 124.883C135.342 124.934 134.838 125.377 134.826 125.318C134.809 125.281 135.311 124.738 136.008 124.684C136.704 124.616 137.231 125.067 137.216 125.107Z" fill="#FF9A6C"/>
<path d="M74.1987 121.145C74.1987 121.145 68.2913 116.097 69.6605 112.62C71.0292 109.143 74.8184 107.418 76.6827 101.097C78.1723 96.0461 87.0469 86.3169 97.5622 93.6305C97.5622 93.6305 101.121 93.0615 103.147 94.7043C105.172 96.347 105.658 99.6253 106.518 103.411C107.843 109.245 108.568 113.729 106.004 116.58C103.44 119.43 102.505 120.202 102.642 123.446C102.82 127.68 104.663 127.113 103.074 130.2L94.254 127.283L94.1627 124.823L93.2694 127.138L88.1374 125.268L74.1987 121.145Z" fill="#272422"/>
<path d="M103.944 99.8C103.38 101.109 103.842 102.621 104.378 103.942C104.913 105.263 105.534 106.663 105.263 108.064C104.783 110.548 101.733 111.932 101.395 114.439C101.214 115.783 101.881 117.15 101.623 118.481C101.374 119.768 100.308 120.738 99.18 121.385C98.0517 122.033 96.8008 122.463 95.7398 123.219C95.7398 123.219 93.4051 125.154 89.3846 121.963" fill="#272422"/>
<path fill-rule="evenodd" clip-rule="evenodd" d="M87.1306 96.6579C86.0237 96.3983 84.903 97.0333 84.5508 98.1189L76.0125 126.588C74.9099 129.917 79.0795 133.472 82.6372 134.631C86.2301 135.801 86.9573 134.086 88.0994 130.951C90.0083 125.714 90.6904 123.737 90.6822 123.767C90.6822 123.767 95.4491 124.59 98.4271 119.009C99.9077 116.234 101.428 111.366 102.543 107.343C103.547 103.722 102.715 98.5577 99.0704 97.7042L87.1306 96.6579Z" fill="#FFBF9D"/>
<path fill-rule="evenodd" clip-rule="evenodd" d="M99.7158 110.432C99.5917 110.855 99.1489 111.094 98.7262 110.965C98.3043 110.837 98.0623 110.392 98.1863 109.968C98.3103 109.546 98.7536 109.306 99.1751 109.435C99.5978 109.563 99.8398 110.01 99.7158 110.432Z" fill="#1A2E35"/>
<path fill-rule="evenodd" clip-rule="evenodd" d="M100.513 109.395C100.378 109.468 99.9263 108.775 99.0626 108.462C98.2045 108.137 97.4167 108.372 97.36 108.227C97.3303 108.161 97.4972 108 97.8428 107.89C98.1834 107.779 98.7138 107.744 99.2505 107.943C99.7868 108.142 100.17 108.515 100.36 108.822C100.554 109.132 100.578 109.363 100.513 109.395Z" fill="#1A2E35"/>
<path fill-rule="evenodd" clip-rule="evenodd" d="M91.7437 108.032C91.6197 108.455 91.1767 108.694 90.754 108.565C90.3325 108.437 90.09 107.992 90.2145 107.568C90.3385 107.146 90.7814 106.906 91.2033 107.035C91.6261 107.163 91.8677 107.61 91.7437 108.032Z" fill="#1A2E35"/>
<path fill-rule="evenodd" clip-rule="evenodd" d="M92.5412 106.995C92.4054 107.068 91.9533 106.375 91.0906 106.062C90.2324 105.737 89.4447 105.972 89.388 105.827C89.3583 105.761 89.5238 105.6 89.8708 105.49C90.2114 105.379 90.7417 105.344 91.2785 105.543C91.8148 105.742 92.1983 106.114 92.3876 106.422C92.5815 106.732 92.6062 106.963 92.5412 106.995Z" fill="#1A2E35"/>
<path fill-rule="evenodd" clip-rule="evenodd" d="M93.3709 113.679C93.3832 113.633 93.9323 113.719 94.8096 113.893C95.03 113.942 95.2464 113.968 95.3326 113.843C95.4364 113.714 95.4271 113.468 95.4099 113.201C95.3887 112.649 95.367 112.071 95.3436 111.465C95.272 109 95.2985 107.002 95.4041 107C95.5088 106.998 95.6528 108.994 95.7248 111.459C95.7372 112.065 95.75 112.643 95.761 113.195C95.7575 113.45 95.8003 113.755 95.5808 114.02C95.4682 114.151 95.272 114.209 95.1227 114.199C94.9721 114.193 94.8511 114.156 94.7437 114.128C93.8828 113.893 93.3576 113.725 93.3709 113.679Z" fill="#1A2E35"/>
<path fill-rule="evenodd" clip-rule="evenodd" d="M90.979 123.971C90.979 123.971 86.9174 122.82 83.8042 119C83.8042 119 84.3876 123.863 90.4897 125.4L90.979 123.971Z" fill="#FF9A6C"/>
<path fill-rule="evenodd" clip-rule="evenodd" d="M92.5392 115.923C92.3988 115.49 92.0084 115.144 91.5386 115.035C91.2129 114.96 90.8428 115.001 90.5632 115.19C90.2832 115.379 90.1171 115.727 90.2057 116.03C90.3055 116.371 90.6917 116.576 91.071 116.597C91.4507 116.619 91.827 116.495 92.1879 116.368C92.288 116.332 92.3904 116.295 92.469 116.226C92.5477 116.157 92.5971 116.049 92.5619 115.957" fill="#FF9A6C"/>
<path fill-rule="evenodd" clip-rule="evenodd" d="M93.3588 104.54C93.2303 104.698 92.3977 104.5 91.3721 104.448C90.3478 104.382 89.4834 104.484 89.3902 104.314C89.3497 104.233 89.5321 104.094 89.9019 103.975C90.269 103.857 90.8268 103.773 91.4413 103.808C92.0558 103.843 92.5889 103.989 92.9255 104.148C93.2656 104.307 93.4159 104.465 93.3588 104.54Z" fill="#1A2E35"/>
<path fill-rule="evenodd" clip-rule="evenodd" d="M101.293 106.969C101.079 107.117 100.488 106.701 99.7187 106.443C98.9557 106.159 98.2589 106.119 98.1603 105.86C98.1195 105.736 98.2727 105.567 98.6053 105.468C98.9338 105.368 99.4431 105.365 99.9701 105.551C100.497 105.737 100.912 106.068 101.129 106.362C101.351 106.657 101.389 106.893 101.293 106.969Z" fill="#1A2E35"/>
<path d="M77.4266 115.59C79.0019 110.236 80.5771 104.882 82.1524 99.5278C82.4757 98.4298 82.8484 97.2562 83.7493 96.5653C84.601 95.9126 85.74 95.8349 86.8071 95.8126C91.4082 95.716 96.0206 96.1784 100.514 97.1863C100.729 98.2765 99.8007 99.311 98.762 99.6652C97.7236 100.019 96.5956 99.895 95.5002 99.9065C94.4047 99.9177 93.214 100.118 92.4723 100.936C91.6832 101.806 91.6058 103.152 90.8611 104.061C89.579 105.626 86.8973 105.296 85.6245 106.868C84.6615 108.056 84.9213 109.795 84.604 111.299C84.2443 113.005 84.2443 113.005 82.9297 115.513C82.1228 117.053 84.1533 119.99 82.1304 123.8L78.2055 122.666L79.9289 116.782L77.5937 122.301L77.4266 115.59Z" fill="#272422"/>
<path fill-rule="evenodd" clip-rule="evenodd" d="M90.8184 113.409C90.9169 113.461 90.8664 113.691 90.8603 114.022C90.8502 114.351 90.9012 114.798 91.1344 115.207C91.3702 115.616 91.7438 115.909 92.0451 116.088C92.3465 116.272 92.5823 116.365 92.5732 116.469C92.5686 116.561 92.2864 116.656 91.8326 116.56C91.3894 116.469 90.7836 116.144 90.4363 115.542C90.092 114.938 90.1445 114.298 90.3156 113.913C90.4873 113.518 90.7326 113.359 90.8184 113.409Z" fill="#1A2E35"/>
<path fill-rule="evenodd" clip-rule="evenodd" d="M89.3845 100.601C89.3874 100.608 89.3142 100.651 89.1722 100.727C89.0282 100.796 88.8229 100.913 88.5658 101.076C88.0556 101.402 87.3471 101.952 86.6822 102.83C86.0252 103.703 85.4002 104.913 85.1978 106.374C85.0904 107.102 85.1241 107.875 85.2138 108.679C85.2953 109.481 85.4195 110.323 85.3582 111.201C85.3282 111.638 85.2414 112.07 85.0957 112.474C84.9468 112.876 84.7464 113.24 84.5489 113.59C84.147 114.285 83.7775 114.961 83.6874 115.688C83.5812 116.41 83.6528 117.116 83.7384 117.767C83.8256 118.421 83.9367 119.029 83.9803 119.598C84.077 120.732 83.8993 121.675 83.603 122.238C83.4636 122.524 83.3006 122.71 83.1949 122.835C83.0768 122.949 83.013 123.005 83.0081 123C82.9871 122.982 83.2677 122.763 83.5282 122.199C83.7931 121.641 83.9429 120.724 83.8297 119.612C83.7775 119.057 83.6582 118.452 83.5627 117.794C83.4693 117.138 83.3866 116.416 83.4919 115.658C83.6532 114.078 85.1155 112.921 85.1447 111.184C85.2039 110.341 85.0846 109.509 85.0052 108.702C84.9176 107.896 84.8863 107.092 85.0027 106.344C85.222 104.841 85.8783 103.609 86.5641 102.732C87.2582 101.847 87.9939 101.308 88.5238 101.001C88.7908 100.848 89.0035 100.743 89.1545 100.686C89.3027 100.623 89.3816 100.594 89.3845 100.601Z" fill="#1A2E35"/>
<path fill-rule="evenodd" clip-rule="evenodd" d="M109.315 124.674C109.317 124.677 109.292 124.697 109.24 124.734C109.187 124.768 109.112 124.827 109.003 124.885C108.789 125.01 108.452 125.167 107.988 125.282C107.526 125.396 106.929 125.449 106.255 125.342C105.585 125.236 104.828 124.941 104.202 124.363C103.581 123.792 103.099 122.952 102.972 121.981C102.907 121.499 102.927 120.984 103.075 120.481C103.223 119.979 103.478 119.495 103.811 119.053C104.477 118.163 105.406 117.444 106.277 116.642C106.712 116.24 107.138 115.814 107.491 115.329C107.844 114.844 108.122 114.299 108.323 113.722C108.727 112.563 108.821 111.352 108.793 110.197C108.761 109.039 108.608 107.923 108.431 106.869C108.069 104.761 107.513 102.903 106.943 101.382C106.376 99.8578 105.795 98.67 105.378 97.8584C105.168 97.4528 105 97.1399 104.883 96.9292C104.769 96.7172 104.713 96.6039 104.72 96.6001C104.726 96.5962 104.796 96.7022 104.924 96.9074C105.055 97.1113 105.236 97.4181 105.458 97.8186C105.901 98.6205 106.508 99.8035 107.097 101.328C107.69 102.849 108.266 104.714 108.642 106.836C108.826 107.896 108.984 109.016 109.02 110.191C109.052 111.362 108.959 112.599 108.543 113.793C108.336 114.388 108.048 114.953 107.681 115.456C107.314 115.96 106.876 116.394 106.435 116.8C105.551 117.607 104.631 118.316 103.985 119.173C103.661 119.598 103.416 120.059 103.272 120.533C103.128 121.008 103.105 121.497 103.163 121.959C103.276 122.886 103.729 123.697 104.317 124.251C104.908 124.81 105.63 125.106 106.278 125.219C106.93 125.335 107.512 125.296 107.968 125.197C108.887 124.993 109.299 124.642 109.315 124.674Z" fill="#1A2E35"/>
<path fill-rule="evenodd" clip-rule="evenodd" d="M72.6438 118.999C72.6256 118.96 73.2206 118.936 73.9985 118.305C74.7595 117.687 75.6027 116.38 75.7932 114.572C75.9027 113.674 75.8855 112.677 75.8661 111.606C75.8543 110.538 75.8319 109.368 76.1252 108.178C76.266 107.585 76.4842 106.992 76.8049 106.437C77.1294 105.888 77.571 105.382 78.1344 105.031C79.2767 104.309 80.6778 104.344 81.9218 103.896C82.55 103.681 83.0903 103.288 83.5348 102.808C83.9811 102.328 84.3346 101.771 84.6759 101.221C85.3493 100.126 85.9961 98.9758 87.0239 98.297C87.5274 97.9565 88.0992 97.7671 88.6555 97.685C89.2138 97.5969 89.7591 97.5969 90.2807 97.6121C91.3237 97.6485 92.2878 97.7219 93.1567 97.589C94.9037 97.3424 96.1877 96.5962 96.9811 96.0143C97.384 95.722 97.6655 95.4527 97.8606 95.2764C97.9465 95.1922 98.0173 95.1231 98.075 95.0666C98.1243 95.0202 98.1509 94.9976 98.1538 95.0002C98.1538 95.0002 97.8239 95.4619 97.0317 96.0851C96.2458 96.6948 94.956 97.4748 93.1782 97.7476C92.292 97.8931 91.3097 97.8275 90.2761 97.7997C89.2551 97.778 88.0971 97.8149 87.1334 98.472C86.1634 99.116 85.5309 100.236 84.8575 101.339C84.5154 101.893 84.1572 102.462 83.6928 102.963C83.2335 103.462 82.6516 103.885 81.9942 104.109C80.6947 104.57 79.3164 104.54 78.246 105.22C77.1736 105.888 76.5972 107.091 76.3212 108.229C76.0304 109.384 76.0439 110.535 76.0481 111.603C76.0595 112.674 76.0683 113.681 75.947 114.593C75.7329 116.436 74.8472 117.763 74.0512 118.375C73.6504 118.685 73.2868 118.844 73.0348 118.917C72.9105 118.96 72.8094 118.97 72.7445 118.986C72.6787 118.998 72.6446 119.003 72.6438 118.999Z" fill="#375A64"/>
<path fill-rule="evenodd" clip-rule="evenodd" d="M76.6295 101.032C76.6389 101.008 76.9152 101.174 77.47 101.257C78.018 101.341 78.8573 101.294 79.7685 100.881C80.684 100.476 81.5952 99.6822 82.52 98.731C82.9884 98.2584 83.4755 97.7507 84.0308 97.2726C84.586 96.7979 85.2158 96.3451 85.9503 96.0522C86.6848 95.7567 87.4594 95.6557 88.1939 95.6425C88.9305 95.6303 89.6344 95.6967 90.3007 95.7588C90.9667 95.8218 91.5982 95.8877 92.187 95.8928C92.7764 95.9008 93.3256 95.8531 93.817 95.7605C94.8019 95.5796 95.5402 95.1945 95.9558 94.8254C96.3795 94.4619 96.5375 94.1846 96.5588 94.2006C96.5652 94.2048 96.5256 94.2716 96.4434 94.3968C96.4051 94.4614 96.3484 94.5341 96.2752 94.6162C96.2075 94.7024 96.1202 94.7946 96.0133 94.8892C95.6045 95.2883 94.8521 95.7085 93.8477 95.9135C93.3465 96.0179 92.7866 96.0758 92.1862 96.075C91.5845 96.0775 90.9484 96.0179 90.282 95.9609C89.6165 95.9042 88.9186 95.8433 88.1981 95.8581C87.4798 95.8742 86.7342 95.974 86.0329 96.2564C84.6218 96.8351 83.6084 97.9468 82.6652 98.8739C81.7293 99.82 80.7862 100.623 79.832 101.023C78.8845 101.431 78.0142 101.455 77.4555 101.341C77.1724 101.291 76.9659 101.203 76.8279 101.146C76.6938 101.078 76.6261 101.039 76.6295 101.032Z" fill="#375A64"/>
<path fill-rule="evenodd" clip-rule="evenodd" d="M107.413 113.4C107.385 113.389 107.561 113.12 107.612 112.567C107.675 112.019 107.52 111.198 107.032 110.355C106.561 109.493 105.686 108.745 104.799 107.811C104.361 107.34 103.919 106.798 103.615 106.129C103.309 105.463 103.159 104.702 103.11 103.929C103.016 102.375 103.263 100.922 103.231 99.6054C103.223 98.2931 102.928 97.1039 102.335 96.3409C101.764 95.5622 101.051 95.1936 100.548 95.1074C100.039 95.0133 99.7511 95.1162 99.7483 95.086C99.7471 95.0781 99.8167 95.0584 99.953 95.0277C100.09 95.0023 100.297 94.9844 100.561 95.0199C101.087 95.0816 101.842 95.4423 102.452 96.2394C103.086 97.022 103.41 98.2664 103.427 99.6011C103.468 100.944 103.228 102.399 103.322 103.913C103.369 104.666 103.513 105.397 103.801 106.032C104.087 106.668 104.509 107.195 104.937 107.663C105.802 108.59 106.69 109.37 107.16 110.272C107.646 111.15 107.785 112.012 107.694 112.577C107.656 112.861 107.581 113.07 107.522 113.205C107.456 113.337 107.419 113.404 107.413 113.4Z" fill="#375A64"/>
<path fill-rule="evenodd" clip-rule="evenodd" d="M70.426 115.799C70.4223 115.806 70.3313 115.755 70.159 115.651C69.9925 115.54 69.7564 115.354 69.509 115.059C69.0171 114.488 68.4893 113.372 68.7083 111.973C68.7747 111.631 68.8861 111.279 69.0646 110.94C69.2545 110.607 69.504 110.297 69.8002 110.017C70.4031 109.465 71.1728 109.061 71.9705 108.663C72.7641 108.263 73.616 107.847 74.289 107.167C74.9703 106.492 75.3479 105.531 75.6011 104.535C75.854 103.533 76.0267 102.521 76.3509 101.581C76.6671 100.642 77.0906 99.7804 77.562 99.0067C78.5045 97.4534 79.6619 96.2701 80.7354 95.4359C81.8089 94.5933 82.7976 94.0885 83.4944 93.7943C83.8394 93.637 84.1211 93.5503 84.3096 93.4861C84.4986 93.4231 84.5988 93.3939 84.6013 93.4011C84.61 93.4256 84.2099 93.552 83.5282 93.8729C82.8469 94.1887 81.8794 94.71 80.8301 95.5585C79.7808 96.3986 78.6514 97.5773 77.7323 99.1124C77.2733 99.8776 76.8603 100.727 76.5524 101.651C76.237 102.572 76.0676 103.573 75.8114 104.591C75.5552 105.6 75.1626 106.606 74.44 107.319C73.7283 108.032 72.8538 108.449 72.059 108.845C71.2583 109.237 70.5044 109.628 69.9212 110.153C69.6346 110.418 69.3938 110.712 69.2111 111.023C69.0384 111.342 68.9282 111.675 68.8594 112.002C68.7434 112.661 68.8093 113.281 68.9578 113.792C69.1105 114.304 69.3421 114.712 69.5749 115.005C70.0409 115.6 70.4481 115.772 70.426 115.799Z" fill="#1A2E35"/>
<path fill-rule="evenodd" clip-rule="evenodd" d="M109.367 114.2C109.348 114.181 109.553 113.994 109.832 113.588C110.111 113.186 110.435 112.541 110.606 111.684C110.776 110.831 110.777 109.77 110.499 108.65C110.222 107.529 109.649 106.372 108.935 105.235C108.216 104.096 107.44 103.064 106.786 102.087C106.129 101.111 105.598 100.188 105.241 99.372C104.884 98.5552 104.694 97.8556 104.611 97.3662C104.57 97.1212 104.545 96.9304 104.539 96.7998C104.53 96.6696 104.529 96.6008 104.537 96.6C104.558 96.5978 104.587 96.8698 104.698 97.349C104.806 97.8277 105.017 98.5096 105.388 99.3076C105.759 100.105 106.297 101.009 106.96 101.972C107.62 102.938 108.402 103.967 109.128 105.117C109.85 106.267 110.429 107.447 110.703 108.602C110.976 109.754 110.958 110.843 110.764 111.716C110.567 112.592 110.211 113.244 109.904 113.639C109.748 113.836 109.62 113.982 109.52 114.069C109.425 114.16 109.373 114.205 109.367 114.2Z" fill="#1A2E35"/>
<path d="M64.423 173.674L60.9016 179.744C60.9016 179.744 43.4049 173.4 33.1627 175.248C29.2684 175.951 25.1005 184.707 30.7748 190.33C36.3107 195.816 46.2121 203.571 64.7857 206.082C65.2487 206.145 72.8565 207.763 72.3879 207.708C71.9194 207.654 83.0541 209.4 83.0541 209.4L85.6679 199.605L106.414 202.831C118.64 202.004 124.623 189.048 117.261 184.878C110.393 180.987 97.4783 180.675 97.4783 180.675L92.7973 173.4L64.423 173.674Z" fill="#272422"/>
<path fill-rule="evenodd" clip-rule="evenodd" d="M83.6023 209.4C83.6565 209.069 83.8036 208.176 84.1044 206.346C84.2686 205.369 84.4708 204.178 84.7314 202.807C84.8624 202.122 85.0087 201.393 85.1827 200.624C85.2714 200.24 85.3661 199.847 85.4788 199.445C85.5368 199.246 85.5965 199.043 85.6703 198.84C85.7471 198.638 85.8128 198.434 85.9834 198.236L86.0141 198.384C81.62 196.831 76.1284 194.778 70.2734 192.319C66.6736 190.794 63.2781 189.253 60.2896 187.65C58.8009 186.844 57.3992 186.032 56.195 185.12C54.9797 184.227 53.8983 183.335 52.8844 182.558C50.8757 180.979 49.0547 179.959 47.6918 179.526C47.3582 179.398 47.0485 179.328 46.7828 179.258C46.5183 179.181 46.2892 179.141 46.1032 179.112C45.9275 179.08 45.788 179.054 45.6818 179.035C45.5867 179.016 45.538 179.005 45.5385 179.002C45.5389 178.997 45.5884 179.002 45.6844 179.013C45.7919 179.027 45.9326 179.045 46.1105 179.067C46.2986 179.09 46.5302 179.124 46.7981 179.194C47.0673 179.257 47.3804 179.322 47.7191 179.444C48.4093 179.648 49.2172 180.009 50.1087 180.503C51.0007 181 51.96 181.659 52.9799 182.433C54.0024 183.205 55.0897 184.09 56.3033 184.972C57.5058 185.872 58.899 186.671 60.3868 187.471C63.3707 189.059 66.764 190.592 70.36 192.115C76.2086 194.572 81.693 196.639 86.0734 198.217L86.1958 198.261L86.1045 198.365C85.9894 198.498 85.9032 198.708 85.8337 198.9C85.7616 199.096 85.7006 199.295 85.6426 199.493C85.5282 199.888 85.4314 200.279 85.3405 200.661C85.1614 201.425 85.0091 202.152 84.8722 202.835C84.5992 204.201 84.3829 205.389 84.2042 206.364C84.0242 207.327 83.8834 208.084 83.784 208.615C83.7328 208.874 83.6914 209.071 83.6594 209.202C83.6287 209.335 83.6023 209.4 83.6023 209.4Z" fill="#375A64"/>
<path fill-rule="evenodd" clip-rule="evenodd" d="M113.301 186.003C113.3 186.007 113.262 186.004 113.188 185.993C113.103 185.979 112.996 185.962 112.864 185.941C112.578 185.905 112.165 185.798 111.62 185.745C110.539 185.586 108.953 185.482 107.002 185.583C105.05 185.675 102.743 186.05 100.241 186.695C98.9929 187.029 97.6935 187.42 96.3639 187.88C95.034 188.34 93.6782 188.869 92.2893 189.421C90.8973 189.982 89.4968 190.415 88.1346 190.789C86.7723 191.164 85.4407 191.457 84.1675 191.702C81.6198 192.198 79.3033 192.503 77.3576 192.739C75.4115 192.973 73.8341 193.135 72.7442 193.247C72.2128 193.299 71.7933 193.34 71.4887 193.37C71.3557 193.38 71.2482 193.389 71.1613 193.396C71.0877 193.401 71.0494 193.401 71.049 193.398C71.0485 193.394 71.0855 193.386 71.1587 193.374C71.2447 193.361 71.3514 193.344 71.4835 193.325C71.7869 193.285 72.2047 193.23 72.7343 193.161C73.8397 193.022 75.4076 192.825 77.3378 192.583C79.2792 192.326 81.5897 192.005 84.1275 191.501C85.3959 191.25 86.7216 190.954 88.0765 190.577C89.4314 190.203 90.8242 189.771 92.2062 189.214C93.5939 188.662 94.9578 188.132 96.2921 187.673C97.6276 187.215 98.9335 186.825 100.189 186.495C102.705 185.859 105.029 185.498 106.994 185.424C108.958 185.344 110.551 185.473 111.633 185.659C112.178 185.725 112.59 185.846 112.873 185.898C113.003 185.927 113.109 185.951 113.194 185.971C113.265 185.989 113.302 185.999 113.301 186.003Z" fill="#375A64"/>
<path fill-rule="evenodd" clip-rule="evenodd" d="M81.4125 182.387C81.4252 182.528 80.4897 182.754 78.9464 182.893C77.4053 183.034 75.254 183.06 72.8992 182.819C70.5434 182.574 68.4471 182.108 66.9711 181.656C65.4939 181.205 64.6295 180.793 64.6729 180.658C64.7704 180.359 68.4207 181.295 73.0171 181.756C77.6093 182.244 81.3826 182.075 81.4125 182.387Z" fill="#1A2E35"/>
<path fill-rule="evenodd" clip-rule="evenodd" d="M97.3566 180.603C97.3591 180.619 97.1205 180.684 96.6879 180.788C96.4702 180.834 96.2077 180.904 95.9054 180.998C95.6018 181.086 95.2555 181.183 94.8825 181.322C94.125 181.566 93.2524 181.944 92.2957 182.384C91.3477 182.847 90.3269 183.402 89.2872 184.043C87.2125 185.337 85.4556 186.705 84.215 187.729C83.5932 188.24 83.097 188.664 82.7562 188.959C82.4141 189.254 82.2203 189.411 82.2102 189.399C82.2002 189.388 82.3748 189.209 82.7001 188.894C83.0242 188.578 83.5061 188.134 84.117 187.606C85.3367 186.546 87.0873 185.152 89.175 183.85C90.221 183.205 91.2527 182.651 92.2119 182.195C93.1808 181.762 94.066 181.396 94.8356 181.171C95.2145 181.04 95.5662 180.953 95.8748 180.876C96.1817 180.793 96.4489 180.735 96.6704 180.702C97.1104 180.624 97.3541 180.588 97.3566 180.603Z" fill="#375A64"/>
<path fill-rule="evenodd" clip-rule="evenodd" d="M78.2236 189.396C78.2167 189.424 77.7308 189.311 76.9798 189.013C76.2271 188.719 75.2211 188.225 74.1387 187.627C73.0958 187.037 72.1526 186.503 71.3843 186.068C70.6802 185.671 70.239 185.437 70.252 185.403C70.2633 185.374 70.7292 185.554 71.4546 185.913C72.1813 186.269 73.1617 186.812 74.2411 187.409C75.3209 188.006 76.3078 188.521 77.0388 188.853C77.7677 189.189 78.2336 189.359 78.2236 189.396Z" fill="#375A64"/>
<path fill-rule="evenodd" clip-rule="evenodd" d="M80.3321 174.2C80.3741 174.204 80.2996 174.83 80.2188 175.844C80.1368 176.857 80.0661 178.258 80.1023 179.805C80.1416 181.353 80.2815 182.752 80.4124 183.761C80.5432 184.771 80.648 185.395 80.606 185.4C80.5868 185.402 80.539 185.249 80.4677 184.97C80.3948 184.691 80.3086 184.284 80.2182 183.78C80.0363 182.771 79.8651 181.367 79.8257 179.81C79.789 178.254 79.8917 176.845 80.0236 175.831C80.089 175.324 80.1555 174.915 80.2145 174.634C80.2725 174.353 80.3129 174.198 80.3321 174.2Z" fill="#375A64"/>
<path fill-rule="evenodd" clip-rule="evenodd" d="M82.0258 175.183C82.0361 175.2 81.9552 175.249 81.85 175.372C81.7443 175.494 81.6267 175.705 81.5871 175.989C81.5524 176.267 81.6019 176.635 81.8458 176.904C82.0815 177.179 82.5276 177.26 82.9221 177.11C83.3175 176.963 83.6043 176.607 83.6059 176.243C83.6183 175.878 83.419 175.566 83.2135 175.378C83.0005 175.189 82.7756 175.107 82.6176 175.085C82.4583 175.06 82.3654 175.077 82.3621 175.056C82.3592 175.048 82.4479 175 82.6242 175C82.7983 174.998 83.0587 175.063 83.3109 175.26C83.5535 175.455 83.8044 175.798 83.804 176.248C83.8131 176.703 83.459 177.147 82.9968 177.314C82.5387 177.492 81.9849 177.39 81.6989 177.038C81.4088 176.697 81.3791 176.272 81.4369 175.964C81.5017 175.648 81.6568 175.426 81.7909 175.313C81.9247 175.197 82.0225 175.174 82.0258 175.183Z" fill="#375A64"/>
<path fill-rule="evenodd" clip-rule="evenodd" d="M87.7894 167.801C87.8008 167.811 87.684 167.975 87.4612 168.263C87.2427 168.553 86.8971 168.948 86.4466 169.411C85.9985 169.876 85.4269 170.387 84.7598 170.909C84.0865 171.42 83.314 171.935 82.4622 172.395C81.6066 172.847 80.7573 173.198 79.9709 173.467C79.1807 173.724 78.4555 173.906 77.8391 174.009C77.224 174.116 76.7215 174.174 76.373 174.186C76.0254 174.203 75.833 174.205 75.8322 174.189C75.8292 174.144 76.5979 174.099 77.8113 173.845C78.4188 173.722 79.1318 173.525 79.9093 173.26C80.6831 172.983 81.5193 172.631 82.3643 172.184C83.2052 171.73 83.9709 171.227 84.643 170.731C85.3083 170.226 85.8842 169.733 86.3415 169.288C87.2612 168.402 87.7578 167.772 87.7894 167.801Z" fill="#1A2E35"/>
<path fill-rule="evenodd" clip-rule="evenodd" d="M94.965 172.663C94.9637 172.723 94.2208 172.724 93.3449 172.928C92.4666 173.126 91.8083 173.447 91.7774 173.394C91.7456 173.353 92.3795 172.94 93.2933 172.734C94.2055 172.522 94.9724 172.613 94.965 172.663Z" fill="#1A2E35"/>
<path fill-rule="evenodd" clip-rule="evenodd" d="M77.2756 173.381C80.9465 172.711 84.3665 170.701 86.7704 167.8C87.2262 169.161 86.8484 170.773 85.8379 171.778C86.9199 172.3 88.1864 171.953 89.3729 171.787C90.5593 171.621 92.0068 171.783 92.5734 172.857C87.2756 173.357 81.9463 173.512 76.6294 173.32" fill="black"/>
<path fill-rule="evenodd" clip-rule="evenodd" d="M67.0622 165.557C67.0283 165.603 66.4972 164.881 65.2134 164.387C64.5811 164.141 63.7701 163.976 62.8699 164.001C61.9714 164.025 60.9872 164.258 60.0677 164.733C58.1987 165.68 57.0915 167.294 56.2444 168.329C55.844 168.873 55.5864 169.357 55.4029 169.689C55.2225 170.022 55.1213 170.207 55.1063 170.2C55.0934 170.194 55.168 169.997 55.3249 169.652C55.4848 169.308 55.7236 168.807 56.1145 168.241C56.5093 167.678 57.0242 167.053 57.6187 166.365C58.2296 165.69 59.0127 165.029 59.9639 164.541C60.9126 164.05 61.9358 163.813 62.8647 163.801C63.7958 163.786 64.6295 163.973 65.273 164.245C65.9232 164.508 66.3793 164.854 66.6644 165.113C66.8076 165.242 66.9096 165.352 66.9718 165.432C67.0369 165.509 67.0682 165.552 67.0622 165.557Z" fill="#1A2E35"/>
<path fill-rule="evenodd" clip-rule="evenodd" d="M77.7421 124.6L71.8462 125.843L74.7941 136.778L85.2288 139L92.3883 133.962L93.3706 127.935L87.2319 125.633L77.7421 124.6Z" fill="#FFBF9D"/>
<g filter="url(#filter10_d)">
<path d="M73.8622 124.6C73.8622 124.6 77.8901 136.349 85.3353 135.263C92.78 134.178 92.1584 126.563 92.1584 126.563C92.1584 126.563 99.9285 128.941 102.33 131.473C104.732 134.006 103.324 139.505 103.324 139.505L101.309 149.447L96.9264 168.494C96.9264 168.494 98.602 173.688 94.3192 174.973L92.9663 172.841L67.2702 173.572C67.2702 173.572 61.7739 179.935 60.0616 177.739C58.3489 175.545 56.6993 171.268 56.6993 171.268L68.4938 126.004L73.8622 124.6Z" fill="#390B12"/>
</g>
<g filter="url(#filter11_d)">
<path d="M99.9812 130.2C100.188 130.32 118.082 143.396 118.082 143.396C118.082 143.396 116.678 154.148 125.259 152.435C125.259 152.435 121.79 161.428 117.094 159.539C115.759 159.003 99.2668 148.511 99.2668 148.511L95.7622 141.006L99.9812 130.2Z" fill="#390B12"/>
</g>
<g filter="url(#filter12_d)">
<path d="M74.2378 125.4C74.2378 125.4 73.8228 125.411 73.1221 125.478C69.5274 125.819 56.2605 128.536 55.0329 137.791C54.3904 142.633 54.2064 156.791 53.5105 162.727C53.5105 162.727 54.6205 170.977 55.0329 172.506C55.7665 175.226 69.0746 170.872 69.0746 170.872L69.1024 144.672L73.8228 125.411" fill="#390B12"/>
</g>
<path fill-rule="evenodd" clip-rule="evenodd" d="M65.5062 149.4C65.5142 149.4 65.5212 149.473 65.5274 149.61C65.5314 149.747 65.5354 149.948 65.5707 150.206C65.6268 150.72 65.793 151.457 66.1407 152.323C66.4858 153.191 67.0111 154.18 67.5386 155.311C67.7984 155.877 68.0538 156.484 68.2443 157.138C68.4303 157.793 68.5544 158.488 68.6097 159.204C68.7245 160.637 68.6092 161.999 68.5023 163.227C68.3914 164.456 68.284 165.566 68.1232 166.489C67.9672 167.414 67.7631 168.149 67.5899 168.646C67.5024 168.894 67.4282 169.084 67.3699 169.211C67.3133 169.338 67.2802 169.403 67.2731 169.4C67.255 169.393 67.3575 169.122 67.5042 168.621C67.6504 168.12 67.8276 167.387 67.9624 166.466C68.1015 165.546 68.1917 164.441 68.2911 163.211C68.3865 161.984 68.4939 160.63 68.3803 159.221C68.326 158.517 68.2054 157.836 68.0269 157.195C67.8435 156.555 67.597 155.955 67.3442 155.391C66.8317 154.265 66.3179 153.262 65.9878 152.378C65.6555 151.494 65.5106 150.737 65.4815 150.213C65.4594 149.951 65.47 149.747 65.481 149.609C65.4899 149.472 65.4983 149.4 65.5062 149.4Z" fill="#1A2E35"/>
<path fill-rule="evenodd" clip-rule="evenodd" d="M66.2847 146.2C66.3175 146.198 66.3472 146.852 66.483 147.895C66.6177 148.938 66.878 150.37 67.3543 151.891C67.4753 152.271 67.5975 152.639 67.7294 152.99C67.7622 153.07 67.7926 153.184 67.8266 153.23C67.8734 153.309 67.9199 153.386 67.9663 153.463C68.0573 153.621 68.1436 153.778 68.2173 153.937C68.5214 154.57 68.6608 155.215 68.6573 155.756C68.66 156.3 68.5285 156.723 68.425 156.998C68.3017 157.267 68.2209 157.407 68.2099 157.4C68.1565 157.383 68.539 156.806 68.5132 155.76C68.4992 155.244 68.3524 154.635 68.0511 154.03C67.9781 153.878 67.893 153.728 67.8028 153.576C67.7559 153.5 67.7083 153.423 67.6603 153.344C67.5955 153.237 67.5842 153.163 67.5444 153.07C67.4085 152.717 67.284 152.344 67.1618 151.961C66.6801 150.423 66.4393 148.969 66.3405 147.914C66.2874 147.387 66.2734 146.957 66.266 146.661C66.2644 146.364 66.2707 146.2 66.2847 146.2Z" fill="#1A2E35"/>
<path fill-rule="evenodd" clip-rule="evenodd" d="M66.2626 142.2C66.2295 142.211 66.0459 141.686 65.6805 140.869C65.3158 140.053 64.745 138.956 63.9696 137.841C63.191 136.727 62.3622 135.817 61.7263 135.198C61.0912 134.578 60.6643 134.229 60.6861 134.201C60.695 134.189 60.8098 134.265 61.0112 134.413C61.2137 134.558 61.4939 134.788 61.827 135.086C62.4944 135.682 63.3523 136.588 64.1406 137.716C64.9265 138.845 65.484 139.97 65.8167 140.809C65.9841 141.228 66.1042 141.573 66.1729 141.816C66.244 142.059 66.2764 142.195 66.2626 142.2Z" fill="#1A2E35"/>
<path fill-rule="evenodd" clip-rule="evenodd" d="M103.724 134.2C103.756 134.206 103.712 134.61 103.633 135.259C103.555 135.909 103.445 136.806 103.341 137.799C103.238 138.792 103.161 139.692 103.104 140.345C103.047 140.997 103.006 141.401 102.974 141.4C102.943 141.399 102.927 140.992 102.943 140.336C102.959 139.679 103.011 138.773 103.115 137.775C103.219 136.778 103.355 135.881 103.475 135.235C103.594 134.589 103.694 134.194 103.724 134.2Z" fill="#1A2E35"/>
<path fill-rule="evenodd" clip-rule="evenodd" d="M106.923 145.409C106.928 145.45 106.39 145.502 105.564 145.747C104.741 145.981 103.63 146.503 102.719 147.476C102.267 147.963 101.919 148.5 101.633 149.007C101.366 149.524 101.158 150.01 101.009 150.429C100.939 150.631 100.873 150.821 100.812 150.997C100.766 151.154 100.723 151.299 100.684 151.433C100.611 151.672 100.564 151.803 100.55 151.8C100.536 151.797 100.556 151.659 100.605 151.412C100.634 151.274 100.665 151.125 100.7 150.962C100.752 150.781 100.808 150.586 100.869 150.378C101.002 149.947 101.199 149.445 101.464 148.91C101.746 148.385 102.101 147.828 102.568 147.324C103.512 146.315 104.679 145.797 105.525 145.598C105.737 145.542 105.931 145.5 106.103 145.476C106.274 145.447 106.422 145.424 106.544 145.418C106.787 145.398 106.922 145.394 106.923 145.409Z" fill="#1A2E35"/>
<path fill-rule="evenodd" clip-rule="evenodd" d="M119.675 157.4C119.66 157.407 119.542 157.238 119.342 156.926C119.239 156.771 119.12 156.578 119.001 156.346C118.879 156.116 118.728 155.857 118.601 155.557C118.318 154.967 118.046 154.241 117.809 153.421C117.585 152.598 117.406 151.679 117.324 150.706C117.254 149.731 117.288 148.799 117.381 147.958C117.489 147.118 117.646 146.367 117.834 145.75C117.913 145.438 118.023 145.164 118.108 144.921C118.19 144.678 118.278 144.473 118.355 144.308C118.505 143.975 118.596 143.795 118.612 143.8C118.659 143.815 118.33 144.55 118.01 145.785C117.846 146.402 117.71 147.146 117.616 147.978C117.537 148.809 117.51 149.729 117.58 150.691C117.66 151.652 117.831 152.559 118.038 153.374C118.261 154.187 118.511 154.91 118.77 155.502C119.279 156.688 119.72 157.38 119.675 157.4Z" fill="#1A2E35"/>
<path fill-rule="evenodd" clip-rule="evenodd" d="M114.574 154.2C114.561 154.204 114.507 154.043 114.42 153.748C114.337 153.451 114.239 153.012 114.171 152.461C114.031 151.364 114.06 149.789 114.544 148.163C115.018 146.533 115.844 145.229 116.564 144.425C116.934 144.025 117.344 143.806 117.65 143.801C117.802 143.794 117.915 143.837 117.986 143.87C118.055 143.911 118.087 143.937 118.084 143.943C118.076 143.966 117.933 143.856 117.656 143.886C117.381 143.916 117.01 144.137 116.668 144.533C115.994 145.344 115.203 146.635 114.74 148.23C114.266 149.82 114.215 151.359 114.316 152.444C114.416 153.535 114.613 154.189 114.574 154.2Z" fill="#1A2E35"/>
<path fill-rule="evenodd" clip-rule="evenodd" d="M85.3954 151.8C85.4104 151.804 85.372 151.98 85.29 152.297C85.2516 152.456 85.1979 152.649 85.1155 152.867C85.0357 153.085 84.9576 153.339 84.8317 153.605C84.6077 154.147 84.2774 154.767 83.8566 155.422C83.4231 156.07 82.8918 156.748 82.2577 157.392C81.6159 158.028 80.937 158.565 80.2866 159.005C79.6282 159.433 79.0034 159.771 78.4559 160.003C78.188 160.132 77.9306 160.215 77.71 160.298C77.4903 160.384 77.2948 160.441 77.1335 160.482C76.8126 160.57 76.6338 160.612 76.6295 160.597C76.6163 160.555 77.3277 160.365 78.3894 159.863C78.9219 159.616 79.5292 159.27 80.171 158.839C80.8042 158.398 81.4674 157.865 82.0985 157.239C82.722 156.606 83.2494 155.944 83.6851 155.313C84.1088 154.674 84.4485 154.071 84.6879 153.542C85.1752 152.49 85.3519 151.788 85.3954 151.8Z" fill="#1A2E35"/>
<path d="M70.5536 156.29C69.7077 153.276 68.8619 150.263 68.016 147.248C67.8927 146.808 67.6862 146.29 67.2257 146.209C66.7968 146.134 66.4032 146.529 66.3235 146.947C66.2433 147.365 66.2574 147.846 66.3006 148.268C66.5 150.231 66.6581 151.564 67.5955 153.086C69.4215 156.05 68.2177 157.487 68.2177 157.487C68.363 161.096 68.0513 166.021 66.9012 169.727L67.9865 174.2C69.0186 170.875 71.3734 168.102 71.7706 164.65C72.0942 161.835 71.3201 159.022 70.5536 156.29Z" fill="#272422" fill-opacity="0.5"/>
<path d="M101.343 149.757C104.404 151.277 107.127 153.375 110.112 155C108.942 152.675 106.991 150.376 104.618 149.142C103.979 148.81 103.264 148.522 102.544 148.619C101.822 148.716 101.302 149.105 101.412 149.792" fill="#272422" fill-opacity="0.5"/>
<path d="M117.881 143.178C116.924 143.154 116.202 144.053 115.733 144.916C114.415 147.35 113.865 150.221 114.188 152.99C114.246 153.49 114.425 154.092 114.902 154.188C115.249 154.259 115.594 153.997 115.748 153.669C115.902 153.34 115.909 152.961 115.908 152.596C115.902 150.899 115.796 149.193 116.029 147.514C116.262 145.834 116.876 144.147 118.084 143" fill="#272422" fill-opacity="0.5"/>
<path fill-rule="evenodd" clip-rule="evenodd" d="M72.6434 146.365C72.6434 146.362 72.6776 146.358 72.7449 146.353C72.8217 146.348 72.9202 146.341 73.0465 146.333C73.3234 146.318 73.7157 146.298 74.2216 146.271C75.261 146.223 76.7646 146.154 78.6671 146.067C82.4993 145.906 87.9376 145.676 94.4061 145.404L94.5085 145.4L94.5111 145.502C94.6404 150.755 94.7893 156.797 94.9472 163.197C94.9524 163.412 94.9572 163.628 94.9624 163.838L94.965 163.952L94.8509 163.953C87.7219 164.03 81.0712 164.616 75.474 165.388L75.389 165.4L75.3664 165.319C73.8246 159.693 73.2609 154.848 73.0556 151.467C72.9528 149.774 72.9337 148.441 72.9341 147.534C72.9337 147.08 72.9441 146.732 72.9484 146.498C72.9519 146.387 72.9545 146.3 72.9567 146.232C72.9597 146.172 72.9619 146.142 72.9645 146.142C72.9675 146.142 72.9697 146.173 72.9723 146.232C72.974 146.3 72.9762 146.387 72.9788 146.498C72.9823 146.742 72.987 147.088 72.994 147.533C73.0127 148.44 73.0495 149.77 73.1689 151.46C73.4071 154.833 73.9977 159.663 75.5543 165.267L75.4467 165.197C81.049 164.405 87.7089 163.806 94.8483 163.729L94.7368 163.843C94.7316 163.633 94.7264 163.418 94.7212 163.202C94.5723 156.802 94.4317 150.76 94.3098 145.506L94.4143 145.604C87.9441 145.843 82.5049 146.044 78.6718 146.186C76.7681 146.249 75.264 146.3 74.2242 146.334C73.7178 146.347 73.3247 146.357 73.0482 146.365C72.9215 146.367 72.8226 146.368 72.7458 146.369C72.6781 146.369 72.6434 146.368 72.6434 146.365Z" fill="white"/>
<path fill-rule="evenodd" clip-rule="evenodd" d="M78.2176 159.8C78.151 159.81 77.5641 156.953 76.9078 153.418C76.2506 149.883 75.7721 147.01 75.8383 147C75.9049 146.99 76.4913 149.847 77.1485 153.382C77.8052 156.916 78.2842 159.79 78.2176 159.8Z" fill="white"/>
<path fill-rule="evenodd" clip-rule="evenodd" d="M79.0041 165.4C78.9409 165.409 78.7185 164.343 78.508 163.017C78.2972 161.692 78.1775 160.61 78.2407 160.6C78.3038 160.59 78.5258 161.657 78.7367 162.982C78.9476 164.308 79.0673 165.39 79.0041 165.4Z" fill="white"/>
<path fill-rule="evenodd" clip-rule="evenodd" d="M83.0024 156.6C82.9915 156.603 82.9611 156.462 82.9152 156.204C82.869 155.946 82.8108 155.571 82.746 155.105C82.6161 154.173 82.4691 152.877 82.364 151.436C82.2598 149.994 82.2177 148.683 82.2112 147.734C82.2077 147.261 82.2108 146.877 82.2192 146.612C82.227 146.346 82.2366 146.2 82.2477 146.2C82.2716 146.2 82.2893 146.785 82.3252 147.73C82.3612 148.674 82.421 149.978 82.5246 151.414C82.6291 152.849 82.7577 154.143 82.8588 155.079C82.959 156.015 83.0256 156.594 83.0024 156.6Z" fill="white"/>
<path fill-rule="evenodd" clip-rule="evenodd" d="M82.1935 164.6C82.1313 164.608 81.9098 163.182 81.6989 161.415C81.4875 159.647 81.367 158.208 81.4288 158.2C81.491 158.192 81.7124 159.618 81.9233 161.386C82.1347 163.153 82.2557 164.592 82.1935 164.6Z" fill="white"/>
<path fill-rule="evenodd" clip-rule="evenodd" d="M86.9801 163.8C86.9623 163.801 86.9278 163.554 86.8799 163.107C86.8306 162.623 86.7655 161.986 86.6871 161.215C86.5258 159.618 86.2851 157.413 85.9581 154.984C85.6296 152.554 85.277 150.36 85.0092 148.774C84.8804 148.008 84.7739 147.375 84.693 146.894C84.6205 146.45 84.5884 146.203 84.6062 146.2C84.6235 146.198 84.6886 146.44 84.7916 146.88C84.8957 147.319 85.0318 147.959 85.1887 148.75C85.5024 150.332 85.8841 152.525 86.2131 154.96C86.5406 157.392 86.7532 159.602 86.8681 161.204C86.9263 162.005 86.9638 162.653 86.9801 163.102C86.9968 163.551 86.9978 163.799 86.9801 163.8Z" fill="white"/>
<path fill-rule="evenodd" clip-rule="evenodd" d="M90.8833 164.6C90.871 164.6 90.8627 164.341 90.8586 163.875C90.8551 163.37 90.8507 162.705 90.8448 161.9C90.8324 160.233 90.7967 157.931 90.701 155.39C90.604 152.849 90.4657 150.553 90.3525 148.892C90.2972 148.091 90.2514 147.428 90.217 146.925C90.1857 146.46 90.1744 146.202 90.1867 146.2C90.1988 146.198 90.2335 146.453 90.2862 146.915C90.3395 147.377 90.4059 148.047 90.4785 148.877C90.6243 150.536 90.7829 152.834 90.8799 155.38C90.9759 157.924 90.9914 160.231 90.9714 161.9C90.9621 162.735 90.9466 163.41 90.9284 163.876C90.9112 164.343 90.8957 164.6 90.8833 164.6Z" fill="white"/>
<path d="M76.7564 160.847C77.4135 161.287 78.2382 161.441 79.0317 161.391C79.8249 161.341 80.5939 161.099 81.3279 160.799C82.3003 160.402 83.2486 159.886 83.9419 159.108C84.6837 158.276 85.0846 157.194 85.2613 156.102C85.4384 155.01 85.4056 153.896 85.3723 152.791C85.371 152.742 85.3684 152.691 85.3399 152.652C85.2863 152.579 85.1649 152.588 85.0954 152.646C85.0254 152.705 84.9939 152.795 84.9645 152.88C83.6801 156.576 80.4591 159.565 76.6294 160.616" fill="#272422" fill-opacity="0.5"/>
<mask id="mask10"  maskUnits="userSpaceOnUse" x="55" y="164" width="24" height="47">
<path fill-rule="evenodd" clip-rule="evenodd" d="M55.9979 164.095H78.6689V211H55.9979V164.095Z" fill="white"/>
</mask>
<g mask="url(#mask10)">
<path fill-rule="evenodd" clip-rule="evenodd" d="M74.0065 197.315L71.4374 192.398L65.6631 164.803C65.6631 164.803 60.3487 161.691 56.0015 168.516C55.8267 168.79 61.9851 188.553 63.7039 194.052L63.9452 199.309C63.9452 199.309 63.64 205.535 63.9452 206.08C64.2499 206.625 65.0124 206.936 65.0124 206.936C65.0124 206.936 64.7837 208.492 66.537 208.648C66.537 208.648 66.6896 210.36 67.9855 210.126C69.2814 209.893 69.7388 209.037 69.7388 209.037C69.7388 209.037 69.7388 211.216 70.8821 210.983C72.0258 210.749 72.2125 209.815 72.4239 209.504C72.6358 209.193 72.8766 206.002 72.8766 206.002L72.856 200.73L75.8337 203.192C76.6933 203.63 77.9527 204.172 78.6689 203.518L74.0065 197.315Z" fill="#FFBF9D"/>
</g>
<path fill-rule="evenodd" clip-rule="evenodd" d="M72.9458 199.8C73.0646 199.79 73.4074 201.05 73.2663 202.603C73.2009 203.324 73.1419 203.979 73.0869 204.58C73.0383 205.085 73.0056 205.399 72.9458 205.4C72.8167 205.403 72.7098 204.14 72.8509 202.595C72.9913 201.053 72.8366 199.808 72.9458 199.8Z" fill="#FF9A6C"/>
<path fill-rule="evenodd" clip-rule="evenodd" d="M69.7878 203.8C69.9026 203.799 70.0245 205.052 70.0604 206.598C70.0971 208.145 70.0333 209.399 69.9185 209.4C69.8045 209.401 69.6817 208.149 69.6459 206.602C69.6092 205.056 69.673 203.801 69.7878 203.8Z" fill="#FF9A6C"/>
<path fill-rule="evenodd" clip-rule="evenodd" d="M66.8872 204.6C66.9875 204.595 67.1618 205.505 66.9912 206.625C66.8274 207.745 66.3882 208.617 66.2907 208.6C66.183 208.583 66.4487 207.7 66.6089 206.601C66.7757 205.503 66.7757 204.604 66.8872 204.6Z" fill="#FF9A6C"/>
<path fill-rule="evenodd" clip-rule="evenodd" d="M65.286 203.8C65.4 203.806 65.396 204.348 65.2764 205.011C65.1568 205.674 64.9679 206.206 64.8539 206.2C64.7399 206.194 64.7439 205.652 64.8635 204.989C64.983 204.326 65.172 203.794 65.286 203.8Z" fill="#FF9A6C"/>
<g filter="url(#filter13_d)">
<path d="M134.484 112.6C134.403 112.819 132.434 130.2 132.434 130.2L140.037 128.911L142 114.549L134.484 112.6Z" fill="#390B12"/>
</g>
<path d="M132.958 130.2L132.434 129.88L134.024 112.6L134.825 112.835L132.958 130.2Z" fill="#8F5F43"/>
<path d="M138.014 116.2C138.014 116.421 138.193 116.6 138.413 116.6C138.633 116.6 138.811 116.421 138.811 116.2C138.811 115.979 138.633 115.8 138.413 115.8C138.193 115.8 138.014 115.979 138.014 116.2Z" fill="#8F5F43"/>
<path fill-rule="evenodd" clip-rule="evenodd" d="M141.203 120.2H138.014C138.014 120.2 136.021 121.4 138.413 121.8C140.804 122.2 140.804 122.2 140.804 122.2C140.804 122.2 137.855 121.8 137.456 122.6C137.057 123.4 141.043 123.8 141.043 123.8C141.043 123.8 139.848 124.6 138.253 125C136.659 125.4 140.645 126.2 140.645 126.2L141.203 120.2Z" fill="#FFBF9D"/>
<defs>
<filter id="filter0_d" x="195.707" y="89.301" width="37.0979" height="41.3978" filterUnits="userSpaceOnUse" color-interpolation-filters="sRGB">
<feFlood flood-opacity="0" result="BackgroundImageFix"/>
<feColorMatrix in="SourceAlpha" type="matrix" values="0 0 0 0 0 0 0 0 0 0 0 0 0 0 0 0 0 0 127 0"/>
<feOffset dx="2" dy="4"/>
<feGaussianBlur stdDeviation="8"/>
<feColorMatrix type="matrix" values="0 0 0 0 0 0 0 0 0 0 0 0 0 0 0 0 0 0 0.1 0"/>
<feBlend mode="normal" in2="BackgroundImageFix" result="effect1_dropShadow"/>
<feBlend mode="normal" in="SourceGraphic" in2="effect1_dropShadow" result="shape"/>
</filter>
<filter id="filter1_d" x="155" y="64.0604" width="92.7115" height="91.8791" filterUnits="userSpaceOnUse" color-interpolation-filters="sRGB">
<feFlood flood-opacity="0" result="BackgroundImageFix"/>
<feColorMatrix in="SourceAlpha" type="matrix" values="0 0 0 0 0 0 0 0 0 0 0 0 0 0 0 0 0 0 127 0"/>
<feOffset dx="2" dy="4"/>
<feGaussianBlur stdDeviation="8"/>
<feColorMatrix type="matrix" values="0 0 0 0 0 0 0 0 0 0 0 0 0 0 0 0 0 0 0.1 0"/>
<feBlend mode="normal" in2="BackgroundImageFix" result="effect1_dropShadow"/>
<feBlend mode="normal" in="SourceGraphic" in2="effect1_dropShadow" result="shape"/>
</filter>
<filter id="filter2_d" x="182.807" y="95.7512" width="37.0977" height="34.9477" filterUnits="userSpaceOnUse" color-interpolation-filters="sRGB">
<feFlood flood-opacity="0" result="BackgroundImageFix"/>
<feColorMatrix in="SourceAlpha" type="matrix" values="0 0 0 0 0 0 0 0 0 0 0 0 0 0 0 0 0 0 127 0"/>
<feOffset dx="2" dy="4"/>
<feGaussianBlur stdDeviation="8"/>
<feColorMatrix type="matrix" values="0 0 0 0 0 0 0 0 0 0 0 0 0 0 0 0 0 0 0.1 0"/>
<feBlend mode="normal" in2="BackgroundImageFix" result="effect1_dropShadow"/>
<feBlend mode="normal" in="SourceGraphic" in2="effect1_dropShadow" result="shape"/>
</filter>
<filter id="filter3_d" x="258.241" y="-0.336914" width="51.9584" height="53.7123" filterUnits="userSpaceOnUse" color-interpolation-filters="sRGB">
<feFlood flood-opacity="0" result="BackgroundImageFix"/>
<feColorMatrix in="SourceAlpha" type="matrix" values="0 0 0 0 0 0 0 0 0 0 0 0 0 0 0 0 0 0 127 0"/>
<feOffset dx="2" dy="4"/>
<feGaussianBlur stdDeviation="8"/>
<feColorMatrix type="matrix" values="0 0 0 0 0 0 0 0 0 0 0 0 0 0 0 0 0 0 0.1 0"/>
<feBlend mode="normal" in2="BackgroundImageFix" result="effect1_dropShadow"/>
<feBlend mode="normal" in="SourceGraphic" in2="effect1_dropShadow" result="shape"/>
</filter>
<filter id="filter4_d" x="247" y="21.0095" width="74.9039" height="69.8753" filterUnits="userSpaceOnUse" color-interpolation-filters="sRGB">
<feFlood flood-opacity="0" result="BackgroundImageFix"/>
<feColorMatrix in="SourceAlpha" type="matrix" values="0 0 0 0 0 0 0 0 0 0 0 0 0 0 0 0 0 0 127 0"/>
<feOffset dx="2" dy="4"/>
<feGaussianBlur stdDeviation="8"/>
<feColorMatrix type="matrix" values="0 0 0 0 0 0 0 0 0 0 0 0 0 0 0 0 0 0 0.1 0"/>
<feBlend mode="normal" in2="BackgroundImageFix" result="effect1_dropShadow"/>
<feBlend mode="normal" in="SourceGraphic" in2="effect1_dropShadow" result="shape"/>
</filter>
<filter id="filter5_d" x="258.217" y="0.666992" width="48.531" height="52.7921" filterUnits="userSpaceOnUse" color-interpolation-filters="sRGB">
<feFlood flood-opacity="0" result="BackgroundImageFix"/>
<feColorMatrix in="SourceAlpha" type="matrix" values="0 0 0 0 0 0 0 0 0 0 0 0 0 0 0 0 0 0 127 0"/>
<feOffset dx="2" dy="4"/>
<feGaussianBlur stdDeviation="8"/>
<feColorMatrix type="matrix" values="0 0 0 0 0 0 0 0 0 0 0 0 0 0 0 0 0 0 0.1 0"/>
<feBlend mode="normal" in2="BackgroundImageFix" result="effect1_dropShadow"/>
<feBlend mode="normal" in="SourceGraphic" in2="effect1_dropShadow" result="shape"/>
</filter>
<filter id="filter6_d" x="268.844" y="21.374" width="32.5904" height="32.1701" filterUnits="userSpaceOnUse" color-interpolation-filters="sRGB">
<feFlood flood-opacity="0" result="BackgroundImageFix"/>
<feColorMatrix in="SourceAlpha" type="matrix" values="0 0 0 0 0 0 0 0 0 0 0 0 0 0 0 0 0 0 127 0"/>
<feOffset dx="2" dy="4"/>
<feGaussianBlur stdDeviation="8"/>
<feColorMatrix type="matrix" values="0 0 0 0 0 0 0 0 0 0 0 0 0 0 0 0 0 0 0.1 0"/>
<feBlend mode="normal" in2="BackgroundImageFix" result="effect1_dropShadow"/>
<feBlend mode="normal" in="SourceGraphic" in2="effect1_dropShadow" result="shape"/>
</filter>
<filter id="filter7_d" x="268.844" y="21.4064" width="32.5904" height="32.1054" filterUnits="userSpaceOnUse" color-interpolation-filters="sRGB">
<feFlood flood-opacity="0" result="BackgroundImageFix"/>
<feColorMatrix in="SourceAlpha" type="matrix" values="0 0 0 0 0 0 0 0 0 0 0 0 0 0 0 0 0 0 127 0"/>
<feOffset dx="2" dy="4"/>
<feGaussianBlur stdDeviation="8"/>
<feColorMatrix type="matrix" values="0 0 0 0 0 0 0 0 0 0 0 0 0 0 0 0 0 0 0.1 0"/>
<feBlend mode="normal" in2="BackgroundImageFix" result="effect1_dropShadow"/>
<feBlend mode="normal" in="SourceGraphic" in2="effect1_dropShadow" result="shape"/>
</filter>
<filter id="filter8_d" x="33.1329" y="187.8" width="55.1189" height="41.6" filterUnits="userSpaceOnUse" color-interpolation-filters="sRGB">
<feFlood flood-opacity="0" result="BackgroundImageFix"/>
<feColorMatrix in="SourceAlpha" type="matrix" values="0 0 0 0 0 0 0 0 0 0 0 0 0 0 0 0 0 0 127 0"/>
<feOffset dx="2" dy="4"/>
<feGaussianBlur stdDeviation="8"/>
<feColorMatrix type="matrix" values="0 0 0 0 0 0 0 0 0 0 0 0 0 0 0 0 0 0 0.1 0"/>
<feBlend mode="normal" in2="BackgroundImageFix" result="effect1_dropShadow"/>
<feBlend mode="normal" in="SourceGraphic" in2="effect1_dropShadow" result="shape"/>
</filter>
<filter id="filter9_d" x="68.2098" y="187.8" width="55.1189" height="41.6" filterUnits="userSpaceOnUse" color-interpolation-filters="sRGB">
<feFlood flood-opacity="0" result="BackgroundImageFix"/>
<feColorMatrix in="SourceAlpha" type="matrix" values="0 0 0 0 0 0 0 0 0 0 0 0 0 0 0 0 0 0 127 0"/>
<feOffset dx="2" dy="4"/>
<feGaussianBlur stdDeviation="8"/>
<feColorMatrix type="matrix" values="0 0 0 0 0 0 0 0 0 0 0 0 0 0 0 0 0 0 0.1 0"/>
<feBlend mode="normal" in2="BackgroundImageFix" result="effect1_dropShadow"/>
<feBlend mode="normal" in="SourceGraphic" in2="effect1_dropShadow" result="shape"/>
</filter>
<filter id="filter10_d" x="42.6993" y="112.6" width="79.035" height="85.6" filterUnits="userSpaceOnUse" color-interpolation-filters="sRGB">
<feFlood flood-opacity="0" result="BackgroundImageFix"/>
<feColorMatrix in="SourceAlpha" type="matrix" values="0 0 0 0 0 0 0 0 0 0 0 0 0 0 0 0 0 0 127 0"/>
<feOffset dx="2" dy="4"/>
<feGaussianBlur stdDeviation="8"/>
<feColorMatrix type="matrix" values="0 0 0 0 0 0 0 0 0 0 0 0 0 0 0 0 0 0 0.1 0"/>
<feBlend mode="normal" in2="BackgroundImageFix" result="effect1_dropShadow"/>
<feBlend mode="normal" in="SourceGraphic" in2="effect1_dropShadow" result="shape"/>
</filter>
<filter id="filter11_d" x="81.7622" y="118.2" width="61.4965" height="61.6" filterUnits="userSpaceOnUse" color-interpolation-filters="sRGB">
<feFlood flood-opacity="0" result="BackgroundImageFix"/>
<feColorMatrix in="SourceAlpha" type="matrix" values="0 0 0 0 0 0 0 0 0 0 0 0 0 0 0 0 0 0 127 0"/>
<feOffset dx="2" dy="4"/>
<feGaussianBlur stdDeviation="8"/>
<feColorMatrix type="matrix" values="0 0 0 0 0 0 0 0 0 0 0 0 0 0 0 0 0 0 0.1 0"/>
<feBlend mode="normal" in2="BackgroundImageFix" result="effect1_dropShadow"/>
<feBlend mode="normal" in="SourceGraphic" in2="effect1_dropShadow" result="shape"/>
</filter>
<filter id="filter12_d" x="39.5105" y="113.4" width="52.7273" height="80" filterUnits="userSpaceOnUse" color-interpolation-filters="sRGB">
<feFlood flood-opacity="0" result="BackgroundImageFix"/>
<feColorMatrix in="SourceAlpha" type="matrix" values="0 0 0 0 0 0 0 0 0 0 0 0 0 0 0 0 0 0 127 0"/>
<feOffset dx="2" dy="4"/>
<feGaussianBlur stdDeviation="8"/>
<feColorMatrix type="matrix" values="0 0 0 0 0 0 0 0 0 0 0 0 0 0 0 0 0 0 0.1 0"/>
<feBlend mode="normal" in2="BackgroundImageFix" result="effect1_dropShadow"/>
<feBlend mode="normal" in="SourceGraphic" in2="effect1_dropShadow" result="shape"/>
</filter>
<filter id="filter13_d" x="118.434" y="100.6" width="41.5664" height="49.6" filterUnits="userSpaceOnUse" color-interpolation-filters="sRGB">
<feFlood flood-opacity="0" result="BackgroundImageFix"/>
<feColorMatrix in="SourceAlpha" type="matrix" values="0 0 0 0 0 0 0 0 0 0 0 0 0 0 0 0 0 0 127 0"/>
<feOffset dx="2" dy="4"/>
<feGaussianBlur stdDeviation="8"/>
<feColorMatrix type="matrix" values="0 0 0 0 0 0 0 0 0 0 0 0 0 0 0 0 0 0 0.1 0"/>
<feBlend mode="normal" in2="BackgroundImageFix" result="effect1_dropShadow"/>
<feBlend mode="normal" in="SourceGraphic" in2="effect1_dropShadow" result="shape"/>
</filter>
</defs>
</svg>
