<svg width="320" height="230" viewBox="0 0 320 230" fill="none" xmlns="http://www.w3.org/2000/svg">
<path d="M226.066 21.3197C226.066 21.3197 137.566 -29.6803 90.0664 41.3197C85.0664 56.8197 73.5664 94.8197 37.5664 94.8197C23.0664 102.32 -65.9336 180.82 95.0664 206.32C162.066 208.82 331.566 231.82 314.066 89.8197C319.066 77.8197 337.066 27.3197 262.566 24.3197C254.566 28.8197 226.066 21.3197 226.066 21.3197Z" fill="#F2F2F2"/>
<path d="M242.829 209L174.761 208.688C166.574 208.651 159.969 202.006 160 193.844L160.724 23.722C160.761 15.5541 167.427 8.96347 175.62 9.00015L243.688 9.31196C251.876 9.34864 258.48 15.9943 258.45 24.1562L257.726 194.278C257.695 202.445 251.023 209.037 242.829 209Z" fill="#8F5F43"/>
<path d="M243.494 14.7453L230.335 14.684C228.567 14.6778 227.13 16.1677 227.124 18.0194L227.111 20.4105C227.105 22.2621 225.668 23.752 223.901 23.7459L198.248 23.6294C196.481 23.6233 195.062 22.1149 195.068 20.2633L195.081 17.8722C195.087 16.0206 193.662 14.5184 191.9 14.5061L187.271 14.4816L175.756 14.4265C170.039 14.4019 165.379 19.031 165.354 24.7636L164.651 191.288C164.627 197.02 169.238 201.686 174.955 201.711L242.693 202.023C248.411 202.048 253.071 197.418 253.095 191.686L253.798 25.1621C253.829 19.4357 249.213 14.7697 243.494 14.7453Z" fill="white"/>
<g filter="url(#filter0_d)">
<path d="M220.156 59.8837L218.348 58.0757C216.277 56.0048 212.867 56.0572 210.731 58.1929L183.11 85.8143C180.974 87.95 180.921 91.3601 182.992 93.4311L184.8 95.239C184.985 95.4239 185.29 95.4192 185.48 95.2286L220.145 60.5638C220.336 60.3731 220.341 60.0686 220.156 59.8837Z" fill="#390B12"/>
</g>
<g filter="url(#filter1_d)">
<path fill-rule="evenodd" clip-rule="evenodd" d="M199.562 110L187.835 98.2738C187.646 98.0845 187.647 97.7763 187.837 97.5856L222.502 62.9208C222.693 62.7302 223.001 62.7291 223.19 62.9185L234.917 74.6452C237.038 76.7661 237.026 80.2168 234.89 82.3525L207.269 109.974C205.133 112.11 201.683 112.121 199.562 110ZM205.65 100.621C206.26 100.011 206.263 99.0245 205.658 98.4186L204.56 97.3213C203.954 96.7154 202.968 96.7188 202.358 97.329L201.253 98.4338C200.643 99.044 200.64 100.03 201.246 100.636L202.343 101.733C202.949 102.339 203.935 102.336 204.545 101.726L205.65 100.621Z" fill="#390B12"/>
</g>
<g filter="url(#filter2_d)">
<g filter="url(#filter3_d)">
<path d="M195.667 159.007C195.667 157.626 195.294 156.507 194.833 156.507C194.373 156.507 194 157.626 194 159.007C194 160.388 194.373 161.507 194.833 161.507C195.294 161.507 195.667 160.388 195.667 159.007Z" fill="#390B12"/>
</g>
<g filter="url(#filter4_d)">
<path d="M233.59 129.841H184.41C181.426 129.841 179 132.449 179 135.559V136.507H239V135.559C239 132.449 236.574 129.841 233.59 129.841Z" fill="#390B12"/>
</g>
<g filter="url(#filter5_d)">
<path d="M198.177 163.174C199.869 163.175 201.393 162.146 202.029 160.574C202.665 159 202.286 157.197 201.071 156.016C199.856 154.834 198.048 154.51 196.5 155.197C198.175 157.459 198.175 160.556 196.5 162.818C197.028 163.053 197.599 163.174 198.177 163.174Z" fill="#390B12"/>
</g>
<g filter="url(#filter6_d)">
<path fill-rule="evenodd" clip-rule="evenodd" d="M184.41 170.674C181.426 170.674 179 168.131 179 165.099V147.341H239V165.099C239 168.131 236.574 170.674 233.59 170.674H184.41ZM194.743 153.272C193.697 152.597 192.484 152.24 191.244 152.24C188.454 152.24 185.968 154.034 185.047 156.712C184.126 159.391 184.972 162.369 187.155 164.136C189.339 165.903 192.383 166.072 194.743 164.559C197.493 166.325 201.1 165.778 203.223 163.274C205.345 160.769 205.345 157.062 203.223 154.558C201.1 152.054 197.493 151.507 194.743 153.272Z" fill="#390B12"/>
</g>
<g filter="url(#filter7_d)">
<path d="M179 139.007H239V145.674H179V139.007Z" fill="#390B12"/>
</g>
<g filter="url(#filter8_d)">
<path d="M191.489 163.174C192.067 163.174 192.638 163.053 193.167 162.818C191.491 160.555 191.491 157.458 193.167 155.196C191.618 154.51 189.811 154.835 188.596 156.016C187.381 157.198 187.002 159 187.638 160.573C188.273 162.146 189.797 163.174 191.489 163.174Z" fill="#390B12"/>
</g>
</g>
<g filter="url(#filter9_d)">
<path d="M66.6241 199.8C66.6241 199.8 48.5401 204.619 47.8143 204.865C46.7252 205.234 46.9084 209.077 48.6033 209.017C49.4053 208.989 62.4937 209.486 64.1475 209.387C65.8013 209.287 70.2517 207.594 70.2517 207.594L66.6241 199.8Z" fill="#390B12"/>
</g>
<path fill-rule="evenodd" clip-rule="evenodd" d="M59.05 206.2C58.9476 206.211 58.809 205.364 58.1489 204.48C57.5049 203.589 56.639 203.07 56.7027 203.006C56.7384 202.944 57.7541 203.395 58.4457 204.346C59.1479 205.292 59.1362 206.207 59.05 206.2Z" fill="#1A2E35"/>
<path fill-rule="evenodd" clip-rule="evenodd" d="M60.6596 205.4C60.5797 205.414 60.4153 204.622 59.9819 203.748C59.5568 202.869 59.037 202.261 59.0955 202.204C59.1407 202.149 59.7762 202.696 60.2251 203.622C60.6802 204.544 60.7293 205.395 60.6596 205.4Z" fill="#1A2E35"/>
<path fill-rule="evenodd" clip-rule="evenodd" d="M62.9526 205.399C62.8575 205.395 62.93 204.593 62.5121 203.705C62.1118 202.81 61.4211 202.263 61.4869 202.205C61.5248 202.144 62.3688 202.639 62.8056 203.607C63.2542 204.57 63.0288 205.423 62.9526 205.399Z" fill="#1A2E35"/>
<path fill-rule="evenodd" clip-rule="evenodd" d="M62.4696 202.706C62.4378 202.714 62.2809 202.173 62.2797 201.263C62.2809 200.81 62.3284 200.267 62.459 199.681C62.5239 199.389 62.6113 199.086 62.7224 198.782C62.7796 198.628 62.8453 198.45 63.006 198.306C63.171 198.144 63.4716 198.178 63.6141 198.339C63.7765 198.494 63.8278 198.712 63.8503 198.887C63.8681 199.065 63.877 199.232 63.8732 199.4C63.869 199.734 63.8295 200.054 63.7638 200.349C63.6332 200.941 63.422 201.438 63.2189 201.831C62.8063 202.618 62.4489 203.021 62.4234 202.999C62.3827 202.968 62.6795 202.516 63.0332 201.725C63.207 201.33 63.3885 200.844 63.4975 200.283C63.5522 200.004 63.5827 199.706 63.5827 199.397C63.5751 199.099 63.5789 198.727 63.4199 198.584C63.3355 198.507 63.2592 198.502 63.1854 198.563C63.1074 198.628 63.0417 198.761 62.9912 198.902C62.8818 199.191 62.7923 199.478 62.7232 199.757C62.5837 200.315 62.5163 200.833 62.4887 201.271C62.437 202.149 62.518 202.698 62.4696 202.706Z" fill="#1A2E35"/>
<path fill-rule="evenodd" clip-rule="evenodd" d="M62.2798 203.154C62.2725 203.127 62.6572 203.004 63.3074 203C63.6314 203 64.0202 203.031 64.4384 203.129C64.6445 203.181 64.8662 203.231 65.0894 203.353C65.3077 203.455 65.5363 203.737 65.4497 204.03C65.381 204.305 65.1272 204.498 64.8754 204.559C64.6216 204.625 64.3759 204.601 64.1606 204.557C63.7233 204.464 63.3833 204.263 63.1254 204.083C62.6144 203.711 62.3652 203.426 62.3843 203.405C62.4126 203.373 62.7144 203.617 63.2334 203.94C63.4944 204.095 63.8214 204.263 64.2106 204.333C64.4045 204.368 64.6132 204.378 64.8017 204.326C64.9895 204.278 65.1452 204.145 65.1898 203.973C65.2356 203.808 65.1272 203.656 64.9528 203.56C64.7823 203.461 64.5709 203.405 64.3751 203.35C63.9809 203.245 63.6119 203.197 63.3013 203.176C62.6774 203.135 62.2866 203.194 62.2798 203.154Z" fill="#1A2E35"/>
<path fill-rule="evenodd" clip-rule="evenodd" d="M56.5376 206.999C56.4345 206.989 56.5366 206.179 56.1277 205.291C55.7382 204.396 55.0439 203.882 55.1092 203.809C55.1435 203.731 56.0132 204.18 56.45 205.171C56.8987 206.158 56.6213 207.033 56.5376 206.999Z" fill="#1A2E35"/>
<path fill-rule="evenodd" clip-rule="evenodd" d="M68.6571 207.805C68.6652 207.824 68.4197 207.939 67.9674 208.131C67.5092 208.305 66.8387 208.549 65.983 208.749C64.2774 209.181 61.8458 209.426 59.1742 209.398C56.5018 209.368 54.0937 209.245 52.3472 209.176C51.5208 209.132 50.8282 209.095 50.2807 209.066C49.793 209.033 49.5236 209.005 49.5244 208.984C49.5248 208.964 49.7956 208.952 50.2845 208.949C50.832 208.953 51.526 208.958 52.3536 208.964C54.1599 208.999 56.5415 209.046 59.1759 209.098C61.8351 209.126 64.2372 208.917 65.936 208.543C67.6412 208.19 68.6366 207.749 68.6571 207.805Z" fill="#1A2E35"/>
<path fill-rule="evenodd" clip-rule="evenodd" d="M69.454 207.747C69.4294 207.789 68.9354 207.498 68.1005 207.129C67.2761 206.773 66.0398 206.346 64.6825 206.557C63.3212 206.767 62.3562 207.688 61.7281 208.327C61.0944 208.99 60.7237 209.429 60.687 209.398C60.6597 209.376 60.9677 208.893 61.5711 208.181C61.8756 207.83 62.2628 207.422 62.7689 207.053C63.2693 206.683 63.9134 206.368 64.6349 206.257C66.0913 206.032 67.3743 206.522 68.1909 206.935C69.0197 207.361 69.4722 207.717 69.454 207.747Z" fill="#1A2E35"/>
<path fill-rule="evenodd" clip-rule="evenodd" d="M51.1912 208.599C51.1565 208.575 51.3193 208.318 51.4692 207.865C51.6205 207.416 51.7368 206.751 51.6087 206.041C51.4797 205.331 51.1378 204.751 50.8397 204.387C50.5407 204.018 50.2992 203.838 50.3233 203.803C50.3379 203.777 50.6228 203.905 50.9751 204.262C51.3252 204.612 51.7231 205.222 51.8635 205.993C52.0025 206.764 51.8443 207.479 51.6397 207.933C51.4355 208.395 51.214 208.618 51.1912 208.599Z" fill="#1A2E35"/>
<g filter="url(#filter10_d)">
<path d="M85.3677 199.8C85.3677 199.8 103.678 202.621 104.419 202.788C105.532 203.04 105.821 207.026 104.152 207.166C103.363 207.232 90.5962 209.302 88.9634 209.395C87.3301 209.489 82.2098 208.13 82.2098 208.13L85.3677 199.8Z" fill="#390B12"/>
</g>
<path fill-rule="evenodd" clip-rule="evenodd" d="M93.4401 206.2C93.5256 206.202 93.5325 205.195 93.9623 204.089C94.3779 202.975 95.0212 202.273 94.9611 202.205C94.924 202.137 94.1495 202.776 93.7028 203.965C93.2464 205.148 93.3706 206.217 93.4401 206.2Z" fill="#1A2E35"/>
<path fill-rule="evenodd" clip-rule="evenodd" d="M91.0437 205.4C91.1473 205.404 91.2405 204.638 91.6632 203.762C92.0754 202.884 92.6484 202.25 92.5653 202.203C92.4997 202.156 91.7699 202.746 91.3342 203.672C90.8899 204.595 90.954 205.404 91.0437 205.4Z" fill="#1A2E35"/>
<path fill-rule="evenodd" clip-rule="evenodd" d="M89.5331 205.399C89.593 205.381 89.4756 204.433 89.6615 203.321C89.8354 202.204 90.2249 201.466 90.178 201.405C90.1486 201.337 89.6575 202.032 89.4666 203.24C89.268 204.445 89.4868 205.436 89.5331 205.399Z" fill="#1A2E35"/>
<path fill-rule="evenodd" clip-rule="evenodd" d="M89.3159 202.754C89.3438 202.758 89.4265 202.279 89.3435 201.503C89.3003 201.117 89.2094 200.659 89.0445 200.174C88.9622 199.932 88.86 199.684 88.7371 199.437C88.6741 199.311 88.6023 199.168 88.4527 199.063C88.2972 198.943 88.0453 199.005 87.9395 199.159C87.8159 199.309 87.7927 199.501 87.7902 199.653C87.7912 199.807 87.7992 199.949 87.8181 200.092C87.8525 200.376 87.9159 200.645 87.9989 200.889C88.1649 201.38 88.39 201.78 88.5987 202.093C89.022 202.717 89.363 203.02 89.3822 202.999C89.4138 202.968 89.1199 202.616 88.7469 201.982C88.5621 201.663 88.3631 201.269 88.2189 200.804C88.1464 200.572 88.0931 200.321 88.0641 200.058C88.0431 199.803 88.0054 199.486 88.1272 199.346C88.1917 199.272 88.2559 199.258 88.324 199.301C88.3961 199.349 88.4643 199.455 88.5201 199.569C88.64 199.804 88.7422 200.038 88.827 200.269C88.997 200.728 89.1025 201.163 89.1662 201.533C89.292 202.276 89.2742 202.753 89.3159 202.754Z" fill="#1A2E35"/>
<path fill-rule="evenodd" clip-rule="evenodd" d="M89.3846 202.29C89.3885 202.253 88.9761 202.144 88.3057 202.237C87.9725 202.284 87.5763 202.386 87.1584 202.582C86.9526 202.683 86.7309 202.783 86.5176 202.982C86.3063 203.154 86.1084 203.57 86.2362 203.953C86.3431 204.316 86.6304 204.539 86.8979 204.582C87.1679 204.634 87.4176 204.565 87.6337 204.473C88.0714 204.28 88.3951 203.958 88.637 203.675C89.1135 203.094 89.3323 202.67 89.3102 202.645C89.2769 202.606 88.9983 202.982 88.5068 203.497C88.2582 203.747 87.944 204.023 87.5525 204.177C87.3574 204.253 87.1441 204.299 86.9427 204.256C86.7432 204.219 86.5651 204.063 86.4966 203.837C86.4274 203.62 86.5184 203.399 86.6854 203.242C86.8481 203.083 87.0582 202.974 87.2529 202.871C87.6452 202.669 88.0184 202.549 88.3358 202.473C88.9726 202.324 89.383 202.345 89.3846 202.29Z" fill="#1A2E35"/>
<path fill-rule="evenodd" clip-rule="evenodd" d="M95.9325 206.199C95.9954 206.178 95.8665 205.416 96.0472 204.526C96.2148 203.631 96.602 203.069 96.5556 203.006C96.5283 202.937 96.0273 203.455 95.8383 204.446C95.6413 205.433 95.8833 206.239 95.9325 206.199Z" fill="#1A2E35"/>
<path fill-rule="evenodd" clip-rule="evenodd" d="M83.8043 207.956C83.7987 207.974 84.0558 208.046 84.5276 208.162C85.0032 208.262 85.6974 208.4 86.5705 208.483C88.3147 208.675 90.7577 208.634 93.4061 208.338C96.0558 208.041 98.4318 207.693 100.157 207.456C100.973 207.335 101.656 207.233 102.196 207.152C102.676 207.075 102.94 207.024 102.937 207.007C102.934 206.989 102.664 207.007 102.178 207.054C101.635 207.113 100.947 207.188 100.126 207.277C98.337 207.491 95.9781 207.773 93.3694 208.085C90.7329 208.379 88.3232 208.447 86.5923 208.303C84.8584 208.179 83.8184 207.907 83.8043 207.956Z" fill="#1A2E35"/>
<path fill-rule="evenodd" clip-rule="evenodd" d="M83.0078 208.864C83.0363 208.899 83.4863 208.584 84.2597 208.163C85.0246 207.753 86.1844 207.235 87.5361 207.278C88.8924 207.319 89.9432 208.042 90.6322 208.548C91.3285 209.075 91.7427 209.43 91.7751 209.398C91.7989 209.374 91.4414 208.973 90.7686 208.4C90.4298 208.117 90.0037 207.793 89.466 207.516C88.9333 207.238 88.2669 207.024 87.548 207.002C86.0975 206.959 84.8993 207.538 84.1489 207.997C83.3879 208.471 82.9865 208.84 83.0078 208.864Z" fill="#1A2E35"/>
<path fill-rule="evenodd" clip-rule="evenodd" d="M141.446 124.43L141.879 123.555C141.879 123.555 141.837 123.044 141.628 122.675C141.418 122.306 140.674 122.336 140.674 122.336L140.786 122.091C140.946 121.74 140.913 121.33 140.694 121.014C140.661 120.966 140.625 120.917 140.586 120.869C140.283 120.495 139.644 120.387 139.644 120.387C139.644 120.387 140.067 119.565 139.88 119.221C139.63 118.765 138.732 118.277 138.071 118.501C137.353 118.744 135.831 119.491 134.779 120.083C134.364 120.317 133.842 120.123 133.676 119.674C133.36 118.819 132.801 117.516 132.069 116.626C131.271 115.656 130.52 115.734 130.085 115.904C129.876 115.985 129.79 116.237 129.906 116.43C130.238 116.982 130.888 118.086 131.061 118.553C131.268 119.112 131.5 123.333 131.5 123.333L130.354 125.535L118.77 143.975C118.77 143.975 101.299 132.098 101.368 131.803L100.545 145.419L113.714 154.239C116.002 155.771 118.846 156.202 121.478 155.414C124.097 154.631 126.241 152.722 127.336 150.199L136.197 130.804L137.272 129.218L141.446 126.521C141.446 126.521 142.127 125.311 141.979 124.957C141.831 124.603 141.446 124.43 141.446 124.43Z" fill="#FFBF9D"/>
<path fill-rule="evenodd" clip-rule="evenodd" d="M139.608 120.224C139.61 120.227 139.584 120.252 139.531 120.297C139.468 120.348 139.391 120.412 139.297 120.49C139.079 120.663 138.785 120.897 138.425 121.183C138.051 121.476 137.611 121.821 137.123 122.202C136.874 122.389 136.63 122.603 136.337 122.787C136.05 122.964 135.66 123.085 135.302 122.926C135.126 122.847 134.993 122.693 134.918 122.523C134.843 122.352 134.817 122.166 134.827 121.988C134.846 121.624 135.037 121.316 135.24 121.078C135.449 120.837 135.681 120.648 135.89 120.469C136.1 120.29 136.296 120.123 136.477 119.97C136.829 119.674 137.118 119.431 137.331 119.252C137.426 119.176 137.503 119.113 137.566 119.062C137.621 119.019 137.65 118.998 137.652 119C137.655 119.003 137.629 119.029 137.579 119.077C137.519 119.132 137.446 119.2 137.355 119.283C137.148 119.468 136.866 119.718 136.522 120.025C136.344 120.181 136.151 120.351 135.943 120.533C135.735 120.716 135.509 120.906 135.309 121.14C135.114 121.372 134.94 121.661 134.925 121.993C134.902 122.316 135.032 122.691 135.343 122.834C135.494 122.903 135.668 122.913 135.83 122.883C135.994 122.854 136.147 122.785 136.288 122.7C136.568 122.527 136.819 122.311 137.069 122.127C137.56 121.752 138.005 121.414 138.382 121.126C138.75 120.851 139.052 120.624 139.273 120.458C139.372 120.386 139.453 120.328 139.519 120.281C139.575 120.241 139.606 120.222 139.608 120.224Z" fill="#FF9A6C"/>
<path fill-rule="evenodd" clip-rule="evenodd" d="M141.203 122.201C141.207 122.207 141.136 122.269 141.004 122.376C140.872 122.482 140.677 122.631 140.434 122.81C139.947 123.169 139.261 123.646 138.48 124.133C138.284 124.253 138.096 124.377 137.894 124.47C137.695 124.563 137.478 124.618 137.27 124.595C136.851 124.542 136.552 124.219 136.463 123.909C136.37 123.591 136.444 123.319 136.518 123.162C136.556 123.082 136.597 123.027 136.626 122.991C136.656 122.957 136.674 122.941 136.676 122.944C136.684 122.95 136.62 123.023 136.557 123.181C136.497 123.336 136.442 123.596 136.536 123.882C136.626 124.162 136.906 124.448 137.281 124.489C137.465 124.507 137.662 124.456 137.851 124.366C138.041 124.277 138.229 124.154 138.424 124.033C139.203 123.548 139.894 123.084 140.391 122.743C140.625 122.583 140.822 122.447 140.98 122.339C141.119 122.244 141.198 122.194 141.203 122.201Z" fill="#FF9A6C"/>
<path fill-rule="evenodd" clip-rule="evenodd" d="M141.203 123.801C141.206 123.808 141.139 123.849 141.015 123.918C140.872 123.995 140.696 124.089 140.488 124.2C140.041 124.435 139.421 124.751 138.733 125.095C138.561 125.18 138.395 125.271 138.22 125.333C138.045 125.396 137.857 125.422 137.686 125.379C137.515 125.34 137.362 125.227 137.288 125.076C137.214 124.926 137.205 124.765 137.227 124.629C137.277 124.35 137.436 124.183 137.538 124.086C137.646 123.988 137.716 123.952 137.719 123.956C137.725 123.964 137.662 124.012 137.565 124.116C137.472 124.219 137.332 124.388 137.297 124.64C137.281 124.764 137.294 124.908 137.361 125.034C137.426 125.16 137.554 125.252 137.706 125.284C137.858 125.319 138.025 125.296 138.189 125.235C138.354 125.176 138.518 125.085 138.691 125C139.379 124.656 140.004 124.35 140.458 124.133C140.671 124.034 140.852 123.949 140.999 123.881C141.127 123.823 141.2 123.794 141.203 123.801Z" fill="#FF9A6C"/>
<path fill-rule="evenodd" clip-rule="evenodd" d="M142 125.669C142.003 125.68 141.732 125.732 141.292 125.807C140.851 125.882 140.242 125.98 139.567 126.082C139.398 126.108 139.234 126.132 139.074 126.157C138.915 126.18 138.756 126.204 138.597 126.199C138.44 126.195 138.287 126.158 138.176 126.086C138.061 126.016 138.009 125.908 138.014 125.817C138.034 125.629 138.185 125.518 138.286 125.462C138.393 125.405 138.467 125.397 138.468 125.401C138.473 125.408 138.405 125.427 138.313 125.488C138.226 125.546 138.1 125.66 138.095 125.817C138.096 125.894 138.14 125.976 138.235 126.032C138.33 126.089 138.461 126.12 138.601 126.121C138.742 126.124 138.893 126.1 139.052 126.075C139.212 126.05 139.375 126.025 139.544 125.999C140.219 125.897 140.832 125.808 141.276 125.748C141.721 125.688 141.997 125.657 142 125.669Z" fill="#FF9A6C"/>
<path fill-rule="evenodd" clip-rule="evenodd" d="M137.217 125.107C137.207 125.169 136.683 124.817 136.013 124.883C135.342 124.934 134.838 125.377 134.826 125.318C134.809 125.281 135.311 124.738 136.008 124.684C136.704 124.616 137.231 125.067 137.217 125.107Z" fill="#FF9A6C"/>
<path d="M74.1988 121.145C74.1988 121.145 68.2913 116.097 69.6605 112.62C71.0293 109.143 74.8185 107.418 76.6828 101.097C78.1723 96.0461 87.047 86.3169 97.5622 93.6305C97.5622 93.6305 101.121 93.0615 103.147 94.7043C105.172 96.347 105.658 99.6253 106.518 103.411C107.843 109.245 108.568 113.729 106.004 116.58C103.44 119.43 102.505 120.202 102.642 123.446C102.821 127.68 104.663 127.113 103.074 130.2L94.254 127.283L94.1627 124.823L93.2694 127.138L88.1375 125.268L74.1988 121.145Z" fill="#272422"/>
<path d="M103.944 99.8C103.38 101.109 103.842 102.621 104.378 103.942C104.913 105.263 105.534 106.663 105.263 108.064C104.783 110.548 101.733 111.932 101.395 114.439C101.214 115.783 101.881 117.15 101.623 118.481C101.374 119.768 100.308 120.738 99.18 121.385C98.0517 122.033 96.8009 122.463 95.7398 123.219C95.7398 123.219 93.4052 125.154 89.3846 121.963" fill="#272422"/>
<path fill-rule="evenodd" clip-rule="evenodd" d="M87.1306 96.6579C86.0236 96.3983 84.903 97.0333 84.5508 98.1189L76.0125 126.588C74.9099 129.917 79.0795 133.472 82.6371 134.631C86.2301 135.801 86.9573 134.086 88.0994 130.951C90.0083 125.714 90.6904 123.737 90.6822 123.767C90.6822 123.767 95.4491 124.59 98.4271 119.009C99.9077 116.234 101.428 111.366 102.543 107.343C103.547 103.722 102.715 98.5577 99.0704 97.7042L87.1306 96.6579Z" fill="#FFBF9D"/>
<path fill-rule="evenodd" clip-rule="evenodd" d="M99.7157 110.432C99.5917 110.855 99.1488 111.094 98.7261 110.965C98.3043 110.837 98.0623 110.392 98.1863 109.968C98.3103 109.546 98.7536 109.306 99.175 109.435C99.5977 109.563 99.8398 110.01 99.7157 110.432Z" fill="#1A2E35"/>
<path fill-rule="evenodd" clip-rule="evenodd" d="M100.513 109.395C100.378 109.468 99.9263 108.775 99.0627 108.462C98.2045 108.137 97.4168 108.372 97.3601 108.227C97.3303 108.161 97.4972 108 97.8429 107.89C98.1835 107.779 98.7138 107.744 99.2506 107.943C99.7869 108.142 100.17 108.515 100.36 108.822C100.554 109.132 100.578 109.363 100.513 109.395Z" fill="#1A2E35"/>
<path fill-rule="evenodd" clip-rule="evenodd" d="M91.7436 108.032C91.6196 108.455 91.1767 108.694 90.7539 108.565C90.3324 108.437 90.0899 107.992 90.2144 107.568C90.3384 107.146 90.7814 106.906 91.2033 107.035C91.626 107.163 91.8677 107.61 91.7436 108.032Z" fill="#1A2E35"/>
<path fill-rule="evenodd" clip-rule="evenodd" d="M92.5413 106.995C92.4055 107.068 91.9533 106.375 91.0906 106.062C90.2325 105.737 89.4447 105.972 89.388 105.827C89.3583 105.761 89.5238 105.6 89.8708 105.49C90.2114 105.379 90.7418 105.344 91.2785 105.543C91.8148 105.742 92.1984 106.114 92.3876 106.422C92.5815 106.732 92.6062 106.963 92.5413 106.995Z" fill="#1A2E35"/>
<path fill-rule="evenodd" clip-rule="evenodd" d="M93.3709 113.679C93.3832 113.633 93.9323 113.719 94.8095 113.893C95.0299 113.942 95.2464 113.968 95.3325 113.843C95.4363 113.714 95.427 113.468 95.4098 113.201C95.3886 112.649 95.367 112.071 95.3436 111.465C95.272 109 95.2985 107.002 95.4041 107C95.5088 106.998 95.6528 108.994 95.7248 111.459C95.7371 112.065 95.7499 112.643 95.761 113.195C95.7575 113.45 95.8003 113.755 95.5808 114.02C95.4681 114.151 95.272 114.209 95.1227 114.199C94.9721 114.193 94.851 114.156 94.7437 114.128C93.8828 113.893 93.3576 113.725 93.3709 113.679Z" fill="#1A2E35"/>
<path fill-rule="evenodd" clip-rule="evenodd" d="M90.979 123.971C90.979 123.971 86.9174 122.82 83.8042 119C83.8042 119 84.3876 123.863 90.4897 125.4L90.979 123.971Z" fill="#FF9A6C"/>
<path fill-rule="evenodd" clip-rule="evenodd" d="M92.5392 115.923C92.3988 115.49 92.0083 115.144 91.5385 115.035C91.2129 114.96 90.8427 115.001 90.5631 115.19C90.2832 115.379 90.1171 115.727 90.2057 116.03C90.3054 116.371 90.6916 116.576 91.071 116.597C91.4507 116.619 91.8269 116.495 92.1878 116.368C92.2879 116.332 92.3903 116.295 92.469 116.226C92.5476 116.157 92.5971 116.049 92.5618 115.957" fill="#FF9A6C"/>
<path fill-rule="evenodd" clip-rule="evenodd" d="M93.3588 104.54C93.2304 104.698 92.3977 104.5 91.3721 104.448C90.3478 104.382 89.4834 104.484 89.3902 104.314C89.3497 104.233 89.5322 104.094 89.9019 103.975C90.269 103.857 90.8269 103.773 91.4414 103.808C92.0558 103.843 92.5889 103.989 92.9255 104.148C93.2656 104.307 93.4159 104.465 93.3588 104.54Z" fill="#1A2E35"/>
<path fill-rule="evenodd" clip-rule="evenodd" d="M101.293 106.969C101.079 107.117 100.488 106.701 99.7187 106.443C98.9556 106.159 98.2589 106.119 98.1603 105.86C98.1194 105.736 98.2726 105.567 98.6052 105.468C98.9338 105.368 99.443 105.365 99.97 105.551C100.497 105.737 100.912 106.068 101.129 106.362C101.351 106.657 101.389 106.893 101.293 106.969Z" fill="#1A2E35"/>
<path d="M77.4265 115.59C79.0018 110.236 80.5771 104.882 82.1523 99.5278C82.4756 98.4298 82.8484 97.2562 83.7492 96.5653C84.6009 95.9126 85.74 95.8349 86.8071 95.8126C91.4081 95.716 96.0205 96.1784 100.514 97.1863C100.729 98.2765 99.8007 99.311 98.7619 99.6652C97.7236 100.019 96.5956 99.895 95.5001 99.9065C94.4046 99.9177 93.214 100.118 92.4722 100.936C91.6831 101.806 91.6057 103.152 90.861 104.061C89.5789 105.626 86.8972 105.296 85.6245 106.868C84.6614 108.056 84.9212 109.795 84.6039 111.299C84.2442 113.005 84.2442 113.005 82.9296 115.513C82.1227 117.053 84.1533 119.99 82.1303 123.8L78.2055 122.666L79.9288 116.782L77.5936 122.301L77.4265 115.59Z" fill="#272422"/>
<path fill-rule="evenodd" clip-rule="evenodd" d="M90.8184 113.409C90.9168 113.461 90.8663 113.691 90.8603 114.022C90.8502 114.351 90.9012 114.798 91.1344 115.207C91.3701 115.616 91.7437 115.909 92.0451 116.088C92.3465 116.272 92.5822 116.365 92.5731 116.469C92.5686 116.561 92.2864 116.656 91.8326 116.56C91.3893 116.469 90.7835 116.144 90.4362 115.542C90.0919 114.938 90.1444 114.298 90.3156 113.913C90.4872 113.518 90.7326 113.359 90.8184 113.409Z" fill="#1A2E35"/>
<path fill-rule="evenodd" clip-rule="evenodd" d="M89.3845 100.601C89.3874 100.608 89.3141 100.651 89.1722 100.727C89.0282 100.796 88.8229 100.913 88.5657 101.076C88.0556 101.402 87.3471 101.952 86.6822 102.83C86.0251 103.703 85.4002 104.913 85.1977 106.374C85.0903 107.102 85.1241 107.875 85.2138 108.679C85.2952 109.481 85.4195 110.323 85.3582 111.201C85.3282 111.638 85.2413 112.07 85.0957 112.474C84.9468 112.876 84.7464 113.24 84.5489 113.59C84.1469 114.285 83.7775 114.961 83.6873 115.688C83.5812 116.41 83.6528 117.116 83.7384 117.767C83.8256 118.421 83.9367 119.029 83.9803 119.598C84.077 120.732 83.8992 121.675 83.603 122.238C83.4635 122.524 83.3006 122.71 83.1949 122.835C83.0768 122.949 83.013 123.005 83.0081 123C82.9871 122.982 83.2677 122.763 83.5281 122.199C83.7931 121.641 83.9428 120.724 83.8297 119.612C83.7775 119.057 83.6581 118.452 83.5627 117.794C83.4693 117.138 83.3866 116.416 83.4919 115.658C83.6532 114.078 85.1154 112.921 85.1447 111.184C85.2039 110.341 85.0846 109.509 85.0052 108.702C84.9175 107.896 84.8863 107.092 85.0027 106.344C85.222 104.841 85.8782 103.609 86.5641 102.732C87.2582 101.847 87.9938 101.308 88.5238 101.001C88.7908 100.848 89.0035 100.743 89.1545 100.686C89.3026 100.623 89.3816 100.594 89.3845 100.601Z" fill="#1A2E35"/>
<path fill-rule="evenodd" clip-rule="evenodd" d="M109.314 124.674C109.317 124.677 109.292 124.697 109.24 124.734C109.187 124.768 109.112 124.827 109.003 124.885C108.789 125.01 108.452 125.167 107.988 125.282C107.526 125.396 106.929 125.449 106.255 125.342C105.585 125.236 104.828 124.941 104.202 124.363C103.581 123.792 103.099 122.952 102.972 121.981C102.907 121.499 102.927 120.984 103.075 120.481C103.223 119.979 103.478 119.495 103.811 119.053C104.477 118.163 105.406 117.444 106.277 116.642C106.712 116.24 107.138 115.814 107.491 115.329C107.844 114.844 108.122 114.299 108.323 113.722C108.727 112.563 108.821 111.352 108.793 110.197C108.761 109.039 108.608 107.923 108.431 106.869C108.068 104.761 107.513 102.903 106.943 101.382C106.376 99.8578 105.795 98.67 105.378 97.8584C105.168 97.4528 105 97.1399 104.883 96.9292C104.769 96.7172 104.712 96.6039 104.72 96.6001C104.726 96.5962 104.796 96.7022 104.924 96.9074C105.055 97.1113 105.235 97.4181 105.458 97.8186C105.901 98.6205 106.508 99.8035 107.097 101.328C107.69 102.849 108.266 104.714 108.642 106.836C108.826 107.896 108.984 109.016 109.02 110.191C109.052 111.362 108.959 112.599 108.543 113.793C108.336 114.388 108.048 114.953 107.681 115.456C107.314 115.96 106.876 116.394 106.435 116.8C105.551 117.607 104.631 118.316 103.985 119.173C103.661 119.598 103.416 120.059 103.272 120.533C103.128 121.008 103.105 121.497 103.163 121.959C103.276 122.886 103.729 123.697 104.317 124.251C104.908 124.81 105.63 125.106 106.278 125.219C106.93 125.335 107.512 125.296 107.968 125.197C108.887 124.993 109.299 124.642 109.314 124.674Z" fill="#1A2E35"/>
<path fill-rule="evenodd" clip-rule="evenodd" d="M72.6437 118.999C72.6256 118.96 73.2206 118.936 73.9985 118.305C74.7595 117.687 75.6027 116.38 75.7931 114.572C75.9027 113.674 75.8854 112.677 75.866 111.606C75.8542 110.538 75.8319 109.368 76.1252 108.178C76.2659 107.585 76.4842 106.992 76.8049 106.437C77.1293 105.888 77.5709 105.382 78.1343 105.031C79.2767 104.309 80.6778 104.344 81.9217 103.896C82.55 103.681 83.0902 103.288 83.5348 102.808C83.981 102.328 84.3346 101.771 84.6759 101.221C85.3492 100.126 85.9961 98.9758 87.0238 98.297C87.5274 97.9565 88.0992 97.7671 88.6554 97.685C89.2137 97.5969 89.759 97.5969 90.2807 97.6121C91.3236 97.6485 92.2877 97.7219 93.1566 97.589C94.9037 97.3424 96.1876 96.5962 96.9811 96.0143C97.3839 95.722 97.6654 95.4527 97.8605 95.2764C97.9465 95.1922 98.0173 95.1231 98.075 95.0666C98.1243 95.0202 98.1509 94.9976 98.1538 95.0002C98.1538 95.0002 97.8239 95.4619 97.0317 96.0851C96.2458 96.6948 94.9559 97.4748 93.1781 97.7476C92.2919 97.8931 91.3097 97.8275 90.2761 97.7997C89.255 97.778 88.0971 97.8149 87.1334 98.472C86.1634 99.116 85.5309 100.236 84.8575 101.339C84.5153 101.893 84.1572 102.462 83.6928 102.963C83.2335 103.462 82.6516 103.885 81.9942 104.109C80.6947 104.57 79.3163 104.54 78.246 105.22C77.1736 105.888 76.5971 107.091 76.3211 108.229C76.0304 109.384 76.0439 110.535 76.0481 111.603C76.0594 112.674 76.0683 113.681 75.9469 114.593C75.7329 116.436 74.8471 117.763 74.0511 118.375C73.6504 118.685 73.2867 118.844 73.0348 118.917C72.9104 118.96 72.8093 118.97 72.7444 118.986C72.6787 118.998 72.6446 119.003 72.6437 118.999Z" fill="#375A64"/>
<path fill-rule="evenodd" clip-rule="evenodd" d="M76.6295 101.032C76.6389 101.008 76.9152 101.174 77.4701 101.257C78.0181 101.341 78.8573 101.294 79.7685 100.881C80.684 100.476 81.5952 99.6822 82.5201 98.731C82.9885 98.2584 83.4756 97.7507 84.0308 97.2726C84.5861 96.7979 85.2158 96.3451 85.9503 96.0522C86.6849 95.7567 87.4594 95.6557 88.1939 95.6425C88.9305 95.6303 89.6344 95.6967 90.3008 95.7588C90.9667 95.8218 91.5982 95.8877 92.1871 95.8928C92.7764 95.9008 93.3257 95.8531 93.8171 95.7605C94.8019 95.5796 95.5403 95.1945 95.9559 94.8254C96.3795 94.4619 96.5375 94.1846 96.5588 94.2006C96.5652 94.2048 96.5256 94.2716 96.4434 94.3968C96.4051 94.4614 96.3485 94.5341 96.2752 94.6162C96.2075 94.7024 96.1202 94.7946 96.0133 94.8892C95.6046 95.2883 94.8522 95.7085 93.8477 95.9135C93.3465 96.0179 92.7866 96.0758 92.1862 96.075C91.5846 96.0775 90.9484 96.0179 90.282 95.9609C89.6165 95.9042 88.9186 95.8433 88.1982 95.8581C87.4798 95.8742 86.7342 95.974 86.0329 96.2564C84.6218 96.8351 83.6084 97.9468 82.6653 98.8739C81.7294 99.82 80.7862 100.623 79.832 101.023C78.8846 101.431 78.0142 101.455 77.4556 101.341C77.1724 101.291 76.9659 101.203 76.8279 101.146C76.6938 101.078 76.6261 101.039 76.6295 101.032Z" fill="#375A64"/>
<path fill-rule="evenodd" clip-rule="evenodd" d="M107.413 113.4C107.385 113.389 107.561 113.12 107.612 112.567C107.675 112.019 107.52 111.198 107.032 110.355C106.562 109.493 105.686 108.745 104.799 107.811C104.361 107.34 103.919 106.798 103.615 106.129C103.309 105.463 103.159 104.702 103.11 103.929C103.016 102.375 103.263 100.922 103.231 99.6054C103.223 98.2931 102.928 97.1039 102.335 96.3409C101.764 95.5622 101.051 95.1936 100.549 95.1074C100.039 95.0133 99.7512 95.1162 99.7483 95.086C99.7471 95.0781 99.8167 95.0584 99.953 95.0277C100.09 95.0023 100.297 94.9844 100.561 95.0199C101.087 95.0816 101.842 95.4423 102.452 96.2394C103.086 97.022 103.41 98.2664 103.427 99.6011C103.469 100.944 103.228 102.399 103.322 103.913C103.369 104.666 103.513 105.397 103.801 106.032C104.087 106.668 104.509 107.195 104.937 107.663C105.802 108.59 106.69 109.37 107.16 110.272C107.646 111.15 107.785 112.012 107.694 112.577C107.656 112.861 107.581 113.07 107.522 113.205C107.456 113.337 107.419 113.404 107.413 113.4Z" fill="#375A64"/>
<path fill-rule="evenodd" clip-rule="evenodd" d="M70.426 115.799C70.4223 115.806 70.3313 115.755 70.159 115.651C69.9925 115.54 69.7564 115.354 69.509 115.059C69.0171 114.488 68.4893 113.372 68.7083 111.973C68.7747 111.631 68.8861 111.279 69.0646 110.94C69.2545 110.607 69.504 110.297 69.8002 110.017C70.4031 109.465 71.1728 109.061 71.9705 108.663C72.7641 108.263 73.616 107.847 74.289 107.167C74.9703 106.492 75.3479 105.531 75.6011 104.535C75.854 103.533 76.0267 102.521 76.3509 101.581C76.6671 100.642 77.0906 99.7804 77.562 99.0067C78.5045 97.4534 79.6619 96.2701 80.7354 95.4359C81.8089 94.5933 82.7976 94.0885 83.4944 93.7943C83.8394 93.637 84.1211 93.5503 84.3096 93.4861C84.4986 93.4231 84.5988 93.3939 84.6013 93.4011C84.61 93.4256 84.2099 93.552 83.5282 93.8729C82.8469 94.1887 81.8794 94.71 80.8301 95.5585C79.7808 96.3986 78.6514 97.5773 77.7323 99.1124C77.2733 99.8776 76.8603 100.727 76.5524 101.651C76.237 102.572 76.0676 103.573 75.8114 104.591C75.5552 105.6 75.1626 106.606 74.44 107.319C73.7283 108.032 72.8538 108.449 72.059 108.845C71.2583 109.237 70.5044 109.628 69.9212 110.153C69.6346 110.418 69.3938 110.712 69.2111 111.023C69.0384 111.342 68.9282 111.675 68.8594 112.002C68.7434 112.661 68.8093 113.281 68.9578 113.792C69.1105 114.304 69.3421 114.712 69.5749 115.005C70.0409 115.6 70.4481 115.772 70.426 115.799Z" fill="#1A2E35"/>
<path fill-rule="evenodd" clip-rule="evenodd" d="M109.367 114.2C109.348 114.181 109.553 113.994 109.832 113.588C110.111 113.186 110.435 112.541 110.606 111.684C110.776 110.831 110.777 109.77 110.499 108.65C110.222 107.529 109.649 106.372 108.935 105.235C108.216 104.096 107.44 103.064 106.786 102.087C106.129 101.111 105.598 100.188 105.241 99.372C104.884 98.5552 104.694 97.8556 104.611 97.3662C104.57 97.1212 104.545 96.9304 104.539 96.7998C104.53 96.6696 104.529 96.6008 104.537 96.6C104.558 96.5978 104.587 96.8698 104.698 97.349C104.806 97.8277 105.017 98.5096 105.388 99.3076C105.759 100.105 106.297 101.009 106.96 101.972C107.62 102.938 108.402 103.967 109.128 105.117C109.85 106.267 110.429 107.447 110.703 108.602C110.976 109.754 110.958 110.843 110.764 111.716C110.567 112.592 110.211 113.244 109.904 113.639C109.748 113.836 109.62 113.982 109.52 114.069C109.425 114.16 109.373 114.205 109.367 114.2Z" fill="#1A2E35"/>
<path d="M64.423 173.674L60.9016 179.744C60.9016 179.744 43.4049 173.4 33.1627 175.248C29.2684 175.951 25.1005 184.707 30.7748 190.33C36.3107 195.816 46.2121 203.571 64.7857 206.082C65.2487 206.145 72.8565 207.763 72.3879 207.708C71.9194 207.654 83.0541 209.4 83.0541 209.4L85.6679 199.605L106.414 202.831C118.64 202.004 124.623 189.048 117.261 184.878C110.393 180.987 97.4783 180.675 97.4783 180.675L92.7973 173.4L64.423 173.674Z" fill="#272422"/>
<path fill-rule="evenodd" clip-rule="evenodd" d="M83.6023 209.4C83.6564 209.069 83.8036 208.176 84.1043 206.346C84.2686 205.369 84.4708 204.178 84.7314 202.807C84.8623 202.122 85.0087 201.393 85.1827 200.624C85.2714 200.24 85.3661 199.847 85.4787 199.445C85.5368 199.246 85.5965 199.043 85.6703 198.84C85.747 198.638 85.8127 198.434 85.9834 198.236L86.0141 198.384C81.62 196.831 76.1284 194.778 70.2733 192.319C66.6735 190.794 63.2781 189.253 60.2896 187.65C58.8008 186.844 57.3991 186.032 56.1949 185.12C54.9797 184.227 53.8983 183.335 52.8844 182.558C50.8757 180.979 49.0546 179.959 47.6918 179.526C47.3582 179.398 47.0485 179.328 46.7827 179.258C46.5183 179.181 46.2892 179.141 46.1032 179.112C45.9275 179.08 45.788 179.054 45.6818 179.035C45.5867 179.016 45.538 179.005 45.5385 179.002C45.5389 178.997 45.5884 179.002 45.6843 179.013C45.7918 179.027 45.9326 179.045 46.1105 179.067C46.2986 179.09 46.5302 179.124 46.7981 179.194C47.0673 179.257 47.3804 179.322 47.7191 179.444C48.4092 179.648 49.2172 180.009 50.1087 180.503C51.0006 181 51.96 181.659 52.9799 182.433C54.0024 183.205 55.0897 184.09 56.3033 184.972C57.5058 185.872 58.8989 186.671 60.3868 187.471C63.3706 189.059 66.764 190.592 70.3599 192.115C76.2086 194.572 81.693 196.639 86.0734 198.217L86.1958 198.261L86.1045 198.365C85.9893 198.498 85.9032 198.708 85.8336 198.9C85.7616 199.096 85.7006 199.295 85.6425 199.493C85.5282 199.888 85.4314 200.279 85.3405 200.661C85.1614 201.425 85.0091 202.152 84.8722 202.835C84.5992 204.201 84.3829 205.389 84.2042 206.364C84.0241 207.327 83.8834 208.084 83.784 208.615C83.7328 208.874 83.6914 209.071 83.6594 209.202C83.6287 209.335 83.6023 209.4 83.6023 209.4Z" fill="#375A64"/>
<path fill-rule="evenodd" clip-rule="evenodd" d="M113.301 186.003C113.3 186.007 113.262 186.004 113.188 185.993C113.103 185.979 112.996 185.962 112.864 185.941C112.578 185.905 112.165 185.798 111.62 185.745C110.539 185.586 108.953 185.482 107.002 185.583C105.05 185.675 102.743 186.05 100.241 186.695C98.9929 187.029 97.6935 187.42 96.3639 187.88C95.034 188.34 93.6782 188.869 92.2893 189.421C90.8973 189.982 89.4968 190.415 88.1346 190.789C86.7723 191.164 85.4407 191.457 84.1675 191.702C81.6198 192.198 79.3033 192.503 77.3576 192.739C75.4115 192.973 73.8341 193.135 72.7442 193.247C72.2128 193.299 71.7933 193.34 71.4887 193.37C71.3557 193.38 71.2482 193.389 71.1613 193.396C71.0877 193.401 71.0494 193.401 71.049 193.398C71.0485 193.394 71.0855 193.386 71.1587 193.374C71.2447 193.361 71.3514 193.344 71.4835 193.325C71.7869 193.285 72.2047 193.23 72.7343 193.161C73.8397 193.022 75.4076 192.825 77.3378 192.583C79.2792 192.326 81.5897 192.005 84.1275 191.501C85.3959 191.25 86.7216 190.954 88.0765 190.577C89.4314 190.203 90.8242 189.771 92.2062 189.214C93.5939 188.662 94.9578 188.132 96.2921 187.673C97.6276 187.215 98.9335 186.825 100.189 186.495C102.705 185.859 105.029 185.498 106.994 185.424C108.958 185.344 110.551 185.473 111.633 185.659C112.178 185.725 112.59 185.846 112.873 185.898C113.003 185.927 113.109 185.951 113.194 185.971C113.265 185.989 113.302 185.999 113.301 186.003Z" fill="#375A64"/>
<path fill-rule="evenodd" clip-rule="evenodd" d="M81.4125 182.387C81.4253 182.528 80.4897 182.754 78.9465 182.893C77.4054 183.034 75.2541 183.06 72.8992 182.819C70.5435 182.574 68.4471 182.108 66.9712 181.656C65.494 181.205 64.6295 180.793 64.6729 180.658C64.7705 180.359 68.4207 181.295 73.0172 181.756C77.6094 182.244 81.3827 182.075 81.4125 182.387Z" fill="#1A2E35"/>
<path fill-rule="evenodd" clip-rule="evenodd" d="M97.3567 180.603C97.3592 180.619 97.1205 180.684 96.688 180.788C96.4703 180.834 96.2077 180.904 95.9054 180.998C95.6019 181.086 95.2556 181.183 94.8825 181.322C94.1251 181.566 93.2525 181.944 92.2957 182.384C91.3478 182.847 90.3269 183.402 89.2873 184.043C87.2126 185.337 85.4557 186.705 84.215 187.729C83.5932 188.24 83.0971 188.664 82.7562 188.959C82.4142 189.254 82.2203 189.411 82.2102 189.399C82.2002 189.388 82.3748 189.209 82.7001 188.894C83.0242 188.578 83.5062 188.134 84.1171 187.606C85.3368 186.546 87.0874 185.152 89.1751 183.85C90.221 183.205 91.2527 182.651 92.212 182.195C93.1809 181.762 94.066 181.396 94.8356 181.171C95.2146 181.04 95.5663 180.953 95.8749 180.876C96.1818 180.793 96.4489 180.735 96.6704 180.702C97.1105 180.624 97.3542 180.588 97.3567 180.603Z" fill="#375A64"/>
<path fill-rule="evenodd" clip-rule="evenodd" d="M78.2236 189.396C78.2166 189.424 77.7308 189.311 76.9798 189.013C76.2271 188.719 75.2211 188.225 74.1387 187.627C73.0957 187.037 72.1526 186.503 71.3843 186.068C70.6802 185.671 70.239 185.437 70.252 185.403C70.2633 185.374 70.7292 185.554 71.4546 185.913C72.1812 186.269 73.1617 186.812 74.241 187.409C75.3208 188.006 76.3078 188.521 77.0388 188.853C77.7676 189.189 78.2336 189.359 78.2236 189.396Z" fill="#375A64"/>
<path fill-rule="evenodd" clip-rule="evenodd" d="M80.3321 174.2C80.3741 174.204 80.2997 174.83 80.2188 175.844C80.1369 176.857 80.0662 178.258 80.1023 179.805C80.1417 181.353 80.2816 182.752 80.4124 183.761C80.5433 184.771 80.648 185.395 80.606 185.4C80.5869 185.402 80.539 185.249 80.4677 184.97C80.3949 184.691 80.3087 184.284 80.2183 183.78C80.0364 182.771 79.8651 181.367 79.8258 179.81C79.7891 178.254 79.8917 176.845 80.0236 175.831C80.089 175.324 80.1555 174.915 80.2146 174.634C80.2725 174.353 80.313 174.198 80.3321 174.2Z" fill="#375A64"/>
<path fill-rule="evenodd" clip-rule="evenodd" d="M82.0258 175.183C82.0361 175.2 81.9552 175.249 81.85 175.372C81.7443 175.494 81.6267 175.705 81.5871 175.989C81.5524 176.267 81.602 176.635 81.8459 176.904C82.0815 177.179 82.5276 177.26 82.9221 177.11C83.3175 176.963 83.6043 176.607 83.6059 176.243C83.6183 175.878 83.419 175.566 83.2135 175.378C83.0005 175.189 82.7756 175.107 82.6176 175.085C82.4583 175.06 82.3654 175.077 82.3621 175.056C82.3592 175.048 82.448 175 82.6242 175C82.7983 174.998 83.0587 175.063 83.3109 175.26C83.5535 175.455 83.8044 175.798 83.804 176.248C83.8131 176.703 83.459 177.147 82.9968 177.314C82.5387 177.492 81.9849 177.39 81.6989 177.038C81.4088 176.697 81.3791 176.272 81.4369 175.964C81.5017 175.648 81.6568 175.426 81.791 175.313C81.9247 175.197 82.0225 175.174 82.0258 175.183Z" fill="#375A64"/>
<path fill-rule="evenodd" clip-rule="evenodd" d="M87.7894 167.801C87.8008 167.811 87.684 167.975 87.4612 168.263C87.2427 168.553 86.8971 168.948 86.4466 169.411C85.9985 169.876 85.4268 170.387 84.7598 170.909C84.0865 171.42 83.314 171.935 82.4622 172.395C81.6066 172.847 80.7573 173.198 79.9709 173.467C79.1807 173.724 78.4555 173.906 77.8391 174.009C77.224 174.116 76.7215 174.174 76.373 174.186C76.0254 174.203 75.833 174.205 75.8322 174.189C75.8292 174.144 76.5979 174.099 77.8113 173.845C78.4188 173.722 79.1318 173.525 79.9093 173.26C80.6831 172.983 81.5193 172.631 82.3643 172.184C83.2052 171.73 83.9709 171.227 84.643 170.731C85.3083 170.226 85.8842 169.733 86.3415 169.288C87.2612 168.402 87.7578 167.772 87.7894 167.801Z" fill="#1A2E35"/>
<path fill-rule="evenodd" clip-rule="evenodd" d="M94.965 172.663C94.9638 172.723 94.2209 172.724 93.345 172.928C92.4666 173.126 91.8084 173.447 91.7774 173.394C91.7456 173.353 92.3795 172.94 93.2934 172.734C94.2056 172.522 94.9724 172.613 94.965 172.663Z" fill="#1A2E35"/>
<path fill-rule="evenodd" clip-rule="evenodd" d="M77.2756 173.381C80.9465 172.711 84.3665 170.701 86.7704 167.8C87.2262 169.161 86.8484 170.773 85.8379 171.778C86.9199 172.3 88.1865 171.953 89.3729 171.787C90.5593 171.621 92.0069 171.783 92.5735 172.857C87.2757 173.357 81.9464 173.512 76.6294 173.32" fill="black"/>
<path fill-rule="evenodd" clip-rule="evenodd" d="M67.0622 165.557C67.0283 165.603 66.4972 164.881 65.2133 164.387C64.5811 164.141 63.77 163.976 62.8698 164.001C61.9713 164.025 60.9871 164.258 60.0676 164.733C58.1987 165.68 57.0914 167.294 56.2444 168.329C55.844 168.873 55.5864 169.357 55.4029 169.689C55.2224 170.022 55.1213 170.207 55.1063 170.2C55.0934 170.194 55.168 169.997 55.3249 169.652C55.4848 169.308 55.7236 168.807 56.1145 168.241C56.5093 167.678 57.0241 167.053 57.6187 166.365C58.2295 165.69 59.0127 165.029 59.9639 164.541C60.9125 164.05 61.9358 163.813 62.8647 163.801C63.7957 163.786 64.6295 163.973 65.2729 164.245C65.9232 164.508 66.3793 164.854 66.6644 165.113C66.8075 165.242 66.9096 165.352 66.9717 165.432C67.0369 165.509 67.0682 165.552 67.0622 165.557Z" fill="#1A2E35"/>
<path fill-rule="evenodd" clip-rule="evenodd" d="M77.7421 124.6L71.8462 125.843L74.7942 136.778L85.2288 139L92.3883 133.962L93.3707 127.935L87.232 125.633L77.7421 124.6Z" fill="#FFBF9D"/>
<g filter="url(#filter11_d)">
<path d="M73.8622 124.6C73.8622 124.6 77.8901 136.349 85.3353 135.263C92.7801 134.178 92.1584 126.563 92.1584 126.563C92.1584 126.563 99.9285 128.941 102.33 131.473C104.732 134.006 103.325 139.505 103.325 139.505L101.309 149.447L96.9265 168.494C96.9265 168.494 98.6021 173.688 94.3192 174.973L92.9664 172.841L67.2702 173.572C67.2702 173.572 61.7739 179.935 60.0617 177.739C58.3489 175.545 56.6993 171.268 56.6993 171.268L68.4939 126.004L73.8622 124.6Z" fill="#390B12"/>
</g>
<g filter="url(#filter12_d)">
<path d="M99.9812 130.2C100.188 130.32 118.082 143.396 118.082 143.396C118.082 143.396 116.678 154.148 125.259 152.435C125.259 152.435 121.79 161.428 117.094 159.539C115.759 159.003 99.2667 148.511 99.2667 148.511L95.7622 141.006L99.9812 130.2Z" fill="#390B12"/>
</g>
<g filter="url(#filter13_d)">
<path d="M74.2378 125.4C74.2378 125.4 73.8228 125.411 73.1221 125.478C69.5274 125.819 56.2605 128.536 55.0329 137.791C54.3904 142.633 54.2064 156.791 53.5105 162.727C53.5105 162.727 54.6205 170.977 55.0329 172.506C55.7665 175.226 69.0746 170.872 69.0746 170.872L69.1024 144.672L73.8228 125.411" fill="#390B12"/>
</g>
<path fill-rule="evenodd" clip-rule="evenodd" d="M65.5062 149.4C65.5141 149.4 65.5212 149.473 65.5274 149.61C65.5314 149.747 65.5353 149.948 65.5707 150.206C65.6268 150.72 65.7929 151.457 66.1407 152.323C66.4857 153.191 67.0111 154.18 67.5386 155.311C67.7984 155.877 68.0538 156.484 68.2442 157.138C68.4302 157.793 68.5544 158.488 68.6096 159.204C68.7245 160.637 68.6092 161.999 68.5023 163.227C68.3914 164.456 68.284 165.566 68.1232 166.489C67.9672 167.414 67.7631 168.149 67.5899 168.646C67.5024 168.894 67.4282 169.084 67.3698 169.211C67.3133 169.338 67.2801 169.403 67.2731 169.4C67.255 169.393 67.3575 169.122 67.5042 168.621C67.6504 168.12 67.8276 167.387 67.9623 166.466C68.1015 165.546 68.1916 164.441 68.2911 163.211C68.3865 161.984 68.4939 160.63 68.3803 159.221C68.326 158.517 68.2053 157.836 68.0268 157.195C67.8435 156.555 67.5969 155.955 67.3442 155.391C66.8317 154.265 66.3178 153.262 65.9878 152.378C65.6555 151.494 65.5106 150.737 65.4814 150.213C65.4593 149.951 65.4699 149.747 65.481 149.609C65.4898 149.472 65.4982 149.4 65.5062 149.4Z" fill="#1A2E35"/>
<path fill-rule="evenodd" clip-rule="evenodd" d="M66.2847 146.2C66.3175 146.198 66.3472 146.852 66.483 147.895C66.6177 148.938 66.8781 150.37 67.3543 151.891C67.4753 152.271 67.5975 152.639 67.7294 152.99C67.7622 153.07 67.7927 153.184 67.8266 153.23C67.8735 153.309 67.9199 153.386 67.9664 153.463C68.0573 153.621 68.1436 153.778 68.2174 153.937C68.5214 154.57 68.6608 155.215 68.6573 155.756C68.66 156.3 68.5285 156.723 68.425 156.998C68.3017 157.267 68.2209 157.407 68.2099 157.4C68.1565 157.383 68.539 156.806 68.5133 155.76C68.4992 155.244 68.3524 154.635 68.0511 154.03C67.9781 153.878 67.893 153.728 67.8028 153.576C67.756 153.5 67.7083 153.423 67.6603 153.344C67.5955 153.237 67.5842 153.163 67.5444 153.07C67.4085 152.717 67.284 152.344 67.1618 151.961C66.6801 150.423 66.4393 148.969 66.3405 147.914C66.2875 147.387 66.2734 146.957 66.266 146.661C66.2644 146.364 66.2707 146.2 66.2847 146.2Z" fill="#1A2E35"/>
<path fill-rule="evenodd" clip-rule="evenodd" d="M66.2626 142.2C66.2295 142.211 66.0459 141.686 65.6805 140.869C65.3158 140.053 64.745 138.956 63.9696 137.841C63.191 136.727 62.3622 135.817 61.7263 135.198C61.0912 134.578 60.6643 134.229 60.6861 134.201C60.695 134.189 60.8098 134.265 61.0111 134.413C61.2137 134.558 61.4938 134.788 61.827 135.086C62.4944 135.682 63.3523 136.588 64.1406 137.716C64.9265 138.845 65.484 139.97 65.8167 140.809C65.9841 141.228 66.1041 141.573 66.1729 141.816C66.244 142.059 66.2764 142.195 66.2626 142.2Z" fill="#1A2E35"/>
<path fill-rule="evenodd" clip-rule="evenodd" d="M103.724 134.2C103.756 134.206 103.712 134.61 103.633 135.259C103.554 135.909 103.445 136.806 103.341 137.799C103.238 138.792 103.161 139.692 103.104 140.345C103.047 140.997 103.006 141.401 102.974 141.4C102.943 141.399 102.927 140.992 102.943 140.336C102.959 139.679 103.011 138.773 103.115 137.775C103.219 136.778 103.355 135.881 103.475 135.235C103.594 134.589 103.694 134.194 103.724 134.2Z" fill="#1A2E35"/>
<path fill-rule="evenodd" clip-rule="evenodd" d="M106.923 145.409C106.928 145.45 106.39 145.502 105.564 145.747C104.741 145.981 103.63 146.503 102.719 147.476C102.267 147.963 101.919 148.5 101.633 149.007C101.366 149.524 101.158 150.01 101.009 150.429C100.939 150.631 100.873 150.821 100.812 150.997C100.766 151.154 100.723 151.299 100.684 151.433C100.611 151.672 100.564 151.803 100.55 151.8C100.536 151.797 100.556 151.659 100.605 151.412C100.634 151.274 100.665 151.125 100.7 150.962C100.752 150.781 100.808 150.586 100.869 150.378C101.002 149.947 101.199 149.445 101.464 148.91C101.746 148.385 102.101 147.828 102.568 147.324C103.512 146.315 104.679 145.797 105.525 145.598C105.737 145.542 105.931 145.5 106.103 145.476C106.274 145.447 106.422 145.424 106.544 145.418C106.787 145.398 106.922 145.394 106.923 145.409Z" fill="#1A2E35"/>
<path fill-rule="evenodd" clip-rule="evenodd" d="M119.675 157.4C119.66 157.407 119.542 157.238 119.342 156.926C119.239 156.771 119.12 156.578 119.001 156.346C118.879 156.116 118.728 155.857 118.601 155.557C118.318 154.967 118.046 154.241 117.809 153.421C117.585 152.598 117.406 151.679 117.325 150.706C117.254 149.731 117.288 148.799 117.381 147.958C117.489 147.118 117.646 146.367 117.834 145.75C117.913 145.438 118.023 145.164 118.108 144.921C118.19 144.678 118.278 144.473 118.355 144.308C118.505 143.975 118.596 143.795 118.612 143.8C118.659 143.815 118.33 144.55 118.01 145.785C117.846 146.402 117.71 147.146 117.616 147.978C117.537 148.809 117.51 149.729 117.58 150.691C117.66 151.652 117.831 152.559 118.038 153.374C118.261 154.187 118.511 154.91 118.77 155.502C119.279 156.688 119.72 157.38 119.675 157.4Z" fill="#1A2E35"/>
<path fill-rule="evenodd" clip-rule="evenodd" d="M114.574 154.2C114.561 154.204 114.507 154.043 114.42 153.748C114.337 153.451 114.239 153.012 114.171 152.461C114.031 151.364 114.06 149.789 114.544 148.163C115.018 146.533 115.844 145.229 116.564 144.425C116.934 144.025 117.344 143.806 117.65 143.801C117.802 143.794 117.915 143.837 117.986 143.87C118.055 143.911 118.087 143.937 118.084 143.943C118.076 143.966 117.933 143.856 117.656 143.886C117.381 143.916 117.01 144.137 116.668 144.533C115.994 145.344 115.203 146.635 114.74 148.23C114.266 149.82 114.215 151.359 114.316 152.444C114.416 153.535 114.613 154.189 114.574 154.2Z" fill="#1A2E35"/>
<path fill-rule="evenodd" clip-rule="evenodd" d="M85.3955 151.8C85.4104 151.804 85.372 151.98 85.2901 152.297C85.2517 152.456 85.1979 152.649 85.1155 152.867C85.0357 153.085 84.9576 153.339 84.8318 153.605C84.6077 154.147 84.2774 154.767 83.8567 155.422C83.4231 156.07 82.8918 156.748 82.2577 157.392C81.6159 158.028 80.937 158.565 80.2867 159.005C79.6282 159.433 79.0035 159.771 78.456 160.003C78.188 160.132 77.9307 160.215 77.7101 160.298C77.4903 160.384 77.2948 160.441 77.1335 160.482C76.8126 160.57 76.6338 160.612 76.6296 160.597C76.6163 160.555 77.3277 160.365 78.3894 159.863C78.922 159.616 79.5292 159.27 80.171 158.839C80.8043 158.398 81.4674 157.865 82.0985 157.239C82.722 156.606 83.2494 155.944 83.6851 155.313C84.1089 154.674 84.4485 154.071 84.6879 153.542C85.1753 152.49 85.3519 151.788 85.3955 151.8Z" fill="#1A2E35"/>
<path d="M70.5536 156.29C69.7077 153.276 68.8619 150.263 68.0161 147.248C67.8928 146.808 67.6863 146.29 67.2257 146.209C66.7968 146.134 66.4032 146.529 66.3235 146.947C66.2434 147.365 66.2574 147.846 66.3006 148.268C66.5001 150.231 66.6581 151.564 67.5956 153.086C69.4215 156.05 68.2177 157.487 68.2177 157.487C68.363 161.096 68.0513 166.021 66.9012 169.727L67.9865 174.2C69.0186 170.875 71.3734 168.102 71.7706 164.65C72.0942 161.835 71.3202 159.022 70.5536 156.29Z" fill="#272422" fill-opacity="0.5"/>
<path d="M101.343 149.757C104.404 151.277 107.127 153.375 110.112 155C108.942 152.675 106.991 150.376 104.618 149.142C103.979 148.81 103.264 148.522 102.544 148.619C101.822 148.716 101.302 149.105 101.412 149.792" fill="#272422" fill-opacity="0.5"/>
<path d="M117.881 143.178C116.924 143.154 116.202 144.053 115.733 144.916C114.415 147.35 113.865 150.221 114.188 152.99C114.246 153.49 114.425 154.092 114.902 154.188C115.249 154.259 115.594 153.997 115.748 153.669C115.902 153.34 115.909 152.961 115.908 152.596C115.902 150.899 115.796 149.193 116.029 147.514C116.262 145.834 116.876 144.147 118.084 143" fill="#272422" fill-opacity="0.5"/>
<path fill-rule="evenodd" clip-rule="evenodd" d="M72.6433 146.365C72.6433 146.362 72.6776 146.358 72.7449 146.353C72.8217 146.348 72.9202 146.341 73.0465 146.333C73.3233 146.318 73.7156 146.298 74.2216 146.271C75.2609 146.223 76.7646 146.154 78.667 146.067C82.4993 145.906 87.9376 145.676 94.4061 145.404L94.5085 145.4L94.5111 145.502C94.6404 150.755 94.7892 156.797 94.9472 163.197C94.9524 163.412 94.9572 163.628 94.9624 163.838L94.965 163.952L94.8509 163.953C87.7219 164.03 81.0711 164.616 75.474 165.388L75.3889 165.4L75.3664 165.319C73.8245 159.693 73.2608 154.848 73.0556 151.467C72.9527 149.774 72.9336 148.441 72.9341 147.534C72.9336 147.08 72.944 146.732 72.9484 146.498C72.9519 146.387 72.9545 146.3 72.9566 146.232C72.9597 146.172 72.9618 146.142 72.9644 146.142C72.9675 146.142 72.9696 146.173 72.9722 146.232C72.974 146.3 72.9762 146.387 72.9788 146.498C72.9822 146.742 72.987 147.088 72.9939 147.533C73.0126 148.44 73.0495 149.77 73.1688 151.46C73.4071 154.833 73.9977 159.663 75.5543 165.267L75.4466 165.197C81.049 164.405 87.7089 163.806 94.8483 163.729L94.7367 163.843C94.7315 163.633 94.7263 163.418 94.7211 163.202C94.5723 156.802 94.4317 150.76 94.3097 145.506L94.4143 145.604C87.9441 145.843 82.5049 146.044 78.6718 146.186C76.768 146.249 75.264 146.3 74.2242 146.334C73.7178 146.347 73.3246 146.357 73.0482 146.365C72.9215 146.367 72.8225 146.368 72.7457 146.369C72.678 146.369 72.6433 146.368 72.6433 146.365Z" fill="white"/>
<path fill-rule="evenodd" clip-rule="evenodd" d="M78.2176 159.8C78.151 159.81 77.5641 156.953 76.9078 153.418C76.2506 149.883 75.7721 147.01 75.8383 147C75.9049 146.99 76.4913 149.847 77.1485 153.382C77.8052 156.916 78.2842 159.79 78.2176 159.8Z" fill="white"/>
<path fill-rule="evenodd" clip-rule="evenodd" d="M79.0041 165.4C78.9409 165.409 78.7185 164.343 78.508 163.017C78.2971 161.692 78.1775 160.61 78.2406 160.6C78.3038 160.59 78.5258 161.657 78.7367 162.982C78.9476 164.308 79.0673 165.39 79.0041 165.4Z" fill="white"/>
<path fill-rule="evenodd" clip-rule="evenodd" d="M83.0024 156.6C82.9916 156.603 82.9612 156.462 82.9153 156.204C82.8691 155.946 82.8108 155.571 82.746 155.105C82.6161 154.173 82.4691 152.877 82.364 151.436C82.2599 149.994 82.2177 148.683 82.2112 147.734C82.2078 147.261 82.2109 146.877 82.2193 146.612C82.227 146.346 82.2366 146.2 82.2478 146.2C82.2717 146.2 82.2893 146.785 82.3253 147.73C82.3613 148.674 82.4211 149.978 82.5246 151.414C82.6291 152.849 82.7578 154.143 82.8589 155.079C82.959 156.015 83.0257 156.594 83.0024 156.6Z" fill="white"/>
<path fill-rule="evenodd" clip-rule="evenodd" d="M82.1935 164.6C82.1313 164.608 81.9099 163.182 81.6989 161.415C81.4875 159.647 81.367 158.208 81.4288 158.2C81.491 158.192 81.7124 159.618 81.9233 161.386C82.1347 163.153 82.2557 164.592 82.1935 164.6Z" fill="white"/>
<path fill-rule="evenodd" clip-rule="evenodd" d="M86.9801 163.8C86.9623 163.801 86.9278 163.554 86.88 163.107C86.8307 162.623 86.7655 161.986 86.6871 161.215C86.5258 159.618 86.2852 157.413 85.9582 154.984C85.6297 152.554 85.277 150.36 85.0092 148.774C84.8805 148.008 84.7739 147.375 84.693 146.894C84.6205 146.45 84.5885 146.203 84.6062 146.2C84.6235 146.198 84.6886 146.44 84.7917 146.88C84.8958 147.319 85.0319 147.959 85.1887 148.75C85.5024 150.332 85.8842 152.525 86.2131 154.96C86.5406 157.392 86.7532 159.602 86.8681 161.204C86.9263 162.005 86.9638 162.653 86.9801 163.102C86.9969 163.551 86.9979 163.799 86.9801 163.8Z" fill="white"/>
<path fill-rule="evenodd" clip-rule="evenodd" d="M90.8833 164.6C90.8709 164.6 90.8626 164.341 90.8585 163.875C90.8551 163.37 90.8506 162.705 90.8448 161.9C90.8324 160.233 90.7966 157.931 90.701 155.39C90.604 152.849 90.4657 150.553 90.3525 148.892C90.2971 148.091 90.2514 147.428 90.217 146.925C90.1856 146.46 90.1743 146.202 90.1867 146.2C90.1987 146.198 90.2335 146.453 90.2861 146.915C90.3394 147.377 90.4058 148.047 90.4784 148.877C90.6242 150.536 90.7828 152.834 90.8798 155.38C90.9758 157.924 90.9913 160.231 90.9713 161.9C90.9621 162.735 90.9466 163.41 90.9283 163.876C90.9111 164.343 90.8957 164.6 90.8833 164.6Z" fill="white"/>
<path d="M76.7564 160.847C77.4135 161.287 78.2382 161.441 79.0318 161.391C79.8249 161.341 80.5939 161.099 81.3279 160.799C82.3003 160.402 83.2486 159.886 83.942 159.108C84.6837 158.276 85.0846 157.194 85.2613 156.102C85.4384 155.01 85.4056 153.896 85.3723 152.791C85.371 152.742 85.3684 152.691 85.3399 152.652C85.2864 152.579 85.165 152.588 85.0954 152.646C85.0254 152.705 84.9939 152.795 84.9645 152.88C83.6802 156.576 80.4591 159.565 76.6294 160.616" fill="#272422" fill-opacity="0.5"/>
<mask id="mask0"  maskUnits="userSpaceOnUse" x="55" y="164" width="24" height="47">
<path fill-rule="evenodd" clip-rule="evenodd" d="M55.9978 164.095H78.6689V211H55.9978V164.095Z" fill="white"/>
</mask>
<g mask="url(#mask0)">
<path fill-rule="evenodd" clip-rule="evenodd" d="M74.0064 197.315L71.4373 192.398L65.663 164.803C65.663 164.803 60.3486 161.691 56.0015 168.516C55.8266 168.79 61.985 188.553 63.7038 194.052L63.9451 199.309C63.9451 199.309 63.6399 205.535 63.9451 206.08C64.2498 206.625 65.0124 206.936 65.0124 206.936C65.0124 206.936 64.7837 208.492 66.5369 208.648C66.5369 208.648 66.6895 210.36 67.9854 210.126C69.2814 209.893 69.7387 209.037 69.7387 209.037C69.7387 209.037 69.7387 211.216 70.882 210.983C72.0258 210.749 72.2124 209.815 72.4238 209.504C72.6357 209.193 72.8766 206.002 72.8766 206.002L72.856 200.73L75.8337 203.192C76.6933 203.63 77.9526 204.172 78.6689 203.518L74.0064 197.315Z" fill="#FFBF9D"/>
</g>
<path fill-rule="evenodd" clip-rule="evenodd" d="M72.9458 199.8C73.0645 199.79 73.4073 201.05 73.2662 202.603C73.2009 203.324 73.1419 203.979 73.0869 204.58C73.0382 205.085 73.0056 205.399 72.9458 205.4C72.8166 205.403 72.7098 204.14 72.8509 202.595C72.9912 201.053 72.8365 199.808 72.9458 199.8Z" fill="#FF9A6C"/>
<path fill-rule="evenodd" clip-rule="evenodd" d="M69.7878 203.8C69.9026 203.799 70.0246 205.052 70.0605 206.598C70.0971 208.145 70.0334 209.399 69.9186 209.4C69.8046 209.401 69.6818 208.149 69.6459 206.602C69.6092 205.056 69.673 203.801 69.7878 203.8Z" fill="#FF9A6C"/>
<path fill-rule="evenodd" clip-rule="evenodd" d="M66.8872 204.6C66.9876 204.595 67.1618 205.505 66.9913 206.625C66.8274 207.745 66.3882 208.617 66.2908 208.6C66.183 208.583 66.4487 207.7 66.6089 206.601C66.7757 205.503 66.7757 204.604 66.8872 204.6Z" fill="#FF9A6C"/>
<path fill-rule="evenodd" clip-rule="evenodd" d="M65.286 203.8C65.4 203.806 65.396 204.348 65.2765 205.011C65.1569 205.674 64.9679 206.206 64.8539 206.2C64.7399 206.194 64.7439 205.652 64.8635 204.989C64.9831 204.326 65.172 203.794 65.286 203.8Z" fill="#FF9A6C"/>
<g filter="url(#filter14_d)">
<path d="M134.484 112.6C134.403 112.819 132.434 130.2 132.434 130.2L140.037 128.911L142 114.549L134.484 112.6Z" fill="#390B12"/>
</g>
<path d="M132.958 130.2L132.434 129.88L134.024 112.6L134.825 112.835L132.958 130.2Z" fill="#8F5F43"/>
<path d="M138.014 116.2C138.014 116.421 138.193 116.6 138.413 116.6C138.633 116.6 138.811 116.421 138.811 116.2C138.811 115.979 138.633 115.8 138.413 115.8C138.193 115.8 138.014 115.979 138.014 116.2Z" fill="#8F5F43"/>
<path fill-rule="evenodd" clip-rule="evenodd" d="M141.203 120.2H138.014C138.014 120.2 136.021 121.4 138.413 121.8C140.804 122.2 140.804 122.2 140.804 122.2C140.804 122.2 137.855 121.8 137.456 122.6C137.057 123.4 141.043 123.8 141.043 123.8C141.043 123.8 139.848 124.6 138.253 125C136.659 125.4 140.645 126.2 140.645 126.2L141.203 120.2Z" fill="#FFBF9D"/>
<defs>
<filter id="filter0_d" x="167.473" y="44.5562" width="70.8185" height="70.8185" filterUnits="userSpaceOnUse" color-interpolation-filters="sRGB">
<feFlood flood-opacity="0" result="BackgroundImageFix"/>
<feColorMatrix in="SourceAlpha" type="matrix" values="0 0 0 0 0 0 0 0 0 0 0 0 0 0 0 0 0 0 127 0"/>
<feOffset dx="2" dy="4"/>
<feGaussianBlur stdDeviation="8"/>
<feColorMatrix type="matrix" values="0 0 0 0 0 0 0 0 0 0 0 0 0 0 0 0 0 0 0.1 0"/>
<feBlend mode="normal" in2="BackgroundImageFix" result="effect1_dropShadow"/>
<feBlend mode="normal" in="SourceGraphic" in2="effect1_dropShadow" result="shape"/>
</filter>
<filter id="filter1_d" x="173.694" y="50.7771" width="80.8063" height="80.8063" filterUnits="userSpaceOnUse" color-interpolation-filters="sRGB">
<feFlood flood-opacity="0" result="BackgroundImageFix"/>
<feColorMatrix in="SourceAlpha" type="matrix" values="0 0 0 0 0 0 0 0 0 0 0 0 0 0 0 0 0 0 127 0"/>
<feOffset dx="2" dy="4"/>
<feGaussianBlur stdDeviation="8"/>
<feColorMatrix type="matrix" values="0 0 0 0 0 0 0 0 0 0 0 0 0 0 0 0 0 0 0.1 0"/>
<feBlend mode="normal" in2="BackgroundImageFix" result="effect1_dropShadow"/>
<feBlend mode="normal" in="SourceGraphic" in2="effect1_dropShadow" result="shape"/>
</filter>
<filter id="filter2_d" x="165" y="117.841" width="92" height="72.8333" filterUnits="userSpaceOnUse" color-interpolation-filters="sRGB">
<feFlood flood-opacity="0" result="BackgroundImageFix"/>
<feColorMatrix in="SourceAlpha" type="matrix" values="0 0 0 0 0 0 0 0 0 0 0 0 0 0 0 0 0 0 127 0"/>
<feOffset dx="2" dy="4"/>
<feGaussianBlur stdDeviation="8"/>
<feColorMatrix type="matrix" values="0 0 0 0 0 0 0 0 0 0 0 0 0 0 0 0 0 0 0.1 0"/>
<feBlend mode="normal" in2="BackgroundImageFix" result="effect1_dropShadow"/>
<feBlend mode="normal" in="SourceGraphic" in2="effect1_dropShadow" result="shape"/>
</filter>
<filter id="filter3_d" x="180" y="144.507" width="33.6667" height="37" filterUnits="userSpaceOnUse" color-interpolation-filters="sRGB">
<feFlood flood-opacity="0" result="BackgroundImageFix"/>
<feColorMatrix in="SourceAlpha" type="matrix" values="0 0 0 0 0 0 0 0 0 0 0 0 0 0 0 0 0 0 127 0"/>
<feOffset dx="2" dy="4"/>
<feGaussianBlur stdDeviation="8"/>
<feColorMatrix type="matrix" values="0 0 0 0 0 0 0 0 0 0 0 0 0 0 0 0 0 0 0.1 0"/>
<feBlend mode="normal" in2="BackgroundImageFix" result="effect1_dropShadow"/>
<feBlend mode="normal" in="SourceGraphic" in2="effect1_dropShadow" result="shape"/>
</filter>
<filter id="filter4_d" x="165" y="117.841" width="92" height="38.6667" filterUnits="userSpaceOnUse" color-interpolation-filters="sRGB">
<feFlood flood-opacity="0" result="BackgroundImageFix"/>
<feColorMatrix in="SourceAlpha" type="matrix" values="0 0 0 0 0 0 0 0 0 0 0 0 0 0 0 0 0 0 127 0"/>
<feOffset dx="2" dy="4"/>
<feGaussianBlur stdDeviation="8"/>
<feColorMatrix type="matrix" values="0 0 0 0 0 0 0 0 0 0 0 0 0 0 0 0 0 0 0.1 0"/>
<feBlend mode="normal" in2="BackgroundImageFix" result="effect1_dropShadow"/>
<feBlend mode="normal" in="SourceGraphic" in2="effect1_dropShadow" result="shape"/>
</filter>
<filter id="filter5_d" x="182.5" y="142.841" width="37.8333" height="40.3333" filterUnits="userSpaceOnUse" color-interpolation-filters="sRGB">
<feFlood flood-opacity="0" result="BackgroundImageFix"/>
<feColorMatrix in="SourceAlpha" type="matrix" values="0 0 0 0 0 0 0 0 0 0 0 0 0 0 0 0 0 0 127 0"/>
<feOffset dx="2" dy="4"/>
<feGaussianBlur stdDeviation="8"/>
<feColorMatrix type="matrix" values="0 0 0 0 0 0 0 0 0 0 0 0 0 0 0 0 0 0 0.1 0"/>
<feBlend mode="normal" in2="BackgroundImageFix" result="effect1_dropShadow"/>
<feBlend mode="normal" in="SourceGraphic" in2="effect1_dropShadow" result="shape"/>
</filter>
<filter id="filter6_d" x="165" y="135.341" width="92" height="55.3333" filterUnits="userSpaceOnUse" color-interpolation-filters="sRGB">
<feFlood flood-opacity="0" result="BackgroundImageFix"/>
<feColorMatrix in="SourceAlpha" type="matrix" values="0 0 0 0 0 0 0 0 0 0 0 0 0 0 0 0 0 0 127 0"/>
<feOffset dx="2" dy="4"/>
<feGaussianBlur stdDeviation="8"/>
<feColorMatrix type="matrix" values="0 0 0 0 0 0 0 0 0 0 0 0 0 0 0 0 0 0 0.1 0"/>
<feBlend mode="normal" in2="BackgroundImageFix" result="effect1_dropShadow"/>
<feBlend mode="normal" in="SourceGraphic" in2="effect1_dropShadow" result="shape"/>
</filter>
<filter id="filter7_d" x="165" y="127.007" width="92" height="38.6667" filterUnits="userSpaceOnUse" color-interpolation-filters="sRGB">
<feFlood flood-opacity="0" result="BackgroundImageFix"/>
<feColorMatrix in="SourceAlpha" type="matrix" values="0 0 0 0 0 0 0 0 0 0 0 0 0 0 0 0 0 0 127 0"/>
<feOffset dx="2" dy="4"/>
<feGaussianBlur stdDeviation="8"/>
<feColorMatrix type="matrix" values="0 0 0 0 0 0 0 0 0 0 0 0 0 0 0 0 0 0 0.1 0"/>
<feBlend mode="normal" in2="BackgroundImageFix" result="effect1_dropShadow"/>
<feBlend mode="normal" in="SourceGraphic" in2="effect1_dropShadow" result="shape"/>
</filter>
<filter id="filter8_d" x="173.333" y="142.841" width="37.8333" height="40.3333" filterUnits="userSpaceOnUse" color-interpolation-filters="sRGB">
<feFlood flood-opacity="0" result="BackgroundImageFix"/>
<feColorMatrix in="SourceAlpha" type="matrix" values="0 0 0 0 0 0 0 0 0 0 0 0 0 0 0 0 0 0 127 0"/>
<feOffset dx="2" dy="4"/>
<feGaussianBlur stdDeviation="8"/>
<feColorMatrix type="matrix" values="0 0 0 0 0 0 0 0 0 0 0 0 0 0 0 0 0 0 0.1 0"/>
<feBlend mode="normal" in2="BackgroundImageFix" result="effect1_dropShadow"/>
<feBlend mode="normal" in="SourceGraphic" in2="effect1_dropShadow" result="shape"/>
</filter>
<filter id="filter9_d" x="33.1328" y="187.8" width="55.1189" height="41.6" filterUnits="userSpaceOnUse" color-interpolation-filters="sRGB">
<feFlood flood-opacity="0" result="BackgroundImageFix"/>
<feColorMatrix in="SourceAlpha" type="matrix" values="0 0 0 0 0 0 0 0 0 0 0 0 0 0 0 0 0 0 127 0"/>
<feOffset dx="2" dy="4"/>
<feGaussianBlur stdDeviation="8"/>
<feColorMatrix type="matrix" values="0 0 0 0 0 0 0 0 0 0 0 0 0 0 0 0 0 0 0.1 0"/>
<feBlend mode="normal" in2="BackgroundImageFix" result="effect1_dropShadow"/>
<feBlend mode="normal" in="SourceGraphic" in2="effect1_dropShadow" result="shape"/>
</filter>
<filter id="filter10_d" x="68.2098" y="187.8" width="55.1189" height="41.6" filterUnits="userSpaceOnUse" color-interpolation-filters="sRGB">
<feFlood flood-opacity="0" result="BackgroundImageFix"/>
<feColorMatrix in="SourceAlpha" type="matrix" values="0 0 0 0 0 0 0 0 0 0 0 0 0 0 0 0 0 0 127 0"/>
<feOffset dx="2" dy="4"/>
<feGaussianBlur stdDeviation="8"/>
<feColorMatrix type="matrix" values="0 0 0 0 0 0 0 0 0 0 0 0 0 0 0 0 0 0 0.1 0"/>
<feBlend mode="normal" in2="BackgroundImageFix" result="effect1_dropShadow"/>
<feBlend mode="normal" in="SourceGraphic" in2="effect1_dropShadow" result="shape"/>
</filter>
<filter id="filter11_d" x="42.6993" y="112.6" width="79.035" height="85.6" filterUnits="userSpaceOnUse" color-interpolation-filters="sRGB">
<feFlood flood-opacity="0" result="BackgroundImageFix"/>
<feColorMatrix in="SourceAlpha" type="matrix" values="0 0 0 0 0 0 0 0 0 0 0 0 0 0 0 0 0 0 127 0"/>
<feOffset dx="2" dy="4"/>
<feGaussianBlur stdDeviation="8"/>
<feColorMatrix type="matrix" values="0 0 0 0 0 0 0 0 0 0 0 0 0 0 0 0 0 0 0.1 0"/>
<feBlend mode="normal" in2="BackgroundImageFix" result="effect1_dropShadow"/>
<feBlend mode="normal" in="SourceGraphic" in2="effect1_dropShadow" result="shape"/>
</filter>
<filter id="filter12_d" x="81.7622" y="118.2" width="61.4965" height="61.6" filterUnits="userSpaceOnUse" color-interpolation-filters="sRGB">
<feFlood flood-opacity="0" result="BackgroundImageFix"/>
<feColorMatrix in="SourceAlpha" type="matrix" values="0 0 0 0 0 0 0 0 0 0 0 0 0 0 0 0 0 0 127 0"/>
<feOffset dx="2" dy="4"/>
<feGaussianBlur stdDeviation="8"/>
<feColorMatrix type="matrix" values="0 0 0 0 0 0 0 0 0 0 0 0 0 0 0 0 0 0 0.1 0"/>
<feBlend mode="normal" in2="BackgroundImageFix" result="effect1_dropShadow"/>
<feBlend mode="normal" in="SourceGraphic" in2="effect1_dropShadow" result="shape"/>
</filter>
<filter id="filter13_d" x="39.5105" y="113.4" width="52.7273" height="80" filterUnits="userSpaceOnUse" color-interpolation-filters="sRGB">
<feFlood flood-opacity="0" result="BackgroundImageFix"/>
<feColorMatrix in="SourceAlpha" type="matrix" values="0 0 0 0 0 0 0 0 0 0 0 0 0 0 0 0 0 0 127 0"/>
<feOffset dx="2" dy="4"/>
<feGaussianBlur stdDeviation="8"/>
<feColorMatrix type="matrix" values="0 0 0 0 0 0 0 0 0 0 0 0 0 0 0 0 0 0 0.1 0"/>
<feBlend mode="normal" in2="BackgroundImageFix" result="effect1_dropShadow"/>
<feBlend mode="normal" in="SourceGraphic" in2="effect1_dropShadow" result="shape"/>
</filter>
<filter id="filter14_d" x="118.434" y="100.6" width="41.5664" height="49.6" filterUnits="userSpaceOnUse" color-interpolation-filters="sRGB">
<feFlood flood-opacity="0" result="BackgroundImageFix"/>
<feColorMatrix in="SourceAlpha" type="matrix" values="0 0 0 0 0 0 0 0 0 0 0 0 0 0 0 0 0 0 127 0"/>
<feOffset dx="2" dy="4"/>
<feGaussianBlur stdDeviation="8"/>
<feColorMatrix type="matrix" values="0 0 0 0 0 0 0 0 0 0 0 0 0 0 0 0 0 0 0.1 0"/>
<feBlend mode="normal" in2="BackgroundImageFix" result="effect1_dropShadow"/>
<feBlend mode="normal" in="SourceGraphic" in2="effect1_dropShadow" result="shape"/>
</filter>
</defs>
</svg>
