<svg width="300" height="243" viewBox="0 0 300 243" fill="none" xmlns="http://www.w3.org/2000/svg">
<path d="M14.3195 93.5198C14.3195 93.5198 -38.2826 216.414 102.347 225C115.766 224.463 251.029 220.707 265.521 215.34C271.962 212.657 310.609 197.094 297.19 164.895C293.969 157.382 281.087 135.379 278.94 133.769C276.256 130.549 262.837 114.986 276.793 99.9597C278.403 96.7397 297.19 57.0274 254.786 36.6345C247.271 33.4146 222.044 29.1214 211.309 32.8779C206.478 33.9512 193.596 38.2445 182.324 26.4381C172.662 18.9249 124.891 -17.0309 77.6566 9.80183C66.3848 15.705 41.1572 35.0246 30.4221 61.8572C26.6648 73.6636 14.3195 93.5198 14.3195 93.5198Z" fill="#F2F2F2"/>
<path d="M222.695 224L154.737 223.688C146.564 223.651 139.97 217.006 140 208.844L140.723 38.722C140.759 30.5541 147.415 23.9635 155.595 24.0002L223.553 24.312C231.727 24.3486 238.321 30.9943 238.29 39.1562L237.568 209.278C237.537 217.445 230.876 224.037 222.695 224Z" fill="#8F5F43"/>
<path d="M222.859 30.3011L209.885 30.2399C208.142 30.2338 206.725 31.7204 206.719 33.5679L206.707 35.9537C206.701 37.8011 205.284 39.2877 203.542 39.2817L178.251 39.1655C176.509 39.1593 175.11 37.6543 175.116 35.8068L175.128 33.4211C175.134 31.5736 173.73 30.0747 171.993 30.0624L167.429 30.038L156.077 29.983C150.44 29.9585 145.846 34.5773 145.822 40.2972L145.128 206.451C145.104 212.17 149.65 216.826 155.287 216.85L222.069 217.162C227.706 217.187 232.3 212.568 232.324 206.848L233.017 40.6948C233.047 34.9811 228.496 30.3255 222.859 30.3011Z" fill="white"/>
<path d="M167.24 89C168.023 89 168.659 89.6301 168.659 90.4074C168.659 91.1579 168.066 91.7712 167.32 91.8126L167.24 91.8149L157.838 91.8152L157.838 101.251C157.838 102.002 157.246 102.615 156.499 102.656L156.419 102.659C155.662 102.659 155.044 102.071 155.002 101.331L155 101.251V90.4074C155 89.6569 155.592 89.0436 156.338 89.0022L156.419 89H167.24Z" fill="#8F5F43"/>
<path d="M222.728 89C223.484 89 224.102 89.5874 224.144 90.3276L224.146 90.4075V101.251C224.146 102.028 223.511 102.659 222.728 102.659C221.971 102.659 221.353 102.071 221.311 101.331L221.309 101.251L221.309 91.8151L211.907 91.815C211.15 91.815 210.532 91.2275 210.49 90.4873L210.488 90.4075C210.488 89.657 211.08 89.0436 211.826 89.0022L211.907 89H222.728Z" fill="#8F5F43"/>
<path d="M156.419 143.634C157.175 143.634 157.794 144.222 157.836 144.962L157.838 145.042L157.838 154.478L167.24 154.478C167.996 154.478 168.615 155.065 168.656 155.805L168.659 155.885C168.659 156.636 168.066 157.249 167.32 157.29L167.24 157.293H156.419C155.662 157.293 155.044 156.705 155.002 155.965L155 155.885V145.042C155 144.264 155.635 143.634 156.419 143.634Z" fill="#8F5F43"/>
<path d="M222.728 145.341C223.484 145.341 224.102 145.929 224.144 146.669L224.146 146.749V157.593C224.146 158.343 223.554 158.956 222.808 158.998L222.728 159H211.907C211.123 159 210.488 158.37 210.488 157.593C210.488 156.842 211.08 156.229 211.826 156.188L211.907 156.185L221.309 156.186L221.309 146.749C221.309 145.998 221.901 145.385 222.647 145.344L222.728 145.341Z" fill="#8F5F43"/>
<mask id="mask0" mask-type="alpha" maskUnits="userSpaceOnUse" x="183" y="99" width="15" height="10">
<path fill-rule="evenodd" clip-rule="evenodd" d="M183.486 99.5476H197.124V108.754H183.486V99.5476Z" fill="white"/>
</mask>
<g mask="url(#mask0)">
<path d="M183.486 99.9739L185.009 99.5475C185.009 99.5475 187.279 101.405 189.945 101.174C192.611 100.944 194.681 99.7946 194.681 99.7946L197.124 100.371C197.124 100.371 193.438 109.539 190.305 108.699C187.172 107.86 183.486 99.9739 183.486 99.9739Z" fill="#8F5F43"/>
</g>
<mask id="mask1"  maskUnits="userSpaceOnUse" x="181" y="99" width="18" height="19">
<path fill-rule="evenodd" clip-rule="evenodd" d="M181.426 99.5527H198.161V117.646H181.426V99.5527Z" fill="white"/>
</mask>
<g mask="url(#mask1)">
<g filter="url(#filter0_d)">
<path d="M182.451 107.951C182.451 107.951 182.505 110.361 182.78 111.073C183.055 111.785 183.549 113.1 183.549 113.1L184.153 117.646H195.464L195.958 112.799C195.958 112.799 196.946 110.471 196.946 109.759V107.541C196.946 107.369 196.955 107.198 196.971 107.026C197.086 105.855 197.648 101.442 198.161 100.65L194.732 99.8083C194.732 99.8083 192.773 106.071 189.314 105.34C185.855 104.61 185.123 99.5526 185.123 99.5526L181.426 100.63C181.426 100.63 183.274 106.418 182.451 107.951Z" fill="#390B12"/>
</g>
</g>
<mask id="mask2"  maskUnits="userSpaceOnUse" x="172" y="117" width="36" height="32">
<path fill-rule="evenodd" clip-rule="evenodd" d="M172 117.341H207.975V148.904H172V117.341Z" fill="white"/>
</mask>
<g mask="url(#mask2)">
<g filter="url(#filter1_d)">
<path d="M184.178 117.341H195.367C195.367 117.341 202.174 125.91 205.216 135.568C208.258 145.226 207.968 145.952 207.968 145.952C207.968 145.952 199.784 150.092 192.904 148.567C186.024 147.042 176.541 150.303 172 145.75C172 145.75 178.764 122.769 184.178 117.341Z" fill="#390B12"/>
</g>
</g>
<g filter="url(#filter2_d)">
<path d="M187.418 116.483C184.608 115.05 183.805 104.773 182.193 100.389L181.406 100.625C181.406 100.625 183.214 106.438 182.408 107.978C182.408 107.978 182.462 110.399 182.731 111.114C182.999 111.829 183.482 113.15 183.482 113.15L184.073 117.716H195.135L195.267 116.386C193.998 116.899 189.877 117.737 187.418 116.483Z" fill="#390B12"/>
</g>
<path d="M189.593 118.211C186.406 118.211 184.358 117.974 183.881 117.782L183.951 117.231C184.316 117.378 186.409 117.665 189.593 117.665C192.77 117.665 195.072 117.274 195.267 117.221L195.256 117.779C195.051 117.835 192.83 118.211 189.593 118.211Z" fill="white"/>
<path fill-rule="evenodd" clip-rule="evenodd" d="M190.812 117.903C190.812 118.013 190.783 118.115 190.734 118.203C190.596 118.209 190.454 118.211 190.31 118.211C190.195 118.211 190.083 118.209 189.973 118.207C189.924 118.207 189.876 118.205 189.83 118.203C188.483 118.164 187.491 117.969 187.032 117.792C186.9 117.741 186.827 117.592 186.859 117.447C186.896 117.281 187.058 117.184 187.213 117.234C187.664 117.381 188.581 117.555 189.834 117.591C189.881 117.593 189.928 117.595 189.976 117.595C190.085 117.597 190.196 117.599 190.31 117.599C190.452 117.599 190.591 117.597 190.727 117.593C190.781 117.68 190.812 117.788 190.812 117.903Z" fill="#745075"/>
<path d="M190.677 118.203L190.675 118.205C189.714 118.238 187.931 118.138 187.031 117.791C186.9 117.74 186.826 117.594 186.859 117.449C186.89 117.312 187.004 117.221 187.13 117.221C187.157 117.221 187.186 117.227 187.213 117.235C188.141 117.537 189.647 117.614 190.667 117.596C190.85 117.769 190.867 118.003 190.677 118.203Z" fill="white"/>
<path d="M190.727 118.255C190.373 118.852 189.194 118.858 188.832 118.263C188.925 118.264 188.985 118.261 189.099 118.266C189.252 118.409 189.499 118.503 189.779 118.503C190.232 118.503 190.447 118.273 190.467 118.261C190.998 117.679 189.779 117.096 189.136 117.633C189.045 117.629 188.949 117.625 188.862 117.616C189.035 117.382 189.384 117.221 189.779 117.221C190.533 117.221 191.016 117.782 190.727 118.255Z" fill="#8F5F43"/>
<path fill-rule="evenodd" clip-rule="evenodd" d="M190.389 117.716C190.389 117.757 190.357 117.79 190.317 117.79C190.277 117.79 190.245 117.757 190.245 117.716C190.245 117.675 190.277 117.642 190.317 117.642C190.357 117.642 190.389 117.675 190.389 117.716Z" fill="#3C233D"/>
<g filter="url(#filter3_d)">
<path d="M190.683 117.787H190.445C190.374 117.787 190.317 117.755 190.317 117.716C190.317 117.677 190.374 117.645 190.445 117.645H190.683C190.754 117.645 190.812 117.677 190.812 117.716C190.812 117.755 190.754 117.787 190.683 117.787Z" fill="#390B12"/>
</g>
<g filter="url(#filter4_d)">
<path d="M190.805 117.672C190.79 117.702 190.74 117.726 190.678 117.726H190.317C190.341 117.746 190.381 117.76 190.429 117.76H190.678C190.752 117.76 190.812 117.728 190.812 117.689C190.812 117.683 190.808 117.678 190.805 117.672Z" fill="#390B12"/>
</g>
<path d="M189.327 117.379C189.949 117.076 190.492 117.24 190.795 117.603C190.846 117.664 190.768 117.757 190.717 117.696C190.714 117.692 190.713 117.69 190.712 117.688C190.461 117.34 189.953 117.134 189.327 117.379Z" fill="#8F5F43"/>
<path d="M189.327 118.559C189.953 118.848 190.496 118.68 190.795 118.321C190.846 118.26 190.768 118.17 190.717 118.231C190.713 118.235 190.713 118.237 190.711 118.239C190.464 118.582 189.956 118.79 189.327 118.559Z" fill="#8F5F43"/>
<mask id="mask3"  maskUnits="userSpaceOnUse" x="264" y="51" width="21" height="15">
<path fill-rule="evenodd" clip-rule="evenodd" d="M264.527 51.7906H284.152V65.0807H264.527V51.7906Z" fill="white"/>
</mask>
<g mask="url(#mask3)">
<path d="M264.527 52.406L266.719 51.7904C266.719 51.7904 269.985 54.4715 273.821 54.1387C277.657 53.8059 280.636 52.1472 280.636 52.1472L284.152 52.9789C284.152 52.9789 278.847 66.2144 274.339 65.0022C269.831 63.79 264.527 52.406 264.527 52.406Z" fill="#8F5F43"/>
</g>
<mask id="mask4"  maskUnits="userSpaceOnUse" x="261" y="51" width="25" height="27">
<path fill-rule="evenodd" clip-rule="evenodd" d="M261.563 51.7981H285.643V77.9177H261.563V51.7981Z" fill="white"/>
</mask>
<g mask="url(#mask4)">
<g filter="url(#filter5_d)">
<path d="M263.037 63.9221C263.037 63.9221 263.116 67.4012 263.512 68.4291C263.907 69.457 264.618 71.3545 264.618 71.3545L265.487 77.9177H281.762L282.473 70.9199C282.473 70.9199 283.895 67.5593 283.895 66.5313V63.3299C283.895 63.0817 283.907 62.8344 283.931 62.5871C284.096 60.8961 284.905 54.5255 285.643 53.3824L280.709 52.1669C280.709 52.1669 277.891 61.2074 272.913 60.153C267.936 59.0989 266.882 51.7979 266.882 51.7979L261.563 53.353C261.563 53.353 264.222 61.7081 263.037 63.9221Z" fill="#390B12"/>
</g>
</g>
<mask id="mask5"  maskUnits="userSpaceOnUse" x="248" y="77" width="52" height="47">
<path fill-rule="evenodd" clip-rule="evenodd" d="M248 77.4774H299.765V123.041H248V77.4774Z" fill="white"/>
</mask>
<g mask="url(#mask5)">
<g filter="url(#filter6_d)">
<path d="M265.522 77.4774H281.622C281.622 77.4774 291.418 89.8474 295.795 103.79C300.171 117.732 299.754 118.78 299.754 118.78C299.754 118.78 287.979 124.756 278.079 122.554C268.18 120.353 254.534 125.061 248 118.488C248 118.488 257.733 85.3133 265.522 77.4774Z" fill="#390B12"/>
</g>
</g>
<g filter="url(#filter7_d)">
<path d="M270.185 76.2382C266.141 74.1697 264.986 59.3343 262.667 53.0054L261.534 53.3454C261.534 53.3454 264.135 61.7373 262.976 63.9613C262.976 63.9613 263.054 67.4554 263.44 68.4878C263.826 69.5203 264.522 71.4264 264.522 71.4264L265.372 78.0182H281.289L281.479 76.0985C279.653 76.8396 273.724 78.0483 270.185 76.2382Z" fill="#390B12"/>
</g>
<path d="M273.315 78.7328C268.729 78.7328 265.783 78.3905 265.096 78.1142L265.196 77.319C265.721 77.5305 268.734 77.9454 273.315 77.9454C277.886 77.9454 281.198 77.3798 281.479 77.3035L281.463 78.11C281.169 78.1898 277.972 78.7328 273.315 78.7328Z" fill="white"/>
<path fill-rule="evenodd" clip-rule="evenodd" d="M275.069 78.288C275.069 78.4471 275.027 78.5943 274.956 78.721C274.757 78.7298 274.553 78.7328 274.346 78.7328C274.181 78.7328 274.019 78.7298 273.862 78.7269C273.791 78.7269 273.722 78.7239 273.655 78.721C271.718 78.6656 270.29 78.3832 269.63 78.1275C269.439 78.0539 269.334 77.8397 269.381 77.6306C269.435 77.39 269.667 77.2498 269.891 77.3228C270.539 77.5349 271.859 77.7856 273.661 77.8374C273.729 77.8403 273.796 77.8433 273.865 77.8433C274.022 77.8462 274.183 77.8492 274.346 77.8492C274.55 77.8492 274.751 77.8462 274.947 77.8403C275.023 77.967 275.069 78.1231 275.069 78.288Z" fill="#745075"/>
<path d="M274.874 78.7214L274.871 78.7243C273.489 78.7714 270.922 78.6279 269.628 78.1272C269.439 78.0536 269.334 77.8418 269.381 77.6329C269.426 77.4358 269.59 77.3035 269.77 77.3035C269.809 77.3035 269.851 77.3123 269.89 77.3241C271.226 77.7603 273.393 77.8706 274.86 77.8448C275.124 78.0957 275.147 78.4322 274.874 78.7214Z" fill="white"/>
<path d="M274.947 78.7959C274.437 79.6583 272.741 79.6668 272.219 78.8081C272.353 78.8102 272.44 78.8058 272.604 78.8122C272.824 79.0196 273.179 79.1551 273.582 79.1551C274.235 79.1551 274.544 78.8219 274.573 78.8046C275.337 77.9647 273.582 77.1236 272.657 77.8987C272.526 77.8928 272.388 77.887 272.263 77.8744C272.512 77.5356 273.014 77.3035 273.582 77.3035C274.668 77.3035 275.362 78.1142 274.947 78.7959Z" fill="#8F5F43"/>
<path fill-rule="evenodd" clip-rule="evenodd" d="M274.46 78.0181C274.46 78.0773 274.413 78.125 274.356 78.125C274.299 78.125 274.253 78.0773 274.253 78.0181C274.253 77.9589 274.299 77.9112 274.356 77.9112C274.413 77.9112 274.46 77.9589 274.46 78.0181Z" fill="#3C233D"/>
<g filter="url(#filter8_d)">
<path d="M274.883 78.1204H274.541C274.439 78.1204 274.356 78.0746 274.356 78.0181C274.356 77.9616 274.439 77.9158 274.541 77.9158H274.883C274.986 77.9158 275.068 77.9616 275.068 78.0181C275.068 78.0746 274.986 78.1204 274.883 78.1204Z" fill="#390B12"/>
</g>
<g filter="url(#filter9_d)">
<path d="M275.059 77.9547C275.038 77.9989 274.965 78.0324 274.875 78.0324H274.356C274.391 78.0613 274.448 78.0815 274.517 78.0815H274.875C274.982 78.0815 275.068 78.0357 275.068 77.9792C275.068 77.9705 275.063 77.9629 275.059 77.9547Z" fill="#390B12"/>
</g>
<path d="M272.932 77.5318C273.827 77.0944 274.609 77.3311 275.044 77.8553C275.118 77.9439 275.006 78.0776 274.932 77.989C274.928 77.9833 274.927 77.9807 274.924 77.978C274.564 77.4762 273.832 77.1789 272.932 77.5318Z" fill="#8F5F43"/>
<path d="M272.932 79.2355C273.833 79.6522 274.613 79.4105 275.045 78.8918C275.118 78.8039 275.005 78.6742 274.932 78.762C274.927 78.7676 274.926 78.7706 274.923 78.7728C274.567 79.2689 273.837 79.5692 272.932 79.2355Z" fill="#8F5F43"/>
<g filter="url(#filter10_d)">
<path d="M48.6241 212.8C48.6241 212.8 30.5402 217.619 29.8144 217.865C28.7253 218.234 28.9084 222.077 30.6034 222.017C31.4054 221.989 44.4937 222.486 46.1475 222.387C47.8013 222.287 52.2518 220.594 52.2518 220.594L48.6241 212.8Z" fill="#390B12"/>
</g>
<path fill-rule="evenodd" clip-rule="evenodd" d="M41.0499 219.2C40.9476 219.211 40.809 218.364 40.1488 217.48C39.5048 216.589 38.6389 216.07 38.7026 216.006C38.7383 215.944 39.7541 216.395 40.4456 217.346C41.1479 218.292 41.1361 219.207 41.0499 219.2Z" fill="#1A2E35"/>
<path fill-rule="evenodd" clip-rule="evenodd" d="M42.6595 218.4C42.5796 218.414 42.4152 217.622 41.9819 216.748C41.5568 215.869 41.037 215.261 41.0954 215.204C41.1406 215.149 41.7761 215.696 42.225 216.622C42.6802 217.544 42.7293 218.395 42.6595 218.4Z" fill="#1A2E35"/>
<path fill-rule="evenodd" clip-rule="evenodd" d="M44.9526 218.399C44.8575 218.395 44.93 217.593 44.5121 216.705C44.1118 215.81 43.4211 215.263 43.4869 215.205C43.5248 215.144 44.3688 215.639 44.8056 216.607C45.2542 217.57 45.0288 218.423 44.9526 218.399Z" fill="#1A2E35"/>
<path fill-rule="evenodd" clip-rule="evenodd" d="M44.4697 215.706C44.4379 215.714 44.281 215.173 44.2797 214.263C44.281 213.81 44.3285 213.267 44.4591 212.681C44.524 212.389 44.6113 212.086 44.7224 211.782C44.7797 211.628 44.8454 211.45 45.0061 211.306C45.1711 211.144 45.4717 211.178 45.6142 211.339C45.7766 211.494 45.8279 211.712 45.8504 211.887C45.8682 212.065 45.8771 212.232 45.8733 212.4C45.869 212.734 45.8296 213.054 45.7639 213.349C45.6333 213.941 45.4221 214.438 45.219 214.831C44.8064 215.618 44.4489 216.021 44.4235 215.999C44.3828 215.968 44.6796 215.516 45.0332 214.725C45.2071 214.33 45.3886 213.844 45.4976 213.283C45.5523 213.004 45.5828 212.706 45.5828 212.397C45.5752 212.099 45.579 211.727 45.42 211.584C45.3356 211.507 45.2593 211.502 45.1855 211.563C45.1074 211.628 45.0417 211.761 44.9913 211.902C44.8819 212.191 44.7924 212.478 44.7233 212.757C44.5838 213.315 44.5163 213.833 44.4888 214.271C44.437 215.149 44.518 215.698 44.4697 215.706Z" fill="#1A2E35"/>
<path fill-rule="evenodd" clip-rule="evenodd" d="M44.2798 216.154C44.2726 216.127 44.6572 216.004 45.3075 216C45.6314 216 46.0203 216.031 46.4385 216.129C46.6446 216.181 46.8663 216.231 47.0895 216.353C47.3078 216.455 47.5364 216.737 47.4497 217.03C47.381 217.305 47.1273 217.498 46.8754 217.559C46.6217 217.625 46.3759 217.601 46.1607 217.557C45.7234 217.464 45.3834 217.263 45.1254 217.083C44.6145 216.711 44.3653 216.426 44.3844 216.405C44.4126 216.373 44.7145 216.617 45.2334 216.94C45.4944 217.095 45.8215 217.263 46.2107 217.333C46.4045 217.368 46.6133 217.378 46.8018 217.326C46.9895 217.278 47.1452 217.145 47.1899 216.973C47.2357 216.808 47.1273 216.656 46.9529 216.56C46.7823 216.461 46.5709 216.405 46.3752 216.35C45.981 216.245 45.612 216.197 45.3014 216.176C44.6774 216.135 44.2867 216.194 44.2798 216.154Z" fill="#1A2E35"/>
<path fill-rule="evenodd" clip-rule="evenodd" d="M38.5377 219.999C38.4346 219.989 38.5367 219.179 38.1278 218.291C37.7383 217.396 37.044 216.882 37.1092 216.809C37.1436 216.731 38.0132 217.18 38.45 218.171C38.8988 219.158 38.6214 220.033 38.5377 219.999Z" fill="#1A2E35"/>
<path fill-rule="evenodd" clip-rule="evenodd" d="M50.6571 220.805C50.6653 220.824 50.4197 220.939 49.9675 221.131C49.5093 221.305 48.8388 221.549 47.983 221.749C46.2774 222.181 43.8459 222.426 41.1743 222.398C38.5019 222.368 36.0938 222.245 34.3472 222.176C33.5209 222.132 32.8282 222.095 32.2808 222.066C31.7931 222.033 31.5236 222.005 31.5245 221.984C31.5249 221.964 31.7956 221.952 32.2846 221.949C32.8321 221.953 33.526 221.958 34.3536 221.964C36.16 221.999 38.5416 222.046 41.176 222.098C43.8352 222.126 46.2373 221.917 47.936 221.543C49.6412 221.19 50.6366 220.749 50.6571 220.805Z" fill="#1A2E35"/>
<path fill-rule="evenodd" clip-rule="evenodd" d="M51.454 220.747C51.4294 220.789 50.9354 220.498 50.1005 220.129C49.2761 219.773 48.0398 219.346 46.6825 219.557C45.3212 219.767 44.3562 220.688 43.7281 221.327C43.0944 221.99 42.7237 222.429 42.687 222.398C42.6597 222.376 42.9677 221.893 43.5711 221.181C43.8756 220.83 44.2628 220.422 44.7689 220.053C45.2693 219.683 45.9134 219.368 46.6349 219.257C48.0913 219.032 49.3743 219.522 50.1909 219.935C51.0197 220.361 51.4722 220.717 51.454 220.747Z" fill="#1A2E35"/>
<path fill-rule="evenodd" clip-rule="evenodd" d="M33.1912 221.599C33.1565 221.575 33.3193 221.318 33.4692 220.865C33.6205 220.416 33.7368 219.751 33.6087 219.041C33.4797 218.331 33.1378 217.751 32.8397 217.387C32.5407 217.018 32.2992 216.838 32.3233 216.803C32.3379 216.777 32.6228 216.905 32.9751 217.262C33.3252 217.612 33.7231 218.222 33.8635 218.993C34.0025 219.764 33.8443 220.479 33.6397 220.933C33.4355 221.395 33.214 221.618 33.1912 221.599Z" fill="#1A2E35"/>
<g filter="url(#filter11_d)">
<path d="M67.3677 212.8C67.3677 212.8 85.6778 215.621 86.419 215.788C87.5316 216.04 87.821 220.026 86.1523 220.166C85.3628 220.232 72.5961 222.302 70.9633 222.395C69.3301 222.489 64.2098 221.13 64.2098 221.13L67.3677 212.8Z" fill="#390B12"/>
</g>
<path fill-rule="evenodd" clip-rule="evenodd" d="M75.4401 219.2C75.5256 219.202 75.5325 218.195 75.9623 217.089C76.3779 215.975 77.0212 215.273 76.9611 215.205C76.924 215.137 76.1495 215.776 75.7028 216.965C75.2464 218.148 75.3706 219.217 75.4401 219.2Z" fill="#1A2E35"/>
<path fill-rule="evenodd" clip-rule="evenodd" d="M73.0437 218.4C73.1473 218.404 73.2405 217.638 73.6632 216.762C74.0754 215.884 74.6484 215.25 74.5653 215.203C74.4997 215.156 73.7699 215.746 73.3342 216.672C72.8899 217.595 72.954 218.404 73.0437 218.4Z" fill="#1A2E35"/>
<path fill-rule="evenodd" clip-rule="evenodd" d="M71.5331 218.399C71.593 218.381 71.4756 217.433 71.6615 216.321C71.8354 215.204 72.2249 214.466 72.178 214.405C72.1486 214.337 71.6575 215.032 71.4666 216.24C71.268 217.445 71.4868 218.436 71.5331 218.399Z" fill="#1A2E35"/>
<path fill-rule="evenodd" clip-rule="evenodd" d="M71.316 215.754C71.3439 215.758 71.4265 215.279 71.3435 214.503C71.3004 214.117 71.2094 213.659 71.0445 213.174C70.9623 212.932 70.8601 212.684 70.7372 212.437C70.6742 212.311 70.6024 212.168 70.4527 212.063C70.2972 211.943 70.0454 212.005 69.9395 212.159C69.816 212.309 69.7928 212.501 69.7902 212.653C69.7913 212.807 69.7993 212.949 69.8181 213.092C69.8526 213.376 69.916 213.645 69.999 213.889C70.165 214.38 70.39 214.78 70.5988 215.093C71.0221 215.717 71.3631 216.02 71.3823 215.999C71.4138 215.968 71.1199 215.616 70.747 214.982C70.5622 214.663 70.3632 214.269 70.219 213.804C70.1465 213.572 70.0932 213.321 70.0642 213.058C70.0432 212.803 70.0055 212.486 70.1273 212.346C70.1918 212.272 70.2559 212.258 70.3241 212.301C70.3962 212.349 70.4643 212.455 70.5201 212.569C70.6401 212.804 70.7423 213.038 70.8271 213.269C70.9971 213.728 71.1025 214.163 71.1663 214.533C71.2921 215.276 71.2743 215.753 71.316 215.754Z" fill="#1A2E35"/>
<path fill-rule="evenodd" clip-rule="evenodd" d="M71.3846 215.29C71.3885 215.253 70.9761 215.144 70.3057 215.237C69.9725 215.284 69.5763 215.386 69.1584 215.582C68.9526 215.683 68.7309 215.783 68.5176 215.982C68.3063 216.154 68.1084 216.57 68.2362 216.953C68.3431 217.316 68.6304 217.539 68.8979 217.582C69.1679 217.634 69.4176 217.565 69.6337 217.473C70.0714 217.28 70.3951 216.958 70.637 216.675C71.1135 216.094 71.3323 215.67 71.3102 215.645C71.2769 215.606 70.9983 215.982 70.5068 216.497C70.2582 216.747 69.944 217.023 69.5525 217.177C69.3574 217.253 69.1441 217.299 68.9427 217.256C68.7432 217.219 68.5651 217.063 68.4966 216.837C68.4274 216.62 68.5184 216.399 68.6854 216.242C68.8481 216.083 69.0582 215.974 69.2529 215.871C69.6452 215.669 70.0184 215.549 70.3358 215.473C70.9726 215.324 71.383 215.345 71.3846 215.29Z" fill="#1A2E35"/>
<path fill-rule="evenodd" clip-rule="evenodd" d="M77.9325 219.199C77.9954 219.178 77.8665 218.416 78.0472 217.526C78.2148 216.631 78.602 216.069 78.5556 216.006C78.5283 215.937 78.0273 216.455 77.8383 217.446C77.6413 218.433 77.8833 219.239 77.9325 219.199Z" fill="#1A2E35"/>
<path fill-rule="evenodd" clip-rule="evenodd" d="M65.8043 220.956C65.7987 220.974 66.0558 221.046 66.5276 221.162C67.0032 221.262 67.6974 221.4 68.5705 221.483C70.3147 221.675 72.7577 221.634 75.4061 221.338C78.0558 221.041 80.4318 220.693 82.1571 220.456C82.9726 220.335 83.6562 220.233 84.1958 220.152C84.6762 220.075 84.94 220.024 84.937 220.007C84.9341 219.989 84.6642 220.007 84.1783 220.054C83.6353 220.113 82.947 220.188 82.126 220.277C80.337 220.491 77.9781 220.773 75.3694 221.085C72.7329 221.379 70.3232 221.447 68.5923 221.303C66.8584 221.179 65.8184 220.907 65.8043 220.956Z" fill="#1A2E35"/>
<path fill-rule="evenodd" clip-rule="evenodd" d="M65.0078 221.864C65.0364 221.899 65.4864 221.584 66.2597 221.163C67.0246 220.753 68.1845 220.235 69.5361 220.278C70.8925 220.319 71.9433 221.042 72.6323 221.548C73.3286 222.075 73.7427 222.43 73.7751 222.398C73.799 222.374 73.4415 221.973 72.7686 221.4C72.4299 221.117 72.0038 220.793 71.466 220.516C70.9334 220.238 70.2669 220.024 69.5481 220.002C68.0976 219.959 66.8993 220.538 66.149 220.997C65.3879 221.471 64.9865 221.84 65.0078 221.864Z" fill="#1A2E35"/>
<path fill-rule="evenodd" clip-rule="evenodd" d="M123.446 137.43L123.879 136.555C123.879 136.555 123.837 136.044 123.628 135.675C123.418 135.306 122.674 135.336 122.674 135.336L122.786 135.091C122.946 134.74 122.913 134.33 122.695 134.014C122.661 133.966 122.625 133.917 122.586 133.869C122.283 133.495 121.645 133.387 121.645 133.387C121.645 133.387 122.067 132.565 121.88 132.221C121.631 131.765 120.732 131.277 120.071 131.501C119.353 131.744 117.831 132.491 116.779 133.083C116.364 133.317 115.843 133.123 115.676 132.674C115.36 131.819 114.801 130.516 114.069 129.626C113.271 128.656 112.52 128.734 112.085 128.904C111.876 128.985 111.79 129.237 111.906 129.43C112.238 129.982 112.888 131.086 113.061 131.553C113.268 132.112 113.5 136.333 113.5 136.333L112.354 138.535L100.771 156.975C100.771 156.975 83.2991 145.098 83.3683 144.803L82.5455 158.419L95.7145 167.239C98.0022 168.771 100.846 169.202 103.479 168.414C106.097 167.631 108.241 165.722 109.336 163.199L118.197 143.804L119.272 142.218L123.446 139.521C123.446 139.521 124.127 138.311 123.979 137.957C123.831 137.603 123.446 137.43 123.446 137.43Z" fill="#FFBF9D"/>
<path fill-rule="evenodd" clip-rule="evenodd" d="M121.608 133.224C121.61 133.227 121.584 133.252 121.531 133.297C121.468 133.348 121.391 133.412 121.297 133.49C121.079 133.663 120.785 133.897 120.425 134.183C120.051 134.476 119.611 134.821 119.123 135.202C118.874 135.389 118.63 135.603 118.337 135.787C118.05 135.964 117.66 136.085 117.302 135.926C117.126 135.847 116.993 135.693 116.918 135.523C116.843 135.352 116.817 135.166 116.827 134.988C116.846 134.624 117.037 134.316 117.24 134.078C117.449 133.837 117.681 133.648 117.89 133.469C118.1 133.29 118.296 133.123 118.477 132.97C118.829 132.674 119.118 132.431 119.331 132.252C119.426 132.176 119.503 132.113 119.566 132.062C119.621 132.019 119.65 131.998 119.652 132C119.655 132.003 119.629 132.029 119.579 132.077C119.519 132.132 119.446 132.2 119.355 132.283C119.148 132.468 118.866 132.718 118.522 133.025C118.344 133.181 118.151 133.351 117.943 133.533C117.735 133.716 117.509 133.906 117.309 134.14C117.114 134.372 116.94 134.661 116.925 134.993C116.902 135.316 117.032 135.691 117.343 135.834C117.494 135.903 117.668 135.913 117.83 135.883C117.994 135.854 118.147 135.785 118.288 135.7C118.568 135.527 118.819 135.311 119.069 135.127C119.56 134.752 120.005 134.414 120.382 134.126C120.75 133.851 121.052 133.624 121.273 133.458C121.372 133.386 121.453 133.328 121.519 133.281C121.575 133.241 121.606 133.222 121.608 133.224Z" fill="#FF9A6C"/>
<path fill-rule="evenodd" clip-rule="evenodd" d="M123.203 135.201C123.207 135.207 123.136 135.269 123.004 135.376C122.872 135.482 122.677 135.631 122.434 135.81C121.947 136.169 121.261 136.646 120.48 137.133C120.284 137.253 120.096 137.377 119.894 137.47C119.695 137.563 119.478 137.618 119.27 137.595C118.851 137.542 118.552 137.219 118.463 136.909C118.37 136.591 118.444 136.319 118.518 136.162C118.556 136.082 118.597 136.027 118.626 135.991C118.656 135.957 118.674 135.941 118.676 135.944C118.684 135.95 118.62 136.023 118.557 136.181C118.497 136.336 118.442 136.596 118.536 136.882C118.626 137.162 118.906 137.448 119.281 137.489C119.465 137.507 119.662 137.456 119.851 137.366C120.041 137.277 120.229 137.154 120.424 137.033C121.203 136.548 121.894 136.084 122.391 135.743C122.625 135.583 122.822 135.447 122.98 135.339C123.119 135.244 123.198 135.194 123.203 135.201Z" fill="#FF9A6C"/>
<path fill-rule="evenodd" clip-rule="evenodd" d="M123.203 136.801C123.206 136.808 123.139 136.849 123.015 136.918C122.872 136.995 122.696 137.089 122.488 137.2C122.041 137.435 121.421 137.751 120.733 138.095C120.561 138.18 120.395 138.271 120.22 138.333C120.045 138.396 119.857 138.422 119.686 138.379C119.515 138.34 119.362 138.227 119.288 138.076C119.214 137.926 119.205 137.765 119.227 137.629C119.277 137.35 119.436 137.183 119.538 137.086C119.646 136.988 119.716 136.952 119.719 136.956C119.725 136.964 119.662 137.012 119.565 137.116C119.472 137.219 119.332 137.388 119.297 137.64C119.281 137.764 119.294 137.908 119.361 138.034C119.426 138.16 119.554 138.252 119.706 138.284C119.858 138.319 120.025 138.296 120.189 138.235C120.354 138.176 120.518 138.085 120.691 138C121.379 137.656 122.004 137.35 122.458 137.133C122.671 137.034 122.852 136.949 122.999 136.881C123.127 136.823 123.2 136.794 123.203 136.801Z" fill="#FF9A6C"/>
<path fill-rule="evenodd" clip-rule="evenodd" d="M124 138.669C124.003 138.68 123.732 138.732 123.292 138.807C122.851 138.882 122.242 138.98 121.567 139.082C121.398 139.108 121.234 139.132 121.074 139.157C120.915 139.18 120.756 139.204 120.597 139.199C120.44 139.195 120.287 139.158 120.176 139.086C120.061 139.016 120.009 138.908 120.014 138.817C120.033 138.629 120.185 138.518 120.286 138.462C120.393 138.405 120.467 138.397 120.468 138.401C120.473 138.408 120.405 138.427 120.313 138.488C120.226 138.546 120.1 138.66 120.095 138.817C120.096 138.894 120.14 138.976 120.235 139.032C120.33 139.089 120.461 139.12 120.601 139.121C120.742 139.124 120.893 139.1 121.052 139.075C121.211 139.05 121.375 139.025 121.544 138.999C122.219 138.897 122.831 138.808 123.276 138.748C123.721 138.688 123.997 138.657 124 138.669Z" fill="#FF9A6C"/>
<path fill-rule="evenodd" clip-rule="evenodd" d="M119.217 138.107C119.207 138.169 118.683 137.817 118.013 137.883C117.342 137.934 116.838 138.377 116.826 138.318C116.809 138.281 117.311 137.738 118.008 137.684C118.704 137.616 119.231 138.067 119.217 138.107Z" fill="#FF9A6C"/>
<path d="M56.1987 134.145C56.1987 134.145 50.2912 129.097 51.6604 125.62C53.0292 122.143 56.8184 120.418 58.6827 114.097C60.1723 109.046 69.0469 99.3169 79.5622 106.631C79.5622 106.631 83.1213 106.061 85.1465 107.704C87.1722 109.347 87.6583 112.625 88.5179 116.411C89.8427 122.245 90.5678 126.729 88.004 129.58C85.4402 132.43 84.5046 133.202 84.6416 136.446C84.8204 140.68 86.6634 140.113 85.074 143.2L76.254 140.283L76.1626 137.823L75.2693 140.138L70.1374 138.268L56.1987 134.145Z" fill="#272422"/>
<path d="M85.9437 112.8C85.3802 114.109 85.8421 115.621 86.3779 116.942C86.9133 118.263 87.5339 119.663 87.263 121.064C86.7831 123.548 83.7334 124.932 83.3954 127.439C83.214 128.783 83.8808 130.15 83.623 131.481C83.3735 132.768 82.3083 133.738 81.18 134.385C80.0517 135.033 78.8009 135.463 77.7398 136.219C77.7398 136.219 75.4052 138.154 71.3846 134.963" fill="#272422"/>
<path fill-rule="evenodd" clip-rule="evenodd" d="M69.1306 109.658C68.0236 109.398 66.903 110.033 66.5508 111.119L58.0125 139.588C56.9099 142.917 61.0795 146.472 64.6371 147.631C68.2301 148.801 68.9573 147.086 70.0994 143.951C72.0083 138.714 72.6904 136.737 72.6822 136.767C72.6822 136.767 77.4491 137.59 80.4271 132.009C81.9077 129.234 83.4278 124.366 84.5433 120.343C85.5475 116.722 84.7149 111.558 81.0704 110.704L69.1306 109.658Z" fill="#FFBF9D"/>
<path fill-rule="evenodd" clip-rule="evenodd" d="M81.7158 123.432C81.5918 123.855 81.1489 124.094 80.7262 123.965C80.3044 123.837 80.0623 123.392 80.1864 122.968C80.3104 122.546 80.7537 122.306 81.1751 122.435C81.5978 122.563 81.8398 123.01 81.7158 123.432Z" fill="#1A2E35"/>
<path fill-rule="evenodd" clip-rule="evenodd" d="M82.5128 122.395C82.3775 122.468 81.9263 121.775 81.0626 121.462C80.2044 121.137 79.4167 121.372 79.36 121.227C79.3303 121.161 79.4972 121 79.8428 120.89C80.1834 120.779 80.7138 120.744 81.2505 120.943C81.7868 121.142 82.1699 121.515 82.3597 121.822C82.554 122.132 82.5782 122.363 82.5128 122.395Z" fill="#1A2E35"/>
<path fill-rule="evenodd" clip-rule="evenodd" d="M73.7437 121.032C73.6197 121.455 73.1767 121.694 72.754 121.565C72.3325 121.437 72.09 120.992 72.2145 120.568C72.3385 120.146 72.7814 119.906 73.2033 120.035C73.6261 120.163 73.8677 120.61 73.7437 121.032Z" fill="#1A2E35"/>
<path fill-rule="evenodd" clip-rule="evenodd" d="M74.5413 119.995C74.4055 120.068 73.9533 119.375 73.0906 119.062C72.2325 118.737 71.4447 118.972 71.388 118.827C71.3583 118.761 71.5238 118.6 71.8708 118.49C72.2114 118.379 72.7418 118.344 73.2785 118.543C73.8148 118.742 74.1984 119.114 74.3876 119.422C74.5815 119.732 74.6062 119.963 74.5413 119.995Z" fill="#1A2E35"/>
<path fill-rule="evenodd" clip-rule="evenodd" d="M75.3709 126.679C75.3832 126.633 75.9323 126.719 76.8095 126.893C77.0299 126.942 77.2464 126.968 77.3325 126.843C77.4363 126.714 77.427 126.468 77.4098 126.201C77.3886 125.649 77.367 125.071 77.3436 124.465C77.272 122 77.2985 120.002 77.4041 120C77.5088 119.998 77.6528 121.994 77.7248 124.459C77.7371 125.065 77.7499 125.643 77.761 126.195C77.7575 126.45 77.8003 126.755 77.5808 127.02C77.4681 127.151 77.272 127.209 77.1227 127.199C76.9721 127.193 76.851 127.156 76.7437 127.128C75.8828 126.893 75.3576 126.725 75.3709 126.679Z" fill="#1A2E35"/>
<path fill-rule="evenodd" clip-rule="evenodd" d="M72.979 136.971C72.979 136.971 68.9174 135.82 65.8042 132C65.8042 132 66.3876 136.863 72.4897 138.4L72.979 136.971Z" fill="#FF9A6C"/>
<path fill-rule="evenodd" clip-rule="evenodd" d="M74.5392 128.923C74.3988 128.49 74.0084 128.144 73.5386 128.035C73.2129 127.96 72.8428 128.001 72.5632 128.19C72.2832 128.379 72.1171 128.727 72.2057 129.03C72.3055 129.371 72.6917 129.576 73.071 129.597C73.4507 129.619 73.827 129.495 74.1879 129.368C74.288 129.332 74.3904 129.295 74.469 129.226C74.5477 129.157 74.5971 129.049 74.5619 128.957" fill="#FF9A6C"/>
<path fill-rule="evenodd" clip-rule="evenodd" d="M75.3588 117.54C75.2304 117.698 74.3977 117.5 73.3721 117.448C72.3478 117.382 71.4834 117.484 71.3902 117.314C71.3497 117.233 71.5322 117.094 71.9019 116.975C72.269 116.857 72.8269 116.773 73.4414 116.808C74.0558 116.843 74.5889 116.989 74.9255 117.148C75.2656 117.307 75.4159 117.465 75.3588 117.54Z" fill="#1A2E35"/>
<path fill-rule="evenodd" clip-rule="evenodd" d="M83.2929 119.969C83.0791 120.117 82.4882 119.701 81.7187 119.443C80.9557 119.159 80.2589 119.119 80.1603 118.86C80.1195 118.736 80.2727 118.567 80.6053 118.468C80.9339 118.368 81.4431 118.365 81.9701 118.551C82.4967 118.737 82.9118 119.068 83.1292 119.362C83.3511 119.657 83.3895 119.893 83.2929 119.969Z" fill="#1A2E35"/>
<path d="M59.4266 128.59C61.0019 123.236 62.5771 117.882 64.1524 112.528C64.4757 111.43 64.8484 110.256 65.7493 109.565C66.601 108.913 67.74 108.835 68.8071 108.813C73.4082 108.716 78.0206 109.178 82.5141 110.186C82.7295 111.277 81.8007 112.311 80.762 112.665C79.7236 113.019 78.5956 112.895 77.5002 112.907C76.4047 112.918 75.214 113.118 74.4723 113.936C73.6832 114.806 73.6058 116.152 72.8611 117.061C71.579 118.626 68.8973 118.296 67.6245 119.868C66.6615 121.056 66.9213 122.795 66.604 124.299C66.2443 126.005 66.2443 126.005 64.9297 128.513C64.1228 130.053 66.1533 132.99 64.1304 136.8L60.2055 135.666L61.9289 129.782L59.5937 135.301L59.4266 128.59Z" fill="#272422"/>
<path fill-rule="evenodd" clip-rule="evenodd" d="M72.8184 126.409C72.9169 126.461 72.8664 126.691 72.8603 127.022C72.8502 127.351 72.9012 127.798 73.1344 128.207C73.3702 128.616 73.7438 128.909 74.0451 129.088C74.3465 129.272 74.5823 129.365 74.5732 129.469C74.5686 129.561 74.2864 129.656 73.8326 129.56C73.3894 129.469 72.7836 129.144 72.4363 128.542C72.092 127.938 72.1445 127.298 72.3156 126.913C72.4873 126.518 72.7326 126.359 72.8184 126.409Z" fill="#1A2E35"/>
<path fill-rule="evenodd" clip-rule="evenodd" d="M71.3846 113.601C71.3874 113.608 71.3142 113.651 71.1723 113.727C71.0283 113.796 70.8229 113.913 70.5658 114.076C70.0556 114.402 69.3471 114.952 68.6822 115.83C68.0252 116.703 67.4002 117.913 67.1978 119.374C67.0904 120.102 67.1241 120.875 67.2138 121.679C67.2953 122.481 67.4196 123.323 67.3582 124.201C67.3282 124.638 67.2414 125.07 67.0958 125.474C66.9468 125.876 66.7464 126.24 66.549 126.59C66.147 127.285 65.7775 127.961 65.6874 128.688C65.5813 129.41 65.6528 130.116 65.7384 130.767C65.8257 131.421 65.9367 132.029 65.9804 132.598C66.077 133.732 65.8993 134.675 65.6031 135.238C65.4636 135.524 65.3007 135.71 65.1949 135.835C65.0768 135.949 65.0131 136.005 65.0081 136C64.9871 135.982 65.2677 135.763 65.5282 135.199C65.7931 134.641 65.9429 133.724 65.8298 132.612C65.7775 132.057 65.6582 131.452 65.5627 130.794C65.4693 130.138 65.3866 129.416 65.492 128.658C65.6533 127.078 67.1155 125.921 67.1447 124.184C67.204 123.341 67.0846 122.509 67.0052 121.702C66.9176 120.896 66.8863 120.092 67.0028 119.344C67.2221 117.841 67.8783 116.609 68.5642 115.732C69.2583 114.847 69.9939 114.308 70.5238 114.001C70.7909 113.848 71.0036 113.743 71.1546 113.686C71.3027 113.623 71.3817 113.594 71.3846 113.601Z" fill="#1A2E35"/>
<path fill-rule="evenodd" clip-rule="evenodd" d="M91.3146 137.674C91.3168 137.677 91.2918 137.697 91.24 137.734C91.1869 137.768 91.1124 137.827 91.0031 137.885C90.7893 138.01 90.4523 138.167 89.9882 138.282C89.5263 138.396 88.9292 138.449 88.2549 138.342C87.585 138.236 86.8281 137.941 86.2024 137.363C85.5807 136.792 85.0992 135.952 84.9725 134.981C84.9073 134.499 84.9269 133.984 85.0751 133.481C85.2233 132.979 85.4776 132.495 85.8106 132.053C86.4773 131.163 87.406 130.444 88.2767 129.642C88.7118 129.24 89.1385 128.814 89.4915 128.329C89.8441 127.844 90.1216 127.299 90.3234 126.722C90.7268 125.563 90.821 124.352 90.7929 123.197C90.7607 122.039 90.6081 120.923 90.4309 119.869C90.0685 117.761 89.5129 115.903 88.9426 114.382C88.3762 112.858 87.7947 111.67 87.3779 110.858C87.1682 110.453 87.0004 110.14 86.8834 109.929C86.7692 109.717 86.7125 109.604 86.7196 109.6C86.7263 109.596 86.7964 109.702 86.9245 109.907C87.0548 110.111 87.2355 110.418 87.4582 110.819C87.9014 111.62 88.5079 112.804 89.097 114.328C89.6901 115.849 90.2658 117.714 90.642 119.836C90.8259 120.896 90.9843 122.016 91.0205 123.191C91.0517 124.362 90.9593 125.599 90.5434 126.793C90.3359 127.388 90.048 127.953 89.6807 128.456C89.3139 128.96 88.8756 129.394 88.4347 129.8C87.5511 130.607 86.6313 131.316 85.9846 132.173C85.6611 132.598 85.4161 133.059 85.2719 133.533C85.1282 134.008 85.1054 134.497 85.1635 134.959C85.2764 135.886 85.7293 136.697 86.3171 137.251C86.908 137.81 87.6301 138.106 88.2781 138.219C88.9296 138.335 89.5125 138.296 89.9677 138.197C90.8866 137.993 91.2994 137.642 91.3146 137.674Z" fill="#1A2E35"/>
<path fill-rule="evenodd" clip-rule="evenodd" d="M54.6438 131.999C54.6257 131.96 55.2206 131.936 55.9985 131.305C56.7595 130.687 57.6027 129.38 57.7932 127.572C57.9027 126.674 57.8855 125.677 57.8661 124.606C57.8543 123.538 57.832 122.368 58.1252 121.178C58.266 120.585 58.4843 119.992 58.8049 119.437C59.1294 118.888 59.571 118.382 60.1344 118.031C61.2768 117.309 62.6779 117.344 63.9218 116.896C64.5501 116.681 65.0903 116.288 65.5348 115.808C65.9811 115.328 66.3346 114.771 66.6759 114.221C67.3493 113.126 67.9961 111.976 69.0239 111.297C69.5274 110.956 70.0992 110.767 70.6555 110.685C71.2138 110.597 71.7591 110.597 72.2807 110.612C73.3237 110.649 74.2878 110.722 75.1567 110.589C76.9037 110.342 78.1877 109.596 78.9812 109.014C79.384 108.722 79.6655 108.453 79.8606 108.276C79.9465 108.192 80.0173 108.123 80.0751 108.067C80.1244 108.02 80.1509 107.998 80.1539 108C80.1539 108 79.8239 108.462 79.0317 109.085C78.2458 109.695 76.956 110.475 75.1782 110.748C74.292 110.893 73.3098 110.827 72.2761 110.8C71.2551 110.778 70.0971 110.815 69.1334 111.472C68.1634 112.116 67.5309 113.236 66.8576 114.339C66.5154 114.893 66.1572 115.462 65.6929 115.963C65.2335 116.462 64.6516 116.885 63.9943 117.109C62.6947 117.57 61.3164 117.54 60.2461 118.22C59.1736 118.888 58.5972 120.091 58.3212 121.229C58.0304 122.384 58.0439 123.535 58.0481 124.603C58.0595 125.674 58.0684 126.681 57.947 127.593C57.7329 129.436 56.8472 130.763 56.0512 131.375C55.6505 131.685 55.2868 131.844 55.0348 131.917C54.9105 131.96 54.8094 131.97 54.7445 131.986C54.6787 131.998 54.6446 132.003 54.6438 131.999Z" fill="#375A64"/>
<path fill-rule="evenodd" clip-rule="evenodd" d="M58.6295 114.032C58.6389 114.008 58.9152 114.174 59.4701 114.257C60.0181 114.341 60.8573 114.294 61.7685 113.881C62.684 113.476 63.5952 112.682 64.5201 111.731C64.9885 111.258 65.4756 110.751 66.0308 110.273C66.5861 109.798 67.2158 109.345 67.9503 109.052C68.6849 108.757 69.4594 108.656 70.1939 108.643C70.9305 108.63 71.6344 108.697 72.3008 108.759C72.9667 108.822 73.5982 108.888 74.1871 108.893C74.7764 108.901 75.3257 108.853 75.8171 108.76C76.8019 108.58 77.5403 108.194 77.9559 107.825C78.3795 107.462 78.5375 107.185 78.5588 107.201C78.5652 107.205 78.5256 107.272 78.4434 107.397C78.4051 107.461 78.3485 107.534 78.2752 107.616C78.2075 107.702 78.1202 107.795 78.0133 107.889C77.6046 108.288 76.8522 108.708 75.8477 108.914C75.3465 109.018 74.7866 109.076 74.1862 109.075C73.5846 109.078 72.9484 109.018 72.282 108.961C71.6165 108.904 70.9186 108.843 70.1982 108.858C69.4798 108.874 68.7342 108.974 68.0329 109.256C66.6218 109.835 65.6084 110.947 64.6653 111.874C63.7294 112.82 62.7862 113.623 61.832 114.023C60.8846 114.431 60.0142 114.455 59.4556 114.341C59.1724 114.291 58.9659 114.203 58.8279 114.146C58.6938 114.078 58.6261 114.039 58.6295 114.032Z" fill="#375A64"/>
<path fill-rule="evenodd" clip-rule="evenodd" d="M89.4125 126.4C89.3853 126.389 89.5611 126.12 89.612 125.567C89.6747 125.019 89.5196 124.198 89.0316 123.355C88.5614 122.493 87.6859 121.745 86.799 120.811C86.3607 120.34 85.9186 119.798 85.6146 119.129C85.3089 118.463 85.1591 117.702 85.1103 116.929C85.0163 115.375 85.2633 113.922 85.2312 112.605C85.2234 111.293 84.9275 110.104 84.3353 109.341C83.7638 108.562 83.0511 108.194 82.5485 108.107C82.0393 108.013 81.7511 108.116 81.7482 108.086C81.747 108.078 81.8166 108.058 81.953 108.028C82.0897 108.002 82.2969 107.984 82.5611 108.02C83.0865 108.082 83.842 108.442 84.4517 109.239C85.0863 110.022 85.4098 111.266 85.4265 112.601C85.4685 113.944 85.2283 115.399 85.3215 116.913C85.3691 117.666 85.5128 118.397 85.801 119.032C86.0871 119.668 86.5092 120.195 86.9374 120.663C87.8015 121.59 88.6897 122.37 89.1598 123.272C89.6462 124.15 89.785 125.012 89.6942 125.577C89.6563 125.861 89.581 126.07 89.5216 126.205C89.4561 126.337 89.419 126.404 89.4125 126.4Z" fill="#375A64"/>
<path fill-rule="evenodd" clip-rule="evenodd" d="M52.426 128.799C52.4223 128.806 52.3313 128.755 52.159 128.651C51.9925 128.54 51.7564 128.354 51.509 128.059C51.0171 127.488 50.4893 126.372 50.7083 124.973C50.7747 124.631 50.8861 124.279 51.0646 123.94C51.2545 123.607 51.504 123.297 51.8002 123.017C52.4031 122.465 53.1728 122.061 53.9705 121.663C54.7641 121.263 55.616 120.847 56.289 120.167C56.9703 119.492 57.3479 118.531 57.6011 117.535C57.854 116.533 58.0267 115.521 58.3509 114.581C58.6671 113.642 59.0906 112.78 59.562 112.007C60.5045 110.453 61.6619 109.27 62.7354 108.436C63.8089 107.593 64.7976 107.089 65.4944 106.794C65.8394 106.637 66.1211 106.55 66.3096 106.486C66.4986 106.423 66.5988 106.394 66.6013 106.401C66.61 106.426 66.2099 106.552 65.5282 106.873C64.8469 107.189 63.8794 107.71 62.8301 108.559C61.7808 109.399 60.6514 110.577 59.7323 112.112C59.2733 112.878 58.8603 113.727 58.5524 114.651C58.237 115.572 58.0676 116.573 57.8114 117.591C57.5552 118.6 57.1626 119.606 56.44 120.319C55.7283 121.032 54.8538 121.449 54.059 121.845C53.2583 122.237 52.5044 122.628 51.9212 123.153C51.6346 123.418 51.3938 123.712 51.2111 124.023C51.0384 124.342 50.9282 124.675 50.8594 125.002C50.7434 125.661 50.8093 126.281 50.9578 126.792C51.1105 127.304 51.3421 127.712 51.5749 128.005C52.0409 128.6 52.4481 128.772 52.426 128.799Z" fill="#1A2E35"/>
<path fill-rule="evenodd" clip-rule="evenodd" d="M91.3672 127.2C91.348 127.181 91.5532 126.994 91.8317 126.588C92.1107 126.186 92.4346 125.541 92.6062 124.684C92.7756 123.831 92.7769 122.77 92.4988 121.65C92.222 120.529 91.6493 119.372 90.9346 118.235C90.2156 117.096 89.4398 116.064 88.7858 115.087C88.1292 114.111 87.5984 113.188 87.2413 112.372C86.8842 111.555 86.6943 110.856 86.6109 110.366C86.5703 110.121 86.5454 109.93 86.5393 109.8C86.5301 109.67 86.5288 109.601 86.5367 109.6C86.5585 109.598 86.5869 109.87 86.6977 110.349C86.8065 110.828 87.0173 111.51 87.388 112.308C87.759 113.105 88.2973 114.009 88.96 114.972C89.6197 115.938 90.4016 116.967 91.128 118.117C91.8496 119.267 92.4294 120.447 92.7027 121.602C92.9764 122.754 92.9581 123.843 92.7638 124.716C92.5674 125.592 92.2107 126.244 91.9042 126.639C91.7479 126.836 91.6204 126.982 91.5205 127.069C91.4253 127.16 91.3729 127.205 91.3672 127.2Z" fill="#1A2E35"/>
<path d="M46.423 186.674L42.9016 192.744C42.9016 192.744 25.4049 186.4 15.1627 188.248C11.2684 188.951 7.10048 197.707 12.7748 203.33C18.3107 208.816 28.2121 216.571 46.7857 219.082C47.2487 219.145 54.8565 220.763 54.3879 220.708C53.9194 220.654 65.0541 222.4 65.0541 222.4L67.6679 212.605L88.4138 215.831C100.64 215.004 106.623 202.048 99.2609 197.878C92.3926 193.987 79.4783 193.675 79.4783 193.675L74.7973 186.4L46.423 186.674Z" fill="#272422"/>
<path fill-rule="evenodd" clip-rule="evenodd" d="M65.6023 222.4C65.6564 222.069 65.8036 221.176 66.1043 219.346C66.2686 218.369 66.4708 217.178 66.7314 215.807C66.8623 215.122 67.0087 214.393 67.1827 213.624C67.2714 213.24 67.3661 212.847 67.4787 212.445C67.5368 212.246 67.5965 212.043 67.6703 211.84C67.747 211.638 67.8127 211.434 67.9834 211.236L68.0141 211.384C63.62 209.831 58.1284 207.778 52.2733 205.319C48.6735 203.794 45.2781 202.253 42.2896 200.65C40.8008 199.844 39.3991 199.032 38.1949 198.12C36.9797 197.227 35.8983 196.335 34.8844 195.558C32.8757 193.979 31.0546 192.959 29.6918 192.526C29.3582 192.398 29.0485 192.328 28.7827 192.258C28.5183 192.181 28.2892 192.141 28.1032 192.112C27.9275 192.08 27.788 192.054 27.6818 192.035C27.5867 192.016 27.538 192.005 27.5385 192.002C27.5389 191.997 27.5884 192.002 27.6843 192.013C27.7918 192.027 27.9326 192.045 28.1105 192.067C28.2986 192.09 28.5302 192.124 28.7981 192.194C29.0673 192.257 29.3804 192.322 29.7191 192.444C30.4092 192.648 31.2172 193.009 32.1087 193.503C33.0006 194 33.96 194.659 34.9799 195.433C36.0024 196.205 37.0897 197.09 38.3033 197.972C39.5058 198.872 40.8989 199.671 42.3868 200.471C45.3706 202.059 48.764 203.592 52.3599 205.115C58.2086 207.572 63.693 209.639 68.0734 211.217L68.1958 211.261L68.1045 211.365C67.9893 211.498 67.9032 211.708 67.8336 211.9C67.7616 212.096 67.7006 212.295 67.6425 212.493C67.5282 212.888 67.4314 213.279 67.3405 213.661C67.1614 214.425 67.0091 215.152 66.8722 215.835C66.5992 217.201 66.3829 218.389 66.2042 219.364C66.0241 220.327 65.8834 221.084 65.784 221.615C65.7328 221.874 65.6914 222.071 65.6594 222.202C65.6287 222.335 65.6023 222.4 65.6023 222.4Z" fill="#375A64"/>
<path fill-rule="evenodd" clip-rule="evenodd" d="M95.3007 199.003C95.2998 199.007 95.262 199.004 95.1884 198.993C95.1028 198.979 94.9961 198.962 94.8644 198.941C94.5783 198.905 94.1652 198.798 93.62 198.745C92.5388 198.586 90.9528 198.482 89.0019 198.583C87.0498 198.675 84.7427 199.05 82.2407 199.695C80.9929 200.029 79.6935 200.42 78.3639 200.88C77.034 201.34 75.6782 201.869 74.2893 202.421C72.8973 202.982 71.4968 203.415 70.1346 203.789C68.7723 204.164 67.4407 204.457 66.1675 204.702C63.6198 205.198 61.3033 205.503 59.3576 205.739C57.4115 205.973 55.8341 206.135 54.7442 206.247C54.2128 206.299 53.7933 206.34 53.4887 206.37C53.3557 206.38 53.2482 206.389 53.1613 206.396C53.0877 206.401 53.0494 206.401 53.049 206.398C53.0485 206.394 53.0855 206.386 53.1587 206.374C53.2447 206.361 53.3514 206.344 53.4835 206.325C53.7869 206.285 54.2047 206.23 54.7343 206.161C55.8397 206.022 57.4076 205.825 59.3378 205.583C61.2792 205.326 63.5897 205.005 66.1275 204.501C67.3959 204.25 68.7216 203.954 70.0765 203.577C71.4314 203.203 72.8242 202.771 74.2062 202.214C75.5939 201.662 76.9578 201.132 78.2921 200.673C79.6276 200.215 80.9335 199.825 82.189 199.495C84.7053 198.859 87.0292 198.498 88.9938 198.424C90.9575 198.344 92.5508 198.473 93.633 198.659C94.1781 198.725 94.5899 198.846 94.8734 198.898C95.0034 198.927 95.1088 198.951 95.1935 198.971C95.2654 198.989 95.3015 198.999 95.3007 199.003Z" fill="#375A64"/>
<path fill-rule="evenodd" clip-rule="evenodd" d="M63.4125 195.387C63.4252 195.528 62.4897 195.754 60.9464 195.893C59.4053 196.034 57.254 196.06 54.8992 195.819C52.5434 195.574 50.4471 195.108 48.9711 194.656C47.4939 194.205 46.6295 193.793 46.6729 193.658C46.7704 193.359 50.4207 194.295 55.0171 194.756C59.6093 195.244 63.3826 195.075 63.4125 195.387Z" fill="#1A2E35"/>
<path fill-rule="evenodd" clip-rule="evenodd" d="M79.3566 193.603C79.3591 193.619 79.1205 193.684 78.6879 193.788C78.4702 193.834 78.2077 193.904 77.9054 193.998C77.6018 194.086 77.2555 194.183 76.8825 194.322C76.125 194.566 75.2524 194.944 74.2957 195.384C73.3477 195.847 72.3269 196.402 71.2872 197.043C69.2125 198.337 67.4556 199.705 66.215 200.729C65.5932 201.24 65.097 201.664 64.7562 201.959C64.4141 202.254 64.2202 202.411 64.2102 202.399C64.2001 202.388 64.3747 202.209 64.7001 201.894C65.0242 201.578 65.5061 201.134 66.117 200.606C67.3367 199.546 69.0873 198.152 71.175 196.85C72.221 196.205 73.2527 195.651 74.2119 195.195C75.1808 194.762 76.066 194.396 76.8356 194.171C77.2145 194.04 77.5662 193.953 77.8748 193.876C78.1817 193.793 78.4488 193.735 78.6703 193.702C79.1104 193.624 79.3541 193.588 79.3566 193.603Z" fill="#375A64"/>
<path fill-rule="evenodd" clip-rule="evenodd" d="M60.2236 202.396C60.2167 202.424 59.7308 202.311 58.9799 202.013C58.2272 201.719 57.2211 201.225 56.1387 200.627C55.0958 200.037 54.1527 199.503 53.3843 199.068C52.6802 198.671 52.239 198.437 52.2521 198.403C52.2633 198.374 52.7293 198.554 53.4546 198.913C54.1813 199.269 55.1617 199.812 56.2411 200.409C57.3209 201.006 58.3079 201.521 59.0389 201.853C59.7677 202.189 60.2336 202.359 60.2236 202.396Z" fill="#375A64"/>
<path fill-rule="evenodd" clip-rule="evenodd" d="M62.3321 187.2C62.3741 187.204 62.2996 187.83 62.2188 188.844C62.1368 189.857 62.0661 191.258 62.1023 192.805C62.1416 194.353 62.2815 195.752 62.4124 196.761C62.5432 197.771 62.648 198.395 62.606 198.4C62.5868 198.402 62.539 198.249 62.4677 197.97C62.3948 197.691 62.3086 197.284 62.2182 196.78C62.0363 195.771 61.8651 194.367 61.8257 192.81C61.789 191.254 61.8917 189.845 62.0236 188.831C62.089 188.324 62.1555 187.915 62.2145 187.634C62.2725 187.353 62.3129 187.198 62.3321 187.2Z" fill="#375A64"/>
<path fill-rule="evenodd" clip-rule="evenodd" d="M64.0258 188.183C64.0361 188.2 63.9552 188.249 63.85 188.372C63.7443 188.494 63.6267 188.705 63.5871 188.989C63.5524 189.267 63.602 189.635 63.8459 189.904C64.0815 190.179 64.5276 190.26 64.9221 190.11C65.3175 189.963 65.6043 189.607 65.6059 189.243C65.6183 188.878 65.419 188.566 65.2135 188.378C65.0005 188.189 64.7756 188.107 64.6176 188.085C64.4583 188.06 64.3654 188.077 64.3621 188.056C64.3592 188.048 64.448 188 64.6242 188C64.7983 187.998 65.0587 188.063 65.3109 188.26C65.5535 188.455 65.8044 188.798 65.804 189.248C65.8131 189.703 65.459 190.147 64.9968 190.314C64.5387 190.492 63.9849 190.39 63.6989 190.038C63.4088 189.697 63.3791 189.272 63.4369 188.964C63.5017 188.648 63.6568 188.426 63.791 188.313C63.9247 188.197 64.0225 188.174 64.0258 188.183Z" fill="#375A64"/>
<path fill-rule="evenodd" clip-rule="evenodd" d="M69.7894 180.801C69.8008 180.811 69.684 180.975 69.4612 181.263C69.2427 181.553 68.8971 181.948 68.4466 182.411C67.9985 182.876 67.4268 183.387 66.7598 183.909C66.0865 184.42 65.314 184.935 64.4622 185.395C63.6066 185.847 62.7573 186.198 61.9709 186.467C61.1807 186.724 60.4555 186.906 59.8391 187.009C59.224 187.116 58.7215 187.174 58.373 187.186C58.0254 187.203 57.833 187.205 57.8322 187.189C57.8292 187.144 58.5979 187.099 59.8113 186.845C60.4188 186.722 61.1318 186.525 61.9093 186.26C62.6831 185.983 63.5193 185.631 64.3643 185.184C65.2052 184.73 65.9709 184.227 66.643 183.731C67.3083 183.226 67.8842 182.733 68.3415 182.288C69.2612 181.402 69.7578 180.772 69.7894 180.801Z" fill="#1A2E35"/>
<path fill-rule="evenodd" clip-rule="evenodd" d="M76.965 185.663C76.9638 185.723 76.2209 185.724 75.345 185.928C74.4666 186.126 73.8084 186.447 73.7774 186.394C73.7456 186.353 74.3795 185.94 75.2934 185.734C76.2056 185.522 76.9724 185.613 76.965 185.663Z" fill="#1A2E35"/>
<path fill-rule="evenodd" clip-rule="evenodd" d="M59.2756 186.381C62.9465 185.711 66.3665 183.701 68.7704 180.8C69.2262 182.161 68.8484 183.773 67.8379 184.778C68.9199 185.3 70.1865 184.953 71.3729 184.787C72.5593 184.621 74.0069 184.783 74.5735 185.857C69.2757 186.357 63.9464 186.512 58.6294 186.32" fill="black"/>
<path fill-rule="evenodd" clip-rule="evenodd" d="M49.0622 178.557C49.0284 178.603 48.4973 177.881 47.2134 177.387C46.5811 177.141 45.7701 176.976 44.8699 177.001C43.9714 177.025 42.9872 177.258 42.0677 177.733C40.1987 178.68 39.0915 180.294 38.2444 181.329C37.8441 181.873 37.5864 182.357 37.403 182.689C37.2225 183.022 37.1213 183.207 37.1063 183.2C37.0935 183.194 37.1681 182.997 37.325 182.652C37.4849 182.308 37.7236 181.807 38.1146 181.241C38.5094 180.678 39.0242 180.053 39.6187 179.365C40.2296 178.69 41.0128 178.029 41.964 177.541C42.9126 177.05 43.9358 176.813 44.8647 176.801C45.7958 176.786 46.6296 176.973 47.273 177.245C47.9233 177.508 48.3794 177.854 48.6644 178.113C48.8076 178.242 48.9096 178.352 48.9718 178.432C49.0369 178.509 49.0682 178.552 49.0622 178.557Z" fill="#1A2E35"/>
<path fill-rule="evenodd" clip-rule="evenodd" d="M59.7421 137.6L53.8461 138.843L56.7941 149.778L67.2287 152L74.3882 146.962L75.3706 140.935L69.2319 138.633L59.7421 137.6Z" fill="#FFBF9D"/>
<g filter="url(#filter12_d)">
<path d="M55.8622 137.6C55.8622 137.6 59.8901 149.349 67.3352 148.263C74.78 147.178 74.1584 139.563 74.1584 139.563C74.1584 139.563 81.9284 141.941 84.3302 144.473C86.7319 147.006 85.3244 152.505 85.3244 152.505L83.309 162.447L78.9264 181.494C78.9264 181.494 80.602 186.688 76.3192 187.973L74.9663 185.841L49.2702 186.572C49.2702 186.572 43.7739 192.935 42.0616 190.739C40.3489 188.545 38.6993 184.268 38.6993 184.268L50.4938 139.004L55.8622 137.6Z" fill="#390B12"/>
</g>
<g filter="url(#filter13_d)">
<path d="M81.9812 143.2C82.1876 143.32 100.082 156.396 100.082 156.396C100.082 156.396 98.6782 167.148 107.259 165.435C107.259 165.435 103.79 174.428 99.094 172.539C97.7594 172.003 81.2667 161.511 81.2667 161.511L77.7622 154.006L81.9812 143.2Z" fill="#390B12"/>
</g>
<g filter="url(#filter14_d)">
<path d="M56.2378 138.4C56.2378 138.4 55.8228 138.411 55.1221 138.478C51.5274 138.819 38.2605 141.536 37.0329 150.791C36.3904 155.633 36.2064 169.791 35.5105 175.727C35.5105 175.727 36.6205 183.977 37.0329 185.506C37.7665 188.226 51.0746 183.872 51.0746 183.872L51.1024 157.672L55.8228 138.411" fill="#390B12"/>
</g>
<path fill-rule="evenodd" clip-rule="evenodd" d="M47.5062 162.4C47.5141 162.4 47.5212 162.473 47.5274 162.61C47.5314 162.747 47.5353 162.948 47.5707 163.206C47.6268 163.72 47.7929 164.457 48.1407 165.323C48.4857 166.191 49.0111 167.18 49.5386 168.311C49.7984 168.877 50.0538 169.484 50.2442 170.138C50.4302 170.793 50.5544 171.488 50.6096 172.204C50.7245 173.637 50.6092 174.999 50.5023 176.227C50.3914 177.456 50.284 178.566 50.1232 179.489C49.9672 180.414 49.7631 181.149 49.5899 181.646C49.5024 181.894 49.4282 182.084 49.3698 182.211C49.3133 182.338 49.2801 182.403 49.2731 182.4C49.255 182.393 49.3575 182.122 49.5042 181.621C49.6504 181.12 49.8276 180.387 49.9623 179.466C50.1015 178.546 50.1916 177.441 50.2911 176.211C50.3865 174.984 50.4939 173.63 50.3803 172.221C50.326 171.517 50.2053 170.836 50.0268 170.195C49.8435 169.555 49.5969 168.955 49.3442 168.391C48.8317 167.265 48.3178 166.262 47.9878 165.378C47.6555 164.494 47.5106 163.737 47.4814 163.213C47.4593 162.951 47.4699 162.747 47.481 162.609C47.4898 162.472 47.4982 162.4 47.5062 162.4Z" fill="#1A2E35"/>
<path fill-rule="evenodd" clip-rule="evenodd" d="M48.2847 159.2C48.3175 159.198 48.3472 159.852 48.483 160.895C48.6177 161.938 48.8781 163.37 49.3543 164.891C49.4753 165.271 49.5975 165.639 49.7294 165.99C49.7622 166.07 49.7927 166.184 49.8266 166.23C49.8735 166.309 49.9199 166.386 49.9664 166.463C50.0573 166.621 50.1436 166.778 50.2174 166.937C50.5214 167.57 50.6608 168.215 50.6573 168.756C50.66 169.3 50.5285 169.723 50.425 169.998C50.3017 170.267 50.2209 170.407 50.2099 170.4C50.1565 170.383 50.539 169.806 50.5133 168.76C50.4992 168.244 50.3524 167.635 50.0511 167.03C49.9781 166.878 49.893 166.728 49.8028 166.576C49.756 166.5 49.7083 166.423 49.6603 166.344C49.5955 166.237 49.5842 166.163 49.5444 166.07C49.4085 165.717 49.284 165.344 49.1618 164.961C48.6801 163.423 48.4393 161.969 48.3405 160.914C48.2875 160.387 48.2734 159.957 48.266 159.661C48.2644 159.364 48.2707 159.2 48.2847 159.2Z" fill="#1A2E35"/>
<path fill-rule="evenodd" clip-rule="evenodd" d="M48.2626 155.2C48.2295 155.211 48.0459 154.686 47.6805 153.869C47.3158 153.053 46.745 151.956 45.9696 150.841C45.191 149.727 44.3622 148.817 43.7263 148.198C43.0912 147.578 42.6643 147.229 42.6861 147.201C42.695 147.189 42.8098 147.265 43.0111 147.413C43.2137 147.558 43.4938 147.788 43.827 148.086C44.4944 148.682 45.3523 149.588 46.1406 150.716C46.9265 151.845 47.484 152.97 47.8167 153.809C47.9841 154.228 48.1041 154.573 48.1729 154.816C48.244 155.059 48.2764 155.195 48.2626 155.2Z" fill="#1A2E35"/>
<path fill-rule="evenodd" clip-rule="evenodd" d="M85.7238 147.2C85.7556 147.206 85.712 147.61 85.6331 148.259C85.5545 148.909 85.4446 149.806 85.3408 150.799C85.2379 151.792 85.1607 152.692 85.104 153.345C85.0468 153.997 85.0062 154.401 84.974 154.4C84.9434 154.399 84.9273 153.992 84.9434 153.336C84.9591 152.679 85.0115 151.773 85.1149 150.775C85.2191 149.778 85.3548 148.881 85.4747 148.235C85.5942 147.589 85.6937 147.194 85.7238 147.2Z" fill="#1A2E35"/>
<path fill-rule="evenodd" clip-rule="evenodd" d="M88.9231 158.409C88.9283 158.45 88.3902 158.502 87.5639 158.747C86.7412 158.981 85.6303 159.503 84.7192 160.476C84.2675 160.963 83.9187 161.5 83.6333 162.007C83.3657 162.524 83.1582 163.01 83.0089 163.429C82.9386 163.631 82.8732 163.821 82.8123 163.997C82.7658 164.154 82.7235 164.299 82.6839 164.433C82.6112 164.672 82.564 164.803 82.5499 164.8C82.5358 164.797 82.5559 164.659 82.6048 164.412C82.6338 164.274 82.6653 164.125 82.6996 163.962C82.7517 163.781 82.8082 163.586 82.8688 163.378C83.002 162.947 83.1986 162.445 83.4638 161.91C83.7464 161.385 84.1008 160.828 84.5682 160.324C85.5124 159.315 86.6786 158.797 87.5251 158.598C87.7371 158.542 87.9308 158.5 88.1032 158.476C88.2744 158.447 88.4217 158.424 88.544 158.418C88.787 158.398 88.9218 158.394 88.9231 158.409Z" fill="#1A2E35"/>
<path fill-rule="evenodd" clip-rule="evenodd" d="M101.675 170.4C101.66 170.407 101.542 170.238 101.342 169.926C101.239 169.771 101.12 169.578 101.001 169.346C100.879 169.116 100.728 168.857 100.601 168.557C100.318 167.967 100.046 167.241 99.8085 166.421C99.5852 165.598 99.4062 164.679 99.3245 163.706C99.2537 162.731 99.2881 161.799 99.3811 160.958C99.4888 160.118 99.6457 159.367 99.8341 158.75C99.9133 158.438 100.023 158.164 100.108 157.921C100.19 157.678 100.278 157.473 100.355 157.308C100.505 156.975 100.596 156.795 100.612 156.8C100.659 156.815 100.33 157.55 100.01 158.785C99.8459 159.402 99.7097 160.146 99.6162 160.978C99.5375 161.809 99.5104 162.729 99.5798 163.691C99.6605 164.652 99.8307 165.559 100.038 166.374C100.261 167.187 100.511 167.91 100.77 168.502C101.279 169.688 101.72 170.38 101.675 170.4Z" fill="#1A2E35"/>
<path fill-rule="evenodd" clip-rule="evenodd" d="M96.5741 167.2C96.5607 167.204 96.5065 167.043 96.4196 166.748C96.3366 166.451 96.2386 166.012 96.1711 165.461C96.0312 164.364 96.0597 162.789 96.5437 161.163C97.0182 159.533 97.8445 158.229 98.5636 157.425C98.9338 157.025 99.3436 156.806 99.6498 156.801C99.8015 156.794 99.9153 156.837 99.9861 156.87C100.055 156.911 100.087 156.937 100.084 156.943C100.076 156.966 99.9331 156.856 99.6557 156.886C99.3807 156.916 99.0097 157.137 98.6683 157.533C97.9942 158.344 97.2032 159.635 96.7401 161.23C96.2663 162.82 96.2149 164.359 96.3161 165.444C96.4165 166.535 96.6132 167.189 96.5741 167.2Z" fill="#1A2E35"/>
<path fill-rule="evenodd" clip-rule="evenodd" d="M67.3955 164.8C67.4104 164.804 67.372 164.98 67.2901 165.297C67.2517 165.456 67.1979 165.649 67.1155 165.867C67.0357 166.085 66.9576 166.339 66.8318 166.605C66.6077 167.147 66.2774 167.767 65.8567 168.422C65.4231 169.07 64.8918 169.748 64.2577 170.392C63.6159 171.028 62.937 171.565 62.2867 172.005C61.6282 172.433 61.0035 172.771 60.456 173.003C60.188 173.132 59.9307 173.215 59.7101 173.298C59.4903 173.384 59.2948 173.441 59.1335 173.482C58.8126 173.57 58.6338 173.612 58.6296 173.597C58.6163 173.555 59.3277 173.365 60.3894 172.863C60.922 172.616 61.5292 172.27 62.171 171.839C62.8043 171.398 63.4674 170.865 64.0985 170.239C64.722 169.606 65.2494 168.944 65.6851 168.313C66.1089 167.674 66.4485 167.071 66.6879 166.542C67.1753 165.49 67.3519 164.788 67.3955 164.8Z" fill="#1A2E35"/>
<path d="M52.5536 169.29C51.7077 166.276 50.8619 163.263 50.0161 160.248C49.8928 159.808 49.6863 159.29 49.2257 159.209C48.7968 159.134 48.4032 159.529 48.3235 159.947C48.2434 160.365 48.2574 160.846 48.3006 161.268C48.5001 163.231 48.6581 164.564 49.5956 166.086C51.4215 169.05 50.2177 170.487 50.2177 170.487C50.363 174.096 50.0513 179.021 48.9012 182.727L49.9865 187.2C51.0186 183.875 53.3734 181.102 53.7706 177.65C54.0942 174.835 53.3202 172.022 52.5536 169.29Z" fill="#272422" fill-opacity="0.5"/>
<path d="M83.3427 162.757C86.4039 164.277 89.1271 166.375 92.1119 168C90.9418 165.675 88.9907 163.376 86.6176 162.142C85.9787 161.81 85.2642 161.522 84.5435 161.619C83.8224 161.716 83.3024 162.105 83.412 162.792" fill="#272422" fill-opacity="0.5"/>
<path d="M99.8807 156.178C98.9244 156.154 98.2016 157.053 97.7335 157.916C96.415 160.35 95.8655 163.221 96.1881 165.99C96.2461 166.49 96.4248 167.092 96.9023 167.188C97.2486 167.259 97.5941 166.997 97.7482 166.669C97.9023 166.34 97.9089 165.961 97.9076 165.596C97.9023 163.899 97.796 162.193 98.0291 160.514C98.2621 158.834 98.8758 157.147 100.084 156" fill="#272422" fill-opacity="0.5"/>
<path fill-rule="evenodd" clip-rule="evenodd" d="M54.6434 159.365C54.6434 159.362 54.6777 159.358 54.7449 159.353C54.8217 159.348 54.9202 159.341 55.0465 159.333C55.3234 159.318 55.7157 159.298 56.2217 159.271C57.261 159.223 58.7646 159.154 60.6671 159.067C64.4993 158.906 69.9376 158.676 76.4061 158.404L76.5085 158.4L76.5111 158.502C76.6405 163.755 76.7893 169.797 76.9473 176.197C76.9525 176.412 76.9572 176.628 76.9624 176.838L76.965 176.952L76.8509 176.953C69.7219 177.03 63.0712 177.616 57.474 178.388L57.389 178.4L57.3664 178.319C55.8246 172.693 55.2609 167.848 55.0556 164.467C54.9528 162.774 54.9337 161.441 54.9341 160.534C54.9337 160.08 54.9441 159.732 54.9484 159.498C54.9519 159.387 54.9545 159.3 54.9567 159.232C54.9597 159.172 54.9619 159.142 54.9645 159.142C54.9675 159.142 54.9697 159.173 54.9723 159.232C54.974 159.3 54.9762 159.387 54.9788 159.498C54.9823 159.742 54.9871 160.088 54.994 160.533C55.0127 161.44 55.0496 162.77 55.1689 164.46C55.4071 167.833 55.9977 172.663 57.5543 178.267L57.4467 178.197C63.049 177.405 69.7089 176.806 76.8483 176.729L76.7368 176.843C76.7316 176.633 76.7264 176.418 76.7212 176.202C76.5723 169.802 76.4317 163.76 76.3098 158.506L76.4144 158.604C69.9441 158.843 64.505 159.044 60.6718 159.186C58.7681 159.249 57.264 159.3 56.2243 159.334C55.7178 159.347 55.3247 159.357 55.0482 159.365C54.9215 159.367 54.8226 159.368 54.7458 159.369C54.6781 159.369 54.6434 159.368 54.6434 159.365Z" fill="white"/>
<path fill-rule="evenodd" clip-rule="evenodd" d="M60.2176 172.8C60.151 172.81 59.5641 169.953 58.9078 166.418C58.2506 162.883 57.7721 160.01 57.8383 160C57.9049 159.99 58.4913 162.847 59.1485 166.382C59.8052 169.916 60.2842 172.79 60.2176 172.8Z" fill="white"/>
<path fill-rule="evenodd" clip-rule="evenodd" d="M61.0041 178.4C60.9409 178.409 60.7185 177.343 60.508 176.017C60.2971 174.692 60.1775 173.61 60.2406 173.6C60.3038 173.59 60.5258 174.657 60.7367 175.982C60.9476 177.308 61.0673 178.39 61.0041 178.4Z" fill="white"/>
<path fill-rule="evenodd" clip-rule="evenodd" d="M65.0023 169.6C64.9915 169.603 64.9611 169.462 64.9152 169.204C64.869 168.946 64.8107 168.571 64.7459 168.105C64.616 167.173 64.4691 165.877 64.364 164.436C64.2598 162.994 64.2177 161.683 64.2111 160.734C64.2077 160.261 64.2108 159.877 64.2192 159.612C64.227 159.346 64.2366 159.2 64.2477 159.2C64.2716 159.2 64.2893 159.785 64.3252 160.73C64.3612 161.674 64.421 162.978 64.5246 164.414C64.6291 165.849 64.7577 167.143 64.8588 168.079C64.9589 169.015 65.0256 169.594 65.0023 169.6Z" fill="white"/>
<path fill-rule="evenodd" clip-rule="evenodd" d="M64.1935 177.6C64.1313 177.608 63.9099 176.182 63.6989 174.415C63.4875 172.647 63.367 171.208 63.4288 171.2C63.491 171.192 63.7124 172.618 63.9233 174.386C64.1347 176.153 64.2557 177.592 64.1935 177.6Z" fill="white"/>
<path fill-rule="evenodd" clip-rule="evenodd" d="M68.98 176.8C68.9623 176.801 68.9278 176.554 68.8799 176.107C68.8306 175.623 68.7655 174.986 68.6871 174.215C68.5258 172.618 68.2851 170.413 67.9581 167.984C67.6296 165.554 67.277 163.36 67.0091 161.774C66.8804 161.008 66.7739 160.375 66.693 159.894C66.6205 159.45 66.5884 159.203 66.6062 159.2C66.6234 159.198 66.6885 159.44 66.7916 159.88C66.8957 160.319 67.0318 160.959 67.1887 161.75C67.5024 163.332 67.8841 165.525 68.2131 167.96C68.5406 170.392 68.7532 172.602 68.8681 174.204C68.9263 175.005 68.9638 175.653 68.98 176.102C68.9968 176.551 68.9978 176.799 68.98 176.8Z" fill="white"/>
<path fill-rule="evenodd" clip-rule="evenodd" d="M72.8833 177.6C72.871 177.6 72.8627 177.341 72.8586 176.875C72.8551 176.37 72.8507 175.705 72.8448 174.9C72.8324 173.233 72.7967 170.931 72.701 168.39C72.604 165.849 72.4657 163.553 72.3525 161.892C72.2972 161.091 72.2514 160.428 72.217 159.925C72.1857 159.46 72.1744 159.202 72.1867 159.2C72.1988 159.198 72.2335 159.453 72.2862 159.915C72.3395 160.377 72.4059 161.047 72.4785 161.877C72.6243 163.536 72.7829 165.834 72.8799 168.38C72.9759 170.924 72.9914 173.231 72.9714 174.9C72.9621 175.735 72.9466 176.41 72.9284 176.876C72.9112 177.343 72.8957 177.6 72.8833 177.6Z" fill="white"/>
<path d="M58.7564 173.847C59.4135 174.287 60.2382 174.441 61.0318 174.391C61.8249 174.341 62.5939 174.099 63.3279 173.799C64.3003 173.402 65.2486 172.886 65.942 172.108C66.6837 171.276 67.0846 170.194 67.2613 169.102C67.4384 168.01 67.4056 166.896 67.3723 165.791C67.371 165.742 67.3684 165.691 67.3399 165.652C67.2864 165.579 67.165 165.588 67.0954 165.646C67.0254 165.705 66.9939 165.795 66.9645 165.88C65.6802 169.576 62.4591 172.565 58.6294 173.616" fill="#272422" fill-opacity="0.5"/>
<mask id="mask6"  maskUnits="userSpaceOnUse" x="37" y="177" width="24" height="47">
<path fill-rule="evenodd" clip-rule="evenodd" d="M37.9979 177.095H60.6689V224H37.9979V177.095Z" fill="white"/>
</mask>
<g mask="url(#mask6)">
<path fill-rule="evenodd" clip-rule="evenodd" d="M56.0065 210.315L53.4374 205.398L47.6631 177.803C47.6631 177.803 42.3487 174.691 38.0015 181.516C37.8267 181.79 43.9851 201.553 45.7039 207.052L45.9452 212.309C45.9452 212.309 45.64 218.535 45.9452 219.08C46.2499 219.625 47.0124 219.936 47.0124 219.936C47.0124 219.936 46.7837 221.492 48.537 221.648C48.537 221.648 48.6896 223.36 49.9855 223.126C51.2814 222.893 51.7388 222.037 51.7388 222.037C51.7388 222.037 51.7388 224.216 52.8821 223.983C54.0258 223.749 54.2125 222.815 54.4239 222.504C54.6358 222.193 54.8766 219.002 54.8766 219.002L54.856 213.73L57.8337 216.192C58.6933 216.63 59.9527 217.172 60.6689 216.518L56.0065 210.315Z" fill="#FFBF9D"/>
</g>
<path fill-rule="evenodd" clip-rule="evenodd" d="M54.9458 212.8C55.0646 212.79 55.4074 214.05 55.2663 215.603C55.2009 216.324 55.1419 216.979 55.0869 217.58C55.0383 218.085 55.0056 218.399 54.9458 218.4C54.8167 218.403 54.7099 217.14 54.851 215.595C54.9913 214.053 54.8366 212.808 54.9458 212.8Z" fill="#FF9A6C"/>
<path fill-rule="evenodd" clip-rule="evenodd" d="M51.7878 216.8C51.9026 216.799 52.0245 218.052 52.0604 219.598C52.0971 221.145 52.0333 222.399 51.9185 222.4C51.8045 222.401 51.6817 221.149 51.6459 219.602C51.6092 218.056 51.673 216.801 51.7878 216.8Z" fill="#FF9A6C"/>
<path fill-rule="evenodd" clip-rule="evenodd" d="M48.8872 217.6C48.9876 217.595 49.1618 218.505 48.9913 219.625C48.8274 220.745 48.3882 221.617 48.2908 221.6C48.183 221.583 48.4487 220.7 48.6089 219.601C48.7757 218.503 48.7757 217.604 48.8872 217.6Z" fill="#FF9A6C"/>
<path fill-rule="evenodd" clip-rule="evenodd" d="M47.286 216.8C47.4 216.806 47.396 217.348 47.2764 218.011C47.1568 218.674 46.9679 219.206 46.8539 219.2C46.7399 219.194 46.7439 218.652 46.8635 217.989C46.983 217.326 47.172 216.794 47.286 216.8Z" fill="#FF9A6C"/>
<g filter="url(#filter15_d)">
<path d="M116.484 125.6C116.403 125.819 114.434 143.2 114.434 143.2L122.037 141.911L124 127.549L116.484 125.6Z" fill="#390B12"/>
</g>
<path d="M114.958 143.2L114.434 142.88L116.024 125.6L116.825 125.835L114.958 143.2Z" fill="#8F5F43"/>
<path d="M120.014 129.2C120.014 129.421 120.193 129.6 120.413 129.6C120.633 129.6 120.811 129.421 120.811 129.2C120.811 128.979 120.633 128.8 120.413 128.8C120.193 128.8 120.014 128.979 120.014 129.2Z" fill="#8F5F43"/>
<path fill-rule="evenodd" clip-rule="evenodd" d="M123.203 133.2H120.014C120.014 133.2 118.021 134.4 120.413 134.8C122.804 135.2 122.804 135.2 122.804 135.2C122.804 135.2 119.855 134.8 119.456 135.6C119.057 136.4 123.043 136.8 123.043 136.8C123.043 136.8 121.848 137.6 120.253 138C118.659 138.4 122.645 139.2 122.645 139.2L123.203 133.2Z" fill="#FFBF9D"/>
<defs>
<filter id="filter0_d" x="167.426" y="87.5526" width="48.7353" height="50.0936" filterUnits="userSpaceOnUse" color-interpolation-filters="sRGB">
<feFlood flood-opacity="0" result="BackgroundImageFix"/>
<feColorMatrix in="SourceAlpha" type="matrix" values="0 0 0 0 0 0 0 0 0 0 0 0 0 0 0 0 0 0 127 0"/>
<feOffset dx="2" dy="4"/>
<feGaussianBlur stdDeviation="8"/>
<feColorMatrix type="matrix" values="0 0 0 0 0 0 0 0 0 0 0 0 0 0 0 0 0 0 0.1 0"/>
<feBlend mode="normal" in2="BackgroundImageFix" result="effect1_dropShadow"/>
<feBlend mode="normal" in="SourceGraphic" in2="effect1_dropShadow" result="shape"/>
</filter>
<filter id="filter1_d" x="158" y="105.341" width="67.9754" height="63.5628" filterUnits="userSpaceOnUse" color-interpolation-filters="sRGB">
<feFlood flood-opacity="0" result="BackgroundImageFix"/>
<feColorMatrix in="SourceAlpha" type="matrix" values="0 0 0 0 0 0 0 0 0 0 0 0 0 0 0 0 0 0 127 0"/>
<feOffset dx="2" dy="4"/>
<feGaussianBlur stdDeviation="8"/>
<feColorMatrix type="matrix" values="0 0 0 0 0 0 0 0 0 0 0 0 0 0 0 0 0 0 0.1 0"/>
<feBlend mode="normal" in2="BackgroundImageFix" result="effect1_dropShadow"/>
<feBlend mode="normal" in="SourceGraphic" in2="effect1_dropShadow" result="shape"/>
</filter>
<filter id="filter2_d" x="167.406" y="88.389" width="45.8614" height="49.3267" filterUnits="userSpaceOnUse" color-interpolation-filters="sRGB">
<feFlood flood-opacity="0" result="BackgroundImageFix"/>
<feColorMatrix in="SourceAlpha" type="matrix" values="0 0 0 0 0 0 0 0 0 0 0 0 0 0 0 0 0 0 127 0"/>
<feOffset dx="2" dy="4"/>
<feGaussianBlur stdDeviation="8"/>
<feColorMatrix type="matrix" values="0 0 0 0 0 0 0 0 0 0 0 0 0 0 0 0 0 0 0.1 0"/>
<feBlend mode="normal" in2="BackgroundImageFix" result="effect1_dropShadow"/>
<feBlend mode="normal" in="SourceGraphic" in2="effect1_dropShadow" result="shape"/>
</filter>
<filter id="filter3_d" x="176.317" y="105.645" width="32.495" height="32.1417" filterUnits="userSpaceOnUse" color-interpolation-filters="sRGB">
<feFlood flood-opacity="0" result="BackgroundImageFix"/>
<feColorMatrix in="SourceAlpha" type="matrix" values="0 0 0 0 0 0 0 0 0 0 0 0 0 0 0 0 0 0 127 0"/>
<feOffset dx="2" dy="4"/>
<feGaussianBlur stdDeviation="8"/>
<feColorMatrix type="matrix" values="0 0 0 0 0 0 0 0 0 0 0 0 0 0 0 0 0 0 0.1 0"/>
<feBlend mode="normal" in2="BackgroundImageFix" result="effect1_dropShadow"/>
<feBlend mode="normal" in="SourceGraphic" in2="effect1_dropShadow" result="shape"/>
</filter>
<filter id="filter4_d" x="176.317" y="105.672" width="32.495" height="32.0879" filterUnits="userSpaceOnUse" color-interpolation-filters="sRGB">
<feFlood flood-opacity="0" result="BackgroundImageFix"/>
<feColorMatrix in="SourceAlpha" type="matrix" values="0 0 0 0 0 0 0 0 0 0 0 0 0 0 0 0 0 0 127 0"/>
<feOffset dx="2" dy="4"/>
<feGaussianBlur stdDeviation="8"/>
<feColorMatrix type="matrix" values="0 0 0 0 0 0 0 0 0 0 0 0 0 0 0 0 0 0 0.1 0"/>
<feBlend mode="normal" in2="BackgroundImageFix" result="effect1_dropShadow"/>
<feBlend mode="normal" in="SourceGraphic" in2="effect1_dropShadow" result="shape"/>
</filter>
<filter id="filter5_d" x="247.563" y="39.7979" width="56.0805" height="58.1198" filterUnits="userSpaceOnUse" color-interpolation-filters="sRGB">
<feFlood flood-opacity="0" result="BackgroundImageFix"/>
<feColorMatrix in="SourceAlpha" type="matrix" values="0 0 0 0 0 0 0 0 0 0 0 0 0 0 0 0 0 0 127 0"/>
<feOffset dx="2" dy="4"/>
<feGaussianBlur stdDeviation="8"/>
<feColorMatrix type="matrix" values="0 0 0 0 0 0 0 0 0 0 0 0 0 0 0 0 0 0 0.1 0"/>
<feBlend mode="normal" in2="BackgroundImageFix" result="effect1_dropShadow"/>
<feBlend mode="normal" in="SourceGraphic" in2="effect1_dropShadow" result="shape"/>
</filter>
<filter id="filter6_d" x="234" y="65.4774" width="83.7651" height="77.5639" filterUnits="userSpaceOnUse" color-interpolation-filters="sRGB">
<feFlood flood-opacity="0" result="BackgroundImageFix"/>
<feColorMatrix in="SourceAlpha" type="matrix" values="0 0 0 0 0 0 0 0 0 0 0 0 0 0 0 0 0 0 127 0"/>
<feOffset dx="2" dy="4"/>
<feGaussianBlur stdDeviation="8"/>
<feColorMatrix type="matrix" values="0 0 0 0 0 0 0 0 0 0 0 0 0 0 0 0 0 0 0.1 0"/>
<feBlend mode="normal" in2="BackgroundImageFix" result="effect1_dropShadow"/>
<feBlend mode="normal" in="SourceGraphic" in2="effect1_dropShadow" result="shape"/>
</filter>
<filter id="filter7_d" x="247.534" y="41.0054" width="51.9452" height="57.0128" filterUnits="userSpaceOnUse" color-interpolation-filters="sRGB">
<feFlood flood-opacity="0" result="BackgroundImageFix"/>
<feColorMatrix in="SourceAlpha" type="matrix" values="0 0 0 0 0 0 0 0 0 0 0 0 0 0 0 0 0 0 127 0"/>
<feOffset dx="2" dy="4"/>
<feGaussianBlur stdDeviation="8"/>
<feColorMatrix type="matrix" values="0 0 0 0 0 0 0 0 0 0 0 0 0 0 0 0 0 0 0.1 0"/>
<feBlend mode="normal" in2="BackgroundImageFix" result="effect1_dropShadow"/>
<feBlend mode="normal" in="SourceGraphic" in2="effect1_dropShadow" result="shape"/>
</filter>
<filter id="filter8_d" x="260.356" y="65.9158" width="32.7123" height="32.2046" filterUnits="userSpaceOnUse" color-interpolation-filters="sRGB">
<feFlood flood-opacity="0" result="BackgroundImageFix"/>
<feColorMatrix in="SourceAlpha" type="matrix" values="0 0 0 0 0 0 0 0 0 0 0 0 0 0 0 0 0 0 127 0"/>
<feOffset dx="2" dy="4"/>
<feGaussianBlur stdDeviation="8"/>
<feColorMatrix type="matrix" values="0 0 0 0 0 0 0 0 0 0 0 0 0 0 0 0 0 0 0.1 0"/>
<feBlend mode="normal" in2="BackgroundImageFix" result="effect1_dropShadow"/>
<feBlend mode="normal" in="SourceGraphic" in2="effect1_dropShadow" result="shape"/>
</filter>
<filter id="filter9_d" x="260.356" y="65.9547" width="32.7123" height="32.1268" filterUnits="userSpaceOnUse" color-interpolation-filters="sRGB">
<feFlood flood-opacity="0" result="BackgroundImageFix"/>
<feColorMatrix in="SourceAlpha" type="matrix" values="0 0 0 0 0 0 0 0 0 0 0 0 0 0 0 0 0 0 127 0"/>
<feOffset dx="2" dy="4"/>
<feGaussianBlur stdDeviation="8"/>
<feColorMatrix type="matrix" values="0 0 0 0 0 0 0 0 0 0 0 0 0 0 0 0 0 0 0.1 0"/>
<feBlend mode="normal" in2="BackgroundImageFix" result="effect1_dropShadow"/>
<feBlend mode="normal" in="SourceGraphic" in2="effect1_dropShadow" result="shape"/>
</filter>
<filter id="filter10_d" x="15.1329" y="200.8" width="55.1189" height="41.6" filterUnits="userSpaceOnUse" color-interpolation-filters="sRGB">
<feFlood flood-opacity="0" result="BackgroundImageFix"/>
<feColorMatrix in="SourceAlpha" type="matrix" values="0 0 0 0 0 0 0 0 0 0 0 0 0 0 0 0 0 0 127 0"/>
<feOffset dx="2" dy="4"/>
<feGaussianBlur stdDeviation="8"/>
<feColorMatrix type="matrix" values="0 0 0 0 0 0 0 0 0 0 0 0 0 0 0 0 0 0 0.1 0"/>
<feBlend mode="normal" in2="BackgroundImageFix" result="effect1_dropShadow"/>
<feBlend mode="normal" in="SourceGraphic" in2="effect1_dropShadow" result="shape"/>
</filter>
<filter id="filter11_d" x="50.2098" y="200.8" width="55.1189" height="41.6" filterUnits="userSpaceOnUse" color-interpolation-filters="sRGB">
<feFlood flood-opacity="0" result="BackgroundImageFix"/>
<feColorMatrix in="SourceAlpha" type="matrix" values="0 0 0 0 0 0 0 0 0 0 0 0 0 0 0 0 0 0 127 0"/>
<feOffset dx="2" dy="4"/>
<feGaussianBlur stdDeviation="8"/>
<feColorMatrix type="matrix" values="0 0 0 0 0 0 0 0 0 0 0 0 0 0 0 0 0 0 0.1 0"/>
<feBlend mode="normal" in2="BackgroundImageFix" result="effect1_dropShadow"/>
<feBlend mode="normal" in="SourceGraphic" in2="effect1_dropShadow" result="shape"/>
</filter>
<filter id="filter12_d" x="24.6993" y="125.6" width="79.035" height="85.6" filterUnits="userSpaceOnUse" color-interpolation-filters="sRGB">
<feFlood flood-opacity="0" result="BackgroundImageFix"/>
<feColorMatrix in="SourceAlpha" type="matrix" values="0 0 0 0 0 0 0 0 0 0 0 0 0 0 0 0 0 0 127 0"/>
<feOffset dx="2" dy="4"/>
<feGaussianBlur stdDeviation="8"/>
<feColorMatrix type="matrix" values="0 0 0 0 0 0 0 0 0 0 0 0 0 0 0 0 0 0 0.1 0"/>
<feBlend mode="normal" in2="BackgroundImageFix" result="effect1_dropShadow"/>
<feBlend mode="normal" in="SourceGraphic" in2="effect1_dropShadow" result="shape"/>
</filter>
<filter id="filter13_d" x="63.7622" y="131.2" width="61.4965" height="61.6" filterUnits="userSpaceOnUse" color-interpolation-filters="sRGB">
<feFlood flood-opacity="0" result="BackgroundImageFix"/>
<feColorMatrix in="SourceAlpha" type="matrix" values="0 0 0 0 0 0 0 0 0 0 0 0 0 0 0 0 0 0 127 0"/>
<feOffset dx="2" dy="4"/>
<feGaussianBlur stdDeviation="8"/>
<feColorMatrix type="matrix" values="0 0 0 0 0 0 0 0 0 0 0 0 0 0 0 0 0 0 0.1 0"/>
<feBlend mode="normal" in2="BackgroundImageFix" result="effect1_dropShadow"/>
<feBlend mode="normal" in="SourceGraphic" in2="effect1_dropShadow" result="shape"/>
</filter>
<filter id="filter14_d" x="21.5105" y="126.4" width="52.7273" height="80" filterUnits="userSpaceOnUse" color-interpolation-filters="sRGB">
<feFlood flood-opacity="0" result="BackgroundImageFix"/>
<feColorMatrix in="SourceAlpha" type="matrix" values="0 0 0 0 0 0 0 0 0 0 0 0 0 0 0 0 0 0 127 0"/>
<feOffset dx="2" dy="4"/>
<feGaussianBlur stdDeviation="8"/>
<feColorMatrix type="matrix" values="0 0 0 0 0 0 0 0 0 0 0 0 0 0 0 0 0 0 0.1 0"/>
<feBlend mode="normal" in2="BackgroundImageFix" result="effect1_dropShadow"/>
<feBlend mode="normal" in="SourceGraphic" in2="effect1_dropShadow" result="shape"/>
</filter>
<filter id="filter15_d" x="100.434" y="113.6" width="41.5664" height="49.6" filterUnits="userSpaceOnUse" color-interpolation-filters="sRGB">
<feFlood flood-opacity="0" result="BackgroundImageFix"/>
<feColorMatrix in="SourceAlpha" type="matrix" values="0 0 0 0 0 0 0 0 0 0 0 0 0 0 0 0 0 0 127 0"/>
<feOffset dx="2" dy="4"/>
<feGaussianBlur stdDeviation="8"/>
<feColorMatrix type="matrix" values="0 0 0 0 0 0 0 0 0 0 0 0 0 0 0 0 0 0 0.1 0"/>
<feBlend mode="normal" in2="BackgroundImageFix" result="effect1_dropShadow"/>
<feBlend mode="normal" in="SourceGraphic" in2="effect1_dropShadow" result="shape"/>
</filter>
</defs>
</svg>
